<?xml version="1.0" encoding="UTF-8"?>
<svg width="32px" height="32px" viewBox="0 0 32 32" version="1.1" xmlns="http://www.w3.org/2000/svg" xmlns:xlink="http://www.w3.org/1999/xlink">
    <!-- Generator: Sketch 53.2 (72643) - https://sketchapp.com -->
    <title>Path</title>
    <desc>Created with Sketch.</desc>
    <g id="Symbols" stroke="none" stroke-width="1" fill="none" fill-rule="evenodd">
        <g id="Plus" fill="#ED1D23" fill-rule="nonzero">
            <path d="M29.1428571,13.1428571 L19.4285714,13.1428571 C19.1130022,13.1428571 18.8571429,12.8869978 18.8571429,12.5714286 L18.8571429,2.85714286 C18.8571429,1.27929686 17.577846,0 16,0 C14.422154,0 13.1428571,1.27929686 13.1428571,2.85714286 L13.1428571,12.5714286 C13.1428571,12.8869978 12.8869978,13.1428571 12.5714286,13.1428571 L2.85714286,13.1428571 C1.27929686,13.1428571 0,14.422154 0,16 C0,17.577846 1.27929686,18.8571429 2.85714286,18.8571429 L12.5714286,18.8571429 C12.8869978,18.8571429 13.1428571,19.1130022 13.1428571,19.4285714 L13.1428571,29.1428571 C13.1428571,30.7207031 14.422154,32 16,32 C17.577846,32 18.8571429,30.7207031 18.8571429,29.1428571 L18.8571429,19.4285714 C18.8571429,19.1130022 19.1130022,18.8571429 19.4285714,18.8571429 L29.1428571,18.8571429 C30.7207031,18.8571429 32,17.577846 32,16 C32,14.422154 30.7207031,13.1428571 29.1428571,13.1428571 Z" id="Path"></path>
        </g>
    </g>
</svg>