<?xml version="1.0" encoding="UTF-8"?>
<svg width="32px" height="31px" viewBox="0 0 32 31" version="1.1" xmlns="http://www.w3.org/2000/svg" xmlns:xlink="http://www.w3.org/1999/xlink">
    <!-- Generator: Sketch 53.2 (72643) - https://sketchapp.com -->
    <title>github-logo</title>
    <desc>Created with Sketch.</desc>
    <g id="Symbols" stroke="none" stroke-width="1" fill="none" fill-rule="evenodd">
        <g id="Footer" transform="translate(-39.000000, -158.000000)" fill="#FFFFFF" fill-rule="nonzero">
            <g id="github-logo" transform="translate(39.000000, 158.000000)">
                <path d="M29.8537075,7.91328127 C28.4229431,5.4788937 26.4822026,3.55158567 24.0309751,2.13092242 C21.5793828,0.710186705 18.9029748,0 15.9998541,0 C13.0970981,0 10.4198146,0.710404087 7.96873304,2.13092242 C5.51728667,3.55151321 3.5766191,5.4788937 2.14585471,7.91328127 C0.715309226,10.3475964 0,13.0058873 0,15.8880816 C0,19.3502509 1.0171795,22.4635221 3.05204927,25.2286925 C5.08670014,27.9940803 7.71516785,29.9076208 10.9372335,30.9695314 C11.3122911,31.0386589 11.5899358,30.9900378 11.7704597,30.8249 C11.9510564,30.6595448 12.0412454,30.4524523 12.0412454,30.204492 C12.0412454,30.163117 12.0376699,29.7908867 12.0307379,29.0873664 C12.023587,28.383846 12.0202305,27.7701044 12.0202305,27.2464314 L11.541047,27.3287467 C11.2355283,27.384324 10.8501092,27.4078737 10.3847897,27.4012073 C9.91968915,27.3947583 9.43685725,27.3463546 8.93695074,27.2563585 C8.43682533,27.1671595 7.97165178,26.9602844 7.54106525,26.6361679 C7.11069762,26.3120515 6.80517893,25.8877945 6.62458214,25.364049 L6.41625736,24.8879826 C6.27739849,24.5710398 6.05878517,24.2189535 5.76012551,23.8330282 C5.46146584,23.4467405 5.15944964,23.1848678 4.85393094,23.0469752 L4.70806711,22.943284 C4.6108732,22.874374 4.52068426,22.7912616 4.43728138,22.6948165 C4.35395147,22.5983714 4.29156348,22.5018538 4.24989853,22.4051913 C4.2081606,22.3084564 4.24274763,22.229112 4.35402444,22.1668683 C4.46530125,22.1046246 4.66640216,22.0744085 4.95820279,22.0744085 L5.37470642,22.1362174 C5.65249712,22.1915049 5.99610531,22.3566427 6.40596882,22.6326453 C6.81561341,22.9084305 7.15236258,23.2669657 7.41628928,23.708106 C7.73589088,24.2737338 8.12094512,24.7047297 8.57254655,25.001311 C9.02378314,25.2978924 9.47874111,25.4459295 9.93698267,25.4459295 C10.3952242,25.4459295 10.7910048,25.4114382 11.1244704,25.342818 C11.4575712,25.2738355 11.7700948,25.1701443 12.0618954,25.0323242 C12.1868903,24.1078714 12.5272149,23.3976847 13.0825774,22.9012569 C12.2910162,22.8186517 11.5793554,22.6942368 10.9472302,22.5288092 C10.3154698,22.3631642 9.66262148,22.0943352 8.98912315,21.7215977 C8.31525997,21.3493674 7.75624906,20.887141 7.31194447,20.3357155 C6.86756691,19.7840002 6.50287085,19.0596837 6.21836706,18.1634181 C5.93371733,17.2667902 5.79135598,16.232487 5.79135598,15.0602188 C5.79135598,13.3910881 6.34007835,11.9707146 7.43730418,10.7983015 C6.92331477,9.54342822 6.97183876,8.13667741 7.58302208,6.57819403 C7.98580765,6.45392404 8.58312697,6.54718088 9.37468817,6.85738486 C10.1663953,7.16773377 10.7460563,7.43359185 11.1142548,7.65401711 C11.4824534,7.87436991 11.7774646,8.06110097 11.9997264,8.2125437 C13.2916319,7.85408093 14.6248375,7.67481331 15.9997081,7.67481331 C17.3745787,7.67481331 18.7080762,7.85408093 20.0000547,8.2125437 L20.7916889,7.7162608 C21.3330415,7.38511568 21.9723176,7.08165054 22.707985,6.80579289 C23.4440902,6.53008017 24.0069685,6.45414142 24.396036,6.57841141 C25.0207914,8.13696726 25.0764663,9.54364561 24.562331,10.7985189 C25.6594838,11.970932 26.2084251,13.3916677 26.2084251,15.0604362 C26.2084251,16.2327044 26.065553,17.2702683 25.7813411,18.17378 C25.4967643,19.0774366 25.1289306,19.8010285 24.677694,20.3460774 C24.2259467,20.8910539 23.6633603,21.3496572 22.989862,21.7218151 C22.3162177,22.0942627 21.6631505,22.3630917 21.0313901,22.5287367 C20.3993378,22.6943817 19.687677,22.8188691 18.8961158,22.9016192 C19.6180652,23.5220271 19.9791128,24.5013326 19.9791128,25.8391009 L19.9791128,30.2039123 C19.9791128,30.4518726 20.0659452,30.6588927 20.2397559,30.8243203 C20.4133477,30.9894581 20.68749,31.0380792 21.0625476,30.9688793 C24.2850511,29.9071136 26.9135188,27.9935006 28.9480967,25.2281128 C30.9824557,22.4629425 32,19.3496712 32,15.8875019 C31.9992703,13.0056699 31.2835962,10.3475964 29.8537075,7.91328127 Z" id="Path"></path>
            </g>
        </g>
    </g>
</svg>