<?xml version="1.0" encoding="UTF-8"?>
<svg width="31px" height="31px" viewBox="0 0 31 31" version="1.1" xmlns="http://www.w3.org/2000/svg" xmlns:xlink="http://www.w3.org/1999/xlink">
    <!-- Generator: Sketch 53.2 (72643) - https://sketchapp.com -->
    <title>instagram</title>
    <desc>Created with Sketch.</desc>
    <g id="Symbols" stroke="none" stroke-width="1" fill="none" fill-rule="evenodd">
        <g id="Footer" transform="translate(-208.000000, -161.000000)" fill="#FFFFFF" fill-rule="nonzero">
            <g id="instagram" transform="translate(208.000000, 161.000000)">
                <path d="M21.3125,0 L9.6875,0 C4.3380625,0 0,4.3380625 0,9.6875 L0,21.3125 C0,26.6619375 4.3380625,31 9.6875,31 L21.3125,31 C26.6619375,31 31,26.6619375 31,21.3125 L31,9.6875 C31,4.3380625 26.6619375,0 21.3125,0 Z M28.09375,21.3125 C28.09375,25.051875 25.051875,28.09375 21.3125,28.09375 L9.6875,28.09375 C5.948125,28.09375 2.90625,25.051875 2.90625,21.3125 L2.90625,9.6875 C2.90625,5.948125 5.948125,2.90625 9.6875,2.90625 L21.3125,2.90625 C25.051875,2.90625 28.09375,5.948125 28.09375,9.6875 L28.09375,21.3125 Z" id="Shape"></path>
                <path d="M15.5,7.75 C11.2200625,7.75 7.75,11.2200625 7.75,15.5 C7.75,19.7799375 11.2200625,23.25 15.5,23.25 C19.7799375,23.25 23.25,19.7799375 23.25,15.5 C23.25,11.2200625 19.7799375,7.75 15.5,7.75 Z M15.5,20.34375 C12.830125,20.34375 10.65625,18.169875 10.65625,15.5 C10.65625,12.8281875 12.830125,10.65625 15.5,10.65625 C18.169875,10.65625 20.34375,12.8281875 20.34375,15.5 C20.34375,18.169875 18.169875,20.34375 15.5,20.34375 Z" id="Shape"></path>
                <circle id="Oval" cx="23.83125" cy="7.16875" r="1.0326875"></circle>
            </g>
        </g>
    </g>
</svg>