<?xml version="1.0" encoding="UTF-8"?>
<svg width="32px" height="27px" viewBox="0 0 32 27" version="1.1" xmlns="http://www.w3.org/2000/svg" xmlns:xlink="http://www.w3.org/1999/xlink">
    <!-- Generator: Sketch 53.2 (72643) - https://sketchapp.com -->
    <title>meetup</title>
    <desc>Created with Sketch.</desc>
    <g id="Symbols" stroke="none" stroke-width="1" fill="none" fill-rule="evenodd">
        <g id="Footer" transform="translate(-149.000000, -162.000000)" fill="#FFFFFF" fill-rule="nonzero">
            <g id="meetup" transform="translate(149.000000, 162.000000)">
                <path d="M15.1383614,2.91298723 C13.612706,3.00404966 11.580277,0.0994258908 8.14888608,1.48009307 C4.86419276,2.8018375 4.60147064,5.29935863 1.03005013,16.9781156 C0.195207244,19.7099886 -0.732988677,21.7669283 0.900689488,23.8801124 C2.27297915,25.6558298 4.7241632,26.058915 6.72458544,25.0518716 C7.242028,24.7920758 7.63010991,24.1399081 8.14888608,23.3591817 C8.57030837,22.5101584 13.7140608,9.03961413 13.7140608,9.03425752 C14.3141874,7.82500198 16.6400117,7.96025648 16.3026071,10.3359146 C16.3026071,11.1139628 12.677842,19.7997119 12.677842,20.2335976 C12.24175,23.3015981 16.2532634,23.6042467 17.4668529,20.7545283 C17.5962135,20.6246304 18.1136561,19.4528711 19.1498748,17.3691484 C24.2322809,7.14203374 22.31721,11.1260152 23.809525,8.12229404 C24.3269676,7.47146548 24.8444101,7.08043268 25.2338257,7.08043268 C25.8806288,7.08043268 26.2687108,7.60136336 26.1393501,8.51332684 C26.1393501,9.56054481 22.3092083,16.4277236 21.2209786,19.7126669 C20.6755302,22.4565923 22.0944963,24.9045647 24.4563282,26.2236308 C25.1898164,26.7151001 29.6467571,27.5480536 31.0577216,26.4834266 C32.5286988,25.9906181 32.1152782,23.8573467 30.928361,23.6189774 C29.6374218,22.969488 29.0026212,23.5212192 27.3035959,22.838251 C23.5681407,21.3343817 31.9325729,8.91373371 31.4471371,4.99670995 C31.0590552,2.52195443 29.7641152,1.35019519 27.1755688,1.2202973 C25.6339101,1.2202973 25.4672082,1.924692 24.7177167,1.84166449 C23.9682252,1.75863698 22.4118967,-0.0277936842 20.1887608,0.00032853761 C17.9656248,0.0284507595 16.3386147,2.84067294 15.1383614,2.91298723 L15.1383614,2.91298723 Z" id="Path"></path>
            </g>
        </g>
    </g>
</svg>