<?xml version="1.0" encoding="UTF-8"?>
<svg width="33px" height="27px" viewBox="0 0 33 27" version="1.1" xmlns="http://www.w3.org/2000/svg" xmlns:xlink="http://www.w3.org/1999/xlink">
    <!-- Generator: Sketch 53.2 (72643) - https://sketchapp.com -->
    <title>twitter</title>
    <desc>Created with Sketch.</desc>
    <g id="Symbols" stroke="none" stroke-width="1" fill="none" fill-rule="evenodd">
        <g id="Footer" transform="translate(-206.000000, -162.000000)" fill="#FFFFFF" fill-rule="nonzero">
            <g id="twitter" transform="translate(206.000000, 162.000000)">
                <path d="M33,3.19638462 C31.7728125,3.73846154 30.4651875,4.09776923 29.101875,4.27223077 C30.504375,3.429 31.5748125,2.10392308 32.0780625,0.506769231 C30.7704375,1.29184615 29.3266875,1.84638462 27.7880625,2.15584615 C26.5464375,0.824538462 24.7768125,0 22.8463125,0 C19.1008125,0 16.0854375,3.06138462 16.0854375,6.81438462 C16.0854375,7.35438462 16.1308125,7.87361538 16.2421875,8.36792308 C10.61775,8.09169231 5.6409375,5.37715385 2.297625,1.242 C1.7139375,2.26176923 1.3715625,3.429 1.3715625,4.68553846 C1.3715625,7.04492308 2.578125,9.13638462 4.376625,10.3472308 C3.2896875,10.3264615 2.223375,10.0086923 1.32,9.50815385 C1.32,9.52892308 1.32,9.55592308 1.32,9.58292308 C1.32,12.8935385 3.6650625,15.6433846 6.74025,16.2768462 C6.1895625,16.4284615 5.589375,16.5011538 4.9665,16.5011538 C4.533375,16.5011538 4.096125,16.4762308 3.6856875,16.3848462 C4.56225,19.0827692 7.049625,21.0662308 10.00725,21.1306154 C7.7055,22.9437692 4.7829375,24.0362308 1.6190625,24.0362308 C1.06425,24.0362308 0.532125,24.0113077 0,23.9427692 C2.9968125,25.8888462 6.5484375,27 10.3785,27 C22.82775,27 29.634,16.6153846 29.634,7.614 C29.634,7.31284615 29.6236875,7.02207692 29.60925,6.73338462 C30.9519375,5.77384615 32.080125,4.57546154 33,3.19638462 Z" id="Path"></path>
            </g>
        </g>
    </g>
</svg>