<?xml version="1.0" encoding="UTF-8"?>
<svg width="17px" height="32px" viewBox="0 0 17 32" version="1.1" xmlns="http://www.w3.org/2000/svg" xmlns:xlink="http://www.w3.org/1999/xlink">
    <!-- Generator: Sketch 53.2 (72643) - https://sketchapp.com -->
    <title>facebook-logo</title>
    <desc>Created with Sketch.</desc>
    <g id="Symbols" stroke="none" stroke-width="1" fill="none" fill-rule="evenodd">
        <g id="Footer" transform="translate(-264.000000, -160.000000)" fill="#FFFFFF" fill-rule="nonzero">
            <g id="facebook-logo" transform="translate(264.000000, 160.000000)">
                <path d="M16.3598299,0.00665813593 L12.2823029,0 C7.70134118,0 4.74092247,3.09103961 4.74092247,7.87524318 L4.74092247,11.5062576 L0.641151456,11.5062576 C0.286882565,11.5062576 0,11.7985498 0,12.1590878 L0,17.4200139 C0,17.780552 0.287209683,18.0725113 0.641151456,18.0725113 L4.74092247,18.0725113 L4.74092247,31.3475027 C4.74092247,31.7080407 5.02780504,32 5.38207393,32 L10.7311089,32 C11.0853778,32 11.3722604,31.7077078 11.3722604,31.3475027 L11.3722604,18.0725113 L16.1658489,18.0725113 C16.5201178,18.0725113 16.8070003,17.780552 16.8070003,17.4200139 L16.808963,12.1590878 C16.808963,11.9859763 16.7412496,11.8201887 16.6211973,11.697679 C16.5011449,11.5751693 16.3375859,11.5062576 16.1674845,11.5062576 L11.3722604,11.5062576 L11.3722604,8.42820137 C11.3722604,6.94876356 11.7186784,6.19772583 13.6123651,6.19772583 L16.3591757,6.19672711 C16.7131174,6.19672711 17,5.90443494 17,5.54422979 L17,0.659155457 C17,0.29928321 16.7134446,0.00732394952 16.3598299,0.00665813593 Z" id="Path"></path>
            </g>
        </g>
    </g>
</svg>