<?xml version="1.0" encoding="UTF-8"?>
<svg width="39px" height="27px" viewBox="0 0 39 27" version="1.1" xmlns="http://www.w3.org/2000/svg" xmlns:xlink="http://www.w3.org/1999/xlink">
    <!-- Generator: Sketch 53.2 (72643) - https://sketchapp.com -->
    <title>youtube</title>
    <desc>Created with Sketch.</desc>
    <g id="Symbols" stroke="none" stroke-width="1" fill="none" fill-rule="evenodd">
        <g id="Footer" transform="translate(-146.000000, -162.000000)" fill="#FFFFFF" fill-rule="nonzero">
            <g id="youtube" transform="translate(146.000000, 162.000000)">
                <path d="M37.3425,2.60181818 C36.284625,0.706909091 35.1365625,0.358363636 32.799,0.225818182 C30.463875,0.0662727273 24.5919375,0 19.504875,0 C14.4080625,0 8.5336875,0.0662727273 6.201,0.223363636 C3.8683125,0.358363636 2.7178125,0.704454545 1.6501875,2.60181818 C0.560625,4.49427273 0,7.75390909 0,13.4926364 C0,13.4975455 0,13.5 0,13.5 C0,13.5049091 0,13.5073636 0,13.5073636 L0,13.5122727 C0,19.2264545 0.560625,22.5106364 1.6501875,24.3834545 C2.7178125,26.2783636 3.865875,26.622 6.1985625,26.7815455 C8.5336875,26.919 14.4080625,27 19.504875,27 C24.5919375,27 30.463875,26.919 32.8014375,26.784 C35.139,26.6244545 36.2870625,26.2808182 37.3449375,24.3859091 C38.44425,22.5130909 39,19.2289091 39,13.5147273 C39,13.5147273 39,13.5073636 39,13.5024545 C39,13.5024545 39,13.4975455 39,13.4950909 C39,7.75390909 38.44425,4.49427273 37.3425,2.60181818 Z M14.625,20.8636364 L14.625,6.13636364 L26.8125,13.5 L14.625,20.8636364 Z" id="Shape"></path>
            </g>
        </g>
    </g>
</svg>