<?xml version="1.0" encoding="UTF-8"?>
<svg width="42px" height="39px" viewBox="0 0 42 39" version="1.1" xmlns="http://www.w3.org/2000/svg" xmlns:xlink="http://www.w3.org/1999/xlink">
    <!-- Generator: Sketch 53.2 (72643) - https://sketchapp.com -->
    <title>electric-guitar</title>
    <desc>Created with Sketch.</desc>
    <g id="Website" stroke="none" stroke-width="1" fill="none" fill-rule="evenodd">
        <g id="Landingpage" transform="translate(-115.000000, -521.000000)" fill-rule="nonzero">
            <g id="Group-6" transform="translate(13.000000, 469.000000)">
                <g id="electric-guitar" transform="translate(102.000000, 52.000000)">
                    <path d="M18.1806735,31.9724855 C18.1806735,31.9724855 18.6883826,29.3076365 20.9203115,28.3452982 C22.5708354,27.6336819 25.1605519,26.1640252 26.6209196,24.6553692 C27.1379325,24.1211266 27.1247113,23.2679539 26.5897437,22.7521504 C26.1311651,22.3084712 25.4388493,22.2570704 24.9247744,22.5888099 C24.9247744,22.5888099 23.7216482,23.3872366 21.5922242,22.3324583 C20.0221698,21.5546736 21.2470865,19.8402509 21.2470865,19.8402509 C21.2470865,19.8402509 18.8431192,17.3992812 18.8276129,17.4138856 C17.3002417,18.8478064 17.3479848,16.9844844 17.3479848,16.9844844 C17.3032613,14.8998124 18.8932291,13.0918076 18.8932291,13.0918076 C19.6091308,12.4065444 19.6340225,11.2709117 18.9488069,10.5549712 C18.2613062,9.83617506 17.1270607,9.81365658 16.4107509,10.4988382 C16.2005997,10.6997911 13.6591976,13.163524 11.467177,16.6794244 L11.467177,16.6794244 C11.467177,16.6794244 9.50669015,19.8113685 6.7680315,20.1444135 C6.76427734,20.1448214 4.8222348,20.4701154 3.40765154,21.5269334 C-0.475209343,24.4279816 -1.16768837,30.2116389 1.99208894,34.6240356 C5.15186624,39.0364322 10.9084603,40.3265122 14.8500819,37.5056657 C16.6951692,36.1849899 17.835046,34.1655073 18.1806735,31.9724855 Z" id="Path" fill="#D80027"></path>
                    <path d="M3.14831447,36.3088107 C0.0326044924,31.7725784 0.715363131,25.8264904 4.54425169,22.843968 C5.93914271,21.757386 7.8542308,21.4230402 7.85785222,21.4226208 C10.5583864,21.0803063 12.4843387,17.8723982 12.4913401,17.8607389 C12.4914206,17.860655 12.491662,17.8602356 12.491662,17.8602356 L12.491662,17.8602356 C14.6531677,14.2456771 17.1591913,11.7126678 17.3664171,11.5060713 C17.8171633,11.0566421 18.4352997,10.9048192 19,11.0447311 C18.9212944,10.8747901 18.816917,10.7142437 18.6850973,10.5705572 C18.0071672,9.83157413 16.8887114,9.80842324 16.1823732,10.5128478 C15.9751475,10.7194443 13.4691239,13.2523697 11.3076182,16.8670121 L11.3076182,16.8670121 C11.3076182,16.8670121 9.37442301,20.0869151 6.67388887,20.4293134 C6.67018697,20.4297328 4.75517936,20.7641625 3.36028833,21.8506606 C-0.468600222,24.833183 -1.15143934,30.779271 1.96435112,35.3155872 C2.70770821,36.3978913 3.59712929,37.2970014 4.57298163,38 C4.05688885,37.4989845 3.57813695,36.9346397 3.14831447,36.3088107 Z" id="Path" fill="#A5001E"></path>
                    <path d="M23.934573,24.9397607 C23.7803216,24.6374241 23.3225658,24.6030335 22.9797751,24.6239851 C22.8514807,24.6456044 22.7160832,24.6638848 22.5737579,24.6766561 C22.572881,24.676823 22.5716533,24.6770734 22.5716533,24.6770734 L22.5720041,24.676823 C21.605543,24.7638846 20.3487315,24.6055377 19.2143389,23.6081274 C19.2142512,23.6080439 19.2141635,23.6079605 19.2140758,23.607877 C18.3869584,22.8205664 18.621624,21.953206 18.9431054,21.2056282 C18.5382283,20.8151449 18.1386127,20.3648954 17.7115493,19.9578011 C16.7537698,20.4781673 15.8492198,19.796783 15.6014003,19.5610573 C15.6014003,19.5610573 15.6013126,19.5609738 15.6012249,19.5608904 C15.2488757,19.2254987 15.1347875,18.7517101 15.0998858,18.4221615 C15.0225409,18.0154845 14.8518032,17.7159025 14.8518032,17.7159025 C14.8518032,17.7159025 13.4178524,15.3692463 12.3541402,19.1731616 C12.3541402,19.1731616 11.6105062,23.4037873 8.09245108,25.2389254 C8.10043111,25.2465213 2.5899982,27.3630445 9.42169679,33.9272213 C9.42169679,33.9272213 10.8927416,35.5651978 11.0282268,37.3630238 C11.0282268,37.3630238 10.9956928,38.1650255 11.6070862,37.9691996 C12.0679112,37.7802183 12.5114608,37.5449934 12.9299303,37.2597686 C14.5444404,36.159604 15.6033295,34.5251332 15.9313879,32.5433343 C15.9313879,32.5433343 16.5840845,29.4117882 19.2637976,28.3117905 C20.494389,27.8066162 22.1103898,26.961042 23.41894,26.0339154 C24.2716637,25.3629652 23.9338715,24.952532 23.934573,24.9397607 Z" id="Path" fill="#FFFFFF"></path>
                    <path d="M10.0473521,26.1111272 C13.5907127,24.2759057 14.3396956,20.0453635 14.3396956,20.0453635 C14.8756424,18.1426128 15.5048587,17.7787572 16,17.8904431 C15.9525703,17.7809274 15.9155628,17.7159025 15.9155628,17.7159025 C15.9155628,17.7159025 14.4712975,15.3692463 13.3998457,19.1731616 C13.3998457,19.1731616 12.6508627,23.4037873 9.10750213,25.2389254 C9.11553957,25.2465213 3.56546997,27.3630445 10.4463091,33.9272213 C10.4463091,33.9272213 11.9279352,35.5651978 12.0643949,37.3630238 C12.0643949,37.3630238 12.0315386,38.1650255 12.6474181,37.9691996 C12.7482835,37.9281312 12.8482656,37.8843917 12.9473646,37.8388993 C12.6346995,36.2172833 11.3860708,34.7993397 11.3860708,34.7993397 C4.50531991,28.2353299 10.0553895,26.1187232 10.0473521,26.1111272 Z" id="Path" fill="#D8D7DA"></path>
                    <g id="Group" transform="translate(6.000000, 28.000000)" fill="#57565C">
                        <ellipse id="Oval" cx="8.78529412" cy="4.57066667" rx="1.14151261" ry="1.132"></ellipse>
                        <ellipse id="Oval" cx="8.78529412" cy="7.2735" rx="1" ry="1"></ellipse>
                        <path d="M3.90563025,5.4585 L0.262521008,1.84575 C-0.0774789916,1.50858333 -0.0774789916,0.956833333 0.262521008,0.619666667 L0.55092437,0.333666667 C0.89092437,-0.0035 1.44731092,-0.0035 1.78731092,0.333666667 L5.43042017,3.94641667 C5.77042017,4.28358333 5.77042017,4.83533333 5.43042017,5.1725 L5.14201681,5.4585 C4.80210084,5.79566667 4.24563025,5.79566667 3.90563025,5.4585 Z" id="Path"></path>
                    </g>
                    <path d="M6.27888522,29.7516664 L6.60440412,29.407658 C6.98825464,29.0021049 7.61614948,29.0021049 8,29.407658 L7.00893154,28.3041648 C6.62517586,27.8986117 5.99718617,27.8986117 5.61333565,28.3041648 L5.28781675,28.6481732 C4.90406108,29.0537263 4.90406108,29.7173859 5.28781675,30.1230391 L6.11764334,31 C5.90708042,30.6026663 5.96019539,30.0884579 6.27888522,29.7516664 Z" id="Path" fill="#2D2D30"></path>
                    <g id="Group" transform="translate(9.000000, 23.000000)" fill="#ACABB1">
                        <path d="M3.89959615,8.94931132 C3.72608654,8.94931132 3.55249038,8.88435849 3.42,8.75436792 L0.22275,5.6174434 C-0.0422307692,5.35763208 -0.0422307692,4.93633019 0.222663462,4.67651887 C0.487644231,4.41662264 0.916961538,4.41662264 1.18176923,4.67651887 L4.37901923,7.81335849 C4.644,8.07316981 4.644,8.4944717 4.37910577,8.75428302 C4.24678846,8.88435849 4.07310577,8.94931132 3.89959615,8.94931132 Z" id="Path"></path>
                        <path d="M6.152625,6.59479245 C5.97902885,6.59479245 5.80551923,6.52983962 5.67302885,6.39984906 L2.61977885,3.40420755 C2.35488462,3.14439623 2.35488462,2.72300943 2.61977885,2.46328302 C2.88484615,2.2034717 3.31416346,2.2034717 3.57888462,2.46328302 L6.63213462,5.45892453 C6.89702885,5.71873585 6.89702885,6.14012264 6.63213462,6.39984906 C6.49973077,6.52983962 6.32613462,6.59479245 6.152625,6.59479245 Z" id="Path"></path>
                        <path d="M8.23846154,3.99616981 C8.06495192,3.99616981 7.89135577,3.93121698 7.75886538,3.80122642 L5.05635577,1.14979245 C4.79146154,0.889981132 4.79146154,0.46859434 5.05635577,0.208867925 C5.32133654,-0.0509433962 5.75065385,-0.0509433962 6.01546154,0.208867925 L8.71797115,2.86030189 C8.98286538,3.12011321 8.98286538,3.5415 8.71797115,3.80122642 C8.58548077,3.93121698 8.41188462,3.99616981 8.23846154,3.99616981 Z" id="Path"></path>
                    </g>
                    <path d="M33,9.69977432 L31.1972687,8 L16.1382325,21.3341597 C15.8843362,21.5735556 16.022327,21.8214559 16.2151938,22.0033077 L18.12793,23.8068044 C18.3212183,23.9890536 18.6080739,24.096591 18.8392949,23.8785754 L33,9.69977432 Z" id="Path" fill="#57565C"></path>
                    <path d="M17.8997723,23.5482593 L32,8.93735984 L31.2297386,8 L17.129432,22.6108994 C16.8916999,22.8732174 17.0209056,23.144854 17.2014935,23.3441181 L17.7959027,24 C17.7477564,23.8570838 17.7611742,23.701191 17.8997723,23.5482593 Z" id="Path" fill="#2D2D30"></path>
                    <g id="Group" transform="translate(17.000000, 9.000000)" fill="#FFDAAA">
                        <path d="M0.316829545,11.2118523 C0.313329545,11.2083523 0.309193182,11.2058068 0.305534091,11.202625 L0.00954545455,11.4805568 C0.0151136364,11.4877955 0.0202840909,11.4951932 0.0268863636,11.5017955 L2.47680682,13.9517159 C2.48468182,13.9595909 2.49351136,13.9661932 2.50234091,13.9725568 L2.779875,13.6778409 C2.7755,13.6725114 2.77176136,13.6667841 2.76675,13.6617727 L0.316829545,11.2118523 Z" id="Path"></path>
                        <polygon id="Path" points="1.32817045 10.2421932 3.74205682 12.656 4.02332955 12.3573864 1.62726136 9.96131818"></polygon>
                        <polygon id="Path" points="2.64902273 9.00184091 4.98415909 11.3369773 5.26535227 11.0383636 2.94795455 8.72096591"></polygon>
                        <polygon id="Path" points="3.96963636 7.76156818 6.22618182 10.0181136 6.50745455 9.7195 4.26872727 7.48069318"></polygon>
                        <polygon id="Path" points="5.29040909 6.52129545 7.46828409 8.69917045 7.74947727 8.40047727 5.58942045 6.24042045"></polygon>
                        <polygon id="Path" points="6.61118182 5.28094318 8.71030682 7.38014773 8.99157955 7.08153409 6.91027273 5.00014773"></polygon>
                        <polygon id="Path" points="7.93195455 4.04067045 9.95240909 6.06120455 10.2336023 5.76251136 8.23088636 3.759875"></polygon>
                        <polygon id="Path" points="9.25264773 2.80039773 11.1944318 4.74226136 11.4757045 4.44364773 9.55157955 2.51952273"></polygon>
                        <polygon id="Path" points="12.7177273 3.124625 10.8724318 1.27925 10.5733409 1.560125 12.4365341 3.42323864"></polygon>
                        <polygon id="Path" points="13.9598295 1.80568182 12.1930455 0.0390568182 11.8941136 0.319852273 13.6785568 2.10429545"></polygon>
                    </g>
                    <g id="Group" transform="translate(18.000000, 9.000000)" fill="#FFB655">
                        <path d="M0.304390244,10.9032 L0.00943292683,11.1737032 C0.0149817073,11.1807484 0.0201341463,11.1879484 0.0267134146,11.1943742 L0.822646341,11.9717419 L1.12069512,11.6983742 L0.315646341,10.9121032 C0.312158537,10.9087742 0.308115854,10.9063742 0.304390244,10.9032 Z" id="Path"></path>
                        <polygon id="Path" points="1.32362195 9.96843871 2.13889634 10.7646968 2.43686585 10.491329 1.62159146 9.69507097"></polygon>
                        <polygon id="Path" points="2.63979268 8.76123871 3.45506707 9.55749677 3.75303659 9.28420645 2.9377622 8.48787097"></polygon>
                        <polygon id="Path" points="3.95588415 7.55411613 4.77115854 8.35037419 5.06920732 8.07708387 4.25385366 7.28074839"></polygon>
                        <polygon id="Path" points="5.27197561 6.34699355 6.08732927 7.14325161 6.38529878 6.86988387 5.56994512 6.07362581"></polygon>
                        <polygon id="Path" points="6.58814634 5.13979355 7.40342073 5.93612903 7.70146951 5.66276129 6.88619512 4.86650323"></polygon>
                        <polygon id="Path" points="7.90431707 3.93267097 8.7195122 4.72892903 9.01756098 4.45563871 8.20228659 3.65938065"></polygon>
                        <polygon id="Path" points="9.22040854 2.72554839 10.0356829 3.52180645 10.3336524 3.24851613 9.51829878 2.45218065"></polygon>
                        <polygon id="Path" points="10.5365 1.51842581 11.3517744 2.31468387 11.6498232 2.04131613 10.8345488 1.24505806"></polygon>
                        <polygon id="Path" points="12.1506402 0.0380129032 11.8526707 0.311303226 12.6679451 1.10756129 12.9659146 0.834193548"></polygon>
                    </g>
                    <path d="M41.8314456,2.89175395 L41.8312924,2.89125388 C41.8189622,2.85658195 41.8024964,2.82366028 41.7820482,2.79340569 C41.7266005,2.71089316 41.6657918,2.63354808 41.6012305,2.56320406 C40.6993631,1.58172169 39.3222079,2.1758119 39.2640032,2.20164916 L31.83049,5.49748296 C31.6738732,5.56699352 31.5759207,5.73801949 31.5877149,5.9216307 L31.658403,7.02321464 L31.1146481,7.61497117 C30.961784,7.78132976 30.961784,8.05103739 31.1146481,8.21739598 L32.6368556,9.87398086 C32.6372385,9.87439759 32.6376214,9.87481432 32.6380044,9.87523105 C32.7908684,10.0415896 33.0386982,10.0415896 33.1915622,9.87523105 C33.200829,9.86514619 33.2095598,9.85464459 33.2177544,9.84380962 L33.8041673,9.1937109 C36.2223452,10.1804441 37.6069291,8.75964499 37.6797616,8.69238477 C37.9863322,8.40942514 38.119667,8.09212696 38.1400387,8.04878704 C39.2595612,5.66575852 39.7466431,5.7180998 39.9184238,5.68867866 C39.9795388,5.67817707 40.0598001,5.66942574 40.1310243,5.77169127 C40.3527385,6.09015629 40.5834131,6.18050335 40.7921844,5.99014111 C42.3285602,4.5885116 42.0414422,3.37066001 41.8314456,2.89175395 Z" id="Path" fill="#FFC477"></path>
                    <path d="M31.9997484,8.67660912 L32.5456808,8.08937761 L32.4747096,6.9962172 C32.4628682,6.81401001 32.5612129,6.64429184 32.7184568,6.57531281 L40.1817375,3.30468141 C40.229718,3.28367341 41.1653385,2.88518306 42,3.27606421 C41.966552,3.11693274 41.9191097,2.98468159 41.8748969,2.88493494 L41.8747431,2.88443869 C41.8623635,2.85003188 41.8458318,2.81736196 41.8253016,2.78733872 C41.7696319,2.70545714 41.7085797,2.6287035 41.6437599,2.55889739 C40.738281,1.58492016 39.355611,2.17446752 39.2970963,2.2001072 L31.8338157,5.4707386 C31.6765717,5.53971763 31.578227,5.70943581 31.5900684,5.891643 L31.6610396,6.98480341 L31.1151072,7.57203492 C30.9616309,7.73712141 30.9616309,8.00476665 31.1151072,8.16985314 L31.8867942,9 C31.8806428,8.88379433 31.9172434,8.76535552 31.9997484,8.67660912 Z" id="Path" fill="#FFA733"></path>
                    <path d="M32.5306867,6.65142902 L31.0483346,3.75067046 C30.9014836,3.46326092 31.1005116,3.14301877 31.4928563,3.03544406 C31.8852009,2.92779845 32.3223656,3.07359515 32.4693133,3.36107559 L33.9516654,6.26183415 C34.0985164,6.54924369 33.8994884,6.86948584 33.5071437,6.97706055 C33.4196334,7.00109998 32.7692106,7.08647898 32.5306867,6.65142902 Z" id="Path" fill="#57565C"></path>
                    <circle id="Oval" fill="#2D2D30" cx="32" cy="3" r="1"></circle>
                    <path d="M34.5308319,5.64818982 L33.0483859,2.74995904 C32.9014385,2.46279996 33.1004661,2.14283687 33.4928099,2.03535591 C33.8850569,1.9279458 34.3223175,2.07347374 34.4691681,2.36070368 L35.9516141,5.25893445 C36.0985615,5.54609354 35.8995339,5.86605663 35.5071901,5.97353758 C35.4196799,5.99755607 34.792104,6.09809363 34.5308319,5.64818982 Z" id="Path" fill="#57565C"></path>
                    <circle id="Oval" fill="#2D2D30" cx="34" cy="3" r="1"></circle>
                    <path d="M38.5306867,4.64415232 L37.0483346,1.74919068 C36.9014836,1.46235551 37.1005116,1.14275333 37.4928563,1.03539361 C37.8852009,0.927892346 38.3223656,1.07353922 38.4693133,1.36037439 L39.9516654,4.25533602 C40.0985164,4.5421712 39.8994884,4.86177337 39.5071437,4.9691331 C39.4196334,4.99305372 38.8329073,5.11131219 38.5306867,4.64415232 Z" id="Path" fill="#57565C"></path>
                    <circle id="Oval" fill="#2D2D30" cx="38" cy="1" r="1"></circle>
                </g>
            </g>
        </g>
    </g>
</svg>