<?xml version="1.0" encoding="UTF-8"?>
<svg width="37px" height="26px" viewBox="0 0 37 26" version="1.1" xmlns="http://www.w3.org/2000/svg" xmlns:xlink="http://www.w3.org/1999/xlink">
    <!-- Generator: Sketch 53.2 (72643) - https://sketchapp.com -->
    <title>game-controller</title>
    <desc>Created with Sketch.</desc>
    <g id="Website" stroke="none" stroke-width="1" fill="none" fill-rule="evenodd">
        <g id="Landingpage" transform="translate(-64.000000, -527.000000)" fill-rule="nonzero">
            <g id="Group-6" transform="translate(13.000000, 469.000000)">
                <g id="game-controller" transform="translate(51.000000, 58.000000)">
                    <path d="M18.5,19.5554273 L24.5062686,19.5554273 C25.5878548,19.5554273 26.6338332,19.9478661 27.4553554,20.6612154 L33.2594228,25.7055679 C33.647929,26.0432328 34.2163817,26.1012287 34.648126,25.8234928 C40.6861873,21.9506571 33.362431,6.66681024 31.9107783,3.89202972 C31.7569018,3.59753954 31.5031964,2.00007533 31.1948077,1.88601677 L26.3139991,0.0875001815 C25.8860699,-0.0703774839 25.4098159,-0.0123816068 25.0314833,0.243444651 C25.0314833,0.243444651 23.6554972,1.13464796 23.3471084,1.13464796 L17.9900458,1.13464796 L13.8258437,1.13464796 C13.5174549,1.13464796 11.9685167,0.243444651 11.9685167,0.243444651 C11.5895482,-0.0123816068 11.1132942,-0.0703774839 10.6860009,0.0875001815 L5.80519232,1.88601677 C5.4961677,2.00007533 5.24309816,3.59753954 5.0892217,3.89202972 C3.63756901,6.66681024 -3.68618731,21.9506571 2.35187399,25.8234928 C2.78425411,26.1005843 3.35270681,26.0425884 3.74057722,25.7055679 L9.54464456,20.6612154 C10.3661668,19.9478661 11.4121452,19.5554273 12.4937314,19.5554273 L18.5,19.5554273 Z" id="Path" fill="#38454F"></path>
                    <circle id="Oval" fill="#546A79" cx="23.5" cy="13.5" r="2.5"></circle>
                    <circle id="Oval" fill="#546A79" cx="9.5" cy="6.5" r="2.5"></circle>
                    <circle id="Oval" fill="#EBBA16" cx="28.5" cy="4.5" r="1.5"></circle>
                    <circle id="Oval" fill="#7383BF" cx="25.5" cy="7.5" r="1.5"></circle>
                    <circle id="Oval" fill="#D75A4A" cx="30.5" cy="7.5" r="1.5"></circle>
                    <circle id="Oval" fill="#61B872" cx="28.5" cy="9.5" r="1.5"></circle>
                    <path d="M20,1.76673724 C20,1.62381146 19.987331,1.48386331 19.9639934,1.34912598 C19.9406558,1.21438866 19.8899798,1.09751707 19.8206338,1 C19.039824,1 18.4337129,1 18.1676642,1 C18.1109871,1.00521084 18.057644,1.02233215 18.0003002,1.02233215 C17.9422895,1.02233215 17.8889464,1.00595524 17.8329362,1 C17.8242679,1 17.6715733,1 17.6715733,1 L16.1732987,1 C16.1146212,1.08486218 16.067946,1.18237925 16.0452752,1.29776203 C15.9872646,1.59403526 15.9825971,1.91338504 16.0452752,2.2439009 C16.2106388,3.11485485 16.8620916,3.81682884 17.6482357,3.96645426 C18.9077998,4.2061527 20,3.12899854 20,1.76673724 Z" id="Path" fill="#AFB6BB"></path>
                    <path d="M17.524586,11.6668889 L15.3335546,11.6668889 L15.3335546,9.47603967 C15.3335546,9.21268439 15.1201857,9 14.8574753,9 L13.1431899,9 C12.8798127,9 12.6671107,9.21335111 12.6671107,9.47603967 L12.6671107,11.6668889 L10.4760793,11.6668889 C10.2127021,11.6668889 10,11.88024 10,12.1429286 L10,13.8570714 C10,14.1204267 10.2133689,14.3331111 10.4760793,14.3331111 L12.6664439,14.3331111 L12.6664439,16.5239603 C12.6664439,16.7873156 12.8798127,17 13.1425231,17 L14.8568085,17 C15.1201857,17 15.3328878,16.7866489 15.3328878,16.5239603 L15.3328878,14.3331111 L17.5239192,14.3331111 C17.7872964,14.3331111 17.9999984,14.11976 17.9999984,13.8570714 L17.9999984,12.1429286 C18.0006652,11.88024 17.7872964,11.6668889 17.524586,11.6668889 Z" id="Path" fill="#546A79"></path>
                </g>
            </g>
        </g>
    </g>
</svg>