<?xml version="1.0" encoding="UTF-8"?>
<svg width="37px" height="38px" viewBox="0 0 37 38" version="1.1" xmlns="http://www.w3.org/2000/svg" xmlns:xlink="http://www.w3.org/1999/xlink">
    <!-- Generator: Sketch 53.2 (72643) - https://sketchapp.com -->
    <title>group</title>
    <desc>Created with Sketch.</desc>
    <g id="Website" stroke="none" stroke-width="1" fill="none" fill-rule="evenodd">
        <g id="Landingpage" transform="translate(-13.000000, -521.000000)" fill-rule="nonzero">
            <g id="Group-6" transform="translate(13.000000, 469.000000)">
                <g id="group" transform="translate(0.000000, 52.000000)">
                    <path d="M8.45600448,12 L1.54385566,12 C1.24350076,12 1,11.7592949 1,11.4623884 L1,9.9540757 C1,7.77030935 2.79087047,6 5,6 L5,6 C7.20912953,6 9,7.77030935 9,9.9540757 L9,11.4623884 C8.99986014,11.759364 8.75642931,12 8.45600448,12 Z" id="Path" fill="#C3DA40"></path>
                    <path d="M12.8395498,26.4630649 C12.0189578,25.9609908 11.4918417,25.3854859 11.272642,24.7524031 C9.89153563,24.2089469 9,22.9371539 9,21.5079308 C9,19.5736826 10.6448125,18 12.6667078,18 L17.3332922,18 C19.3551134,18 21,19.5736826 21,21.5079308 C21,23.442179 19.3551875,25.015793 17.3332922,25.015793 L13.7145714,25.015793 C13.6834687,25.3052611 13.6960579,25.6066017 13.7519686,25.9119912 L13.9197008,26.8287089 C13.9428057,26.9549823 13.792254,27.0459129 13.6769519,26.9753645 L12.8395498,26.4630649 Z" id="Path" fill="#FF62A7"></path>
                    <path d="M21,21.2054884 C21,19.4380048 19.491408,18 17.6369626,18 L13.3568566,18 C12.8741425,18 12.4153365,18.098204 12,18.2735414 C12.1787,20.9271811 14.6201861,23 17.5301909,23 L20.4221966,23 C20.7867962,22.4875959 21,21.8697763 21,21.2054884 Z" id="Path" fill="#FC5479"></path>
                    <path d="M23.0177721,23.8206263 C23.1329618,23.3147124 23.1665619,22.8181134 23.1179148,22.3441684 L18.6490358,22.3441684 C16.1359715,22.3441684 14.0388174,20.308217 14.0005425,17.7445918 C13.9615373,15.1353607 16.0307157,13 18.5794983,13 L24.3563687,13 C26.8747651,13 28.9701662,15.0468313 28.9996758,17.6159709 C29.021881,19.5440924 27.9017578,21.2653474 26.157112,21.9953419 C25.7815219,23.1556129 24.7131135,23.9827811 23.880855,24.4731204 L23.0234695,24.9782146 C22.9054311,25.047816 22.762923,24.9400605 22.7937474,24.8045838 L23.0177721,23.8206263 Z" id="Path" fill="#31D2F7"></path>
                    <path d="M17.5966339,19.1486538 C17.5591605,16.9146995 19.547075,15.0865765 21.9957579,15.0865765 L27,15.0865765 C26.1980413,14.4122113 25.1219794,14 23.9496375,14 L18.3996452,14 C15.9509623,14 13.9630478,15.8281868 14.0005212,18.0620773 C14.0373631,20.2568585 16.0520844,22 18.4664517,22 L19.0089037,22 C18.1585243,21.2858237 17.6156513,20.2773383 17.5966339,19.1486538 Z" id="Path" fill="#13ACE8"></path>
                    <path d="M35.4560045,12 L28.5438557,12 C28.2435008,12 28,11.7592949 28,11.4623884 L28,9.9540757 C28,7.77030935 29.7908705,6 32,6 L32,6 C34.2091295,6 36,7.77030935 36,9.9540757 L36,11.4623884 C35.9998601,11.759364 35.7563594,12 35.4560045,12 Z" id="Path" fill="#FFCF59"></path>
                    <path d="M8.45600448,35 L1.54385566,35 C1.24350076,35 1,34.7592977 1,34.4623255 L1,32.9540301 C1,30.770289 2.79087047,29 5,29 L5,29 C7.20912953,29 9,30.770289 9,32.9540301 L9,34.4623255 C8.99986014,34.7592285 8.75642931,35 8.45600448,35 Z" id="Path" fill="#FF62A7"></path>
                    <path d="M35.4560045,35 L28.5438557,35 C28.2435008,35 28,34.7592977 28,34.4623255 L28,32.9540301 C28,30.770289 29.7908705,29 32,29 L32,29 C34.2091295,29 36,30.770289 36,32.9540301 L36,34.4623255 C35.9998601,34.7592285 35.7563594,35 35.4560045,35 Z" id="Path" fill="#31D2F7"></path>
                    <path d="M4.77571486,11.4623884 L4.77571486,9.9540757 C4.77571486,8.3087505 5.69398555,6.89853102 7,6.30292068 C6.57266091,6.1080477 6.10395827,6 5.61214257,6 L5.61214257,6 C3.61721986,6 2,7.77030935 2,9.9540757 L2,11.4623884 C2,11.7592949 2.21988987,12 2.4911842,12 L5.26683591,12 C4.99560473,12 4.77571486,11.759364 4.77571486,11.4623884 Z" id="Path" fill="#ADBC15"></path>
                    <path d="M31.7757149,11.4623884 L31.7757149,9.9540757 C31.7757149,8.3087505 32.6939856,6.89853102 34,6.30292068 C33.5726609,6.1080477 33.1039583,6 32.6121426,6 L32.6121426,6 C30.6172199,6 29,7.77030935 29,9.9540757 L29,11.4623884 C29,11.7592949 29.2198899,12 29.4911842,12 L32.2668359,12 C31.9956047,12 31.7757149,11.759364 31.7757149,11.4623884 Z" id="Path" fill="#FFB55C"></path>
                    <path d="M4.77571486,34.4623255 L4.77571486,32.9540301 C4.77571486,31.3087239 5.69398555,29.8984515 7,29.3029172 C6.57266091,29.1081156 6.10395827,29 5.61214257,29 L5.61214257,29 C3.61721986,29 2,30.770289 2,32.9540301 L2,34.4623255 C2,34.7592285 2.21988987,35 2.4911842,35 L5.26683591,35 C4.99560473,35 4.77571486,34.7592285 4.77571486,34.4623255 Z" id="Path" fill="#FC5479"></path>
                    <path d="M31.7757149,34.4623255 L31.7757149,32.9540301 C31.7757149,31.3087239 32.6939856,29.8984515 34,29.3029172 C33.5726609,29.1081156 33.1039583,29 32.6121426,29 L32.6121426,29 C30.6172199,29 29,30.770289 29,32.9540301 L29,34.4623255 C29,34.7592285 29.2198899,35 29.4911842,35 L32.2668359,35 C31.9956047,35 31.7757149,34.7592285 31.7757149,34.4623255 Z" id="Path" fill="#13ACE8"></path>
                    <g id="Group" transform="translate(2.000000, 2.000000)" fill="#FAD393">
                        <path d="M2.72860987,5.5048294 C1.26220628,5.5048294 0.0691659193,4.28282415 0.0691659193,2.78074541 C0.0691659193,1.27866667 1.26220628,0.0566614173 2.72860987,0.0566614173 C4.1950852,0.0566614173 5.38812556,1.27866667 5.38812556,2.78074541 C5.38812556,4.28282415 4.1950852,5.5048294 2.72860987,5.5048294 Z" id="Path"></path>
                        <path d="M29.310278,5.5048294 C27.8438744,5.5048294 26.6508341,4.28282415 26.6508341,2.78074541 C26.6508341,1.27866667 27.8438744,0.0566614173 29.310278,0.0566614173 C30.7767534,0.0566614173 31.9697937,1.27866667 31.9697937,2.78074541 C31.9697937,4.28282415 30.7767534,5.5048294 29.310278,5.5048294 Z" id="Path"></path>
                        <path d="M2.72860987,27.9584042 C1.26220628,27.9584042 0.0691659193,26.7363255 0.0691659193,25.2343202 C0.0691659193,23.732315 1.26220628,22.5102362 2.72860987,22.5102362 C4.1950852,22.5102362 5.38812556,23.7322415 5.38812556,25.2343202 C5.38812556,26.736399 4.1950852,27.9584042 2.72860987,27.9584042 Z" id="Path"></path>
                        <path d="M29.310278,27.9584042 C27.8438744,27.9584042 26.6508341,26.7363255 26.6508341,25.2343202 C26.6508341,23.732315 27.8438744,22.5102362 29.310278,22.5102362 C30.7767534,22.5102362 31.9697937,23.7322415 31.9697937,25.2343202 C31.9697937,26.736399 30.7767534,27.9584042 29.310278,27.9584042 Z" id="Path"></path>
                    </g>
                    <g id="Group" transform="translate(2.000000, 2.000000)" fill="#EDB769">
                        <path d="M2.61140515,2.7808189 C2.61140515,1.74371654 3.18697424,0.840367454 4.03166979,0.380314961 C3.65299063,0.174099738 3.22022482,0.0566614173 2.76088759,0.0566614173 C1.27709836,0.0566614173 0.0699133489,1.27866667 0.0699133489,2.78074541 C0.0699133489,4.28282415 1.27709836,5.5048294 2.76088759,5.5048294 C3.22022482,5.5048294 3.65291803,5.38746457 4.03166979,5.18117585 C3.18697424,4.72127034 2.61140515,3.81792126 2.61140515,2.7808189 Z" id="Path"></path>
                        <path d="M29.5082974,2.7808189 C29.5082974,1.74371654 30.0838665,0.840367454 30.9285621,0.380314961 C30.5498103,0.174099738 30.1171171,0.0566614173 29.6577799,0.0566614173 C28.1739906,0.0566614173 26.9668056,1.27866667 26.9668056,2.78074541 C26.9668056,4.28282415 28.1739906,5.5048294 29.6577799,5.5048294 C30.1171171,5.5048294 30.5498103,5.38746457 30.9285621,5.18117585 C30.0839391,4.72127034 29.5082974,3.81792126 29.5082974,2.7808189 Z" id="Path"></path>
                        <path d="M2.61140515,25.2343937 C2.61140515,24.1972913 3.18697424,23.2939423 4.03166979,22.8338898 C3.65299063,22.6276745 3.22022482,22.5102362 2.76088759,22.5102362 C1.27709836,22.5102362 0.0699133489,23.7322415 0.0699133489,25.2343202 C0.0699133489,26.736399 1.27709836,27.9584042 2.76088759,27.9584042 C3.22022482,27.9584042 3.65291803,27.8410394 4.03166979,27.6347507 C3.18697424,27.1747717 2.61140515,26.2714226 2.61140515,25.2343937 Z" id="Path"></path>
                        <path d="M29.5082974,25.2343937 C29.5082974,24.1972913 30.0838665,23.2939423 30.9285621,22.8338898 C30.5498103,22.6276745 30.1171171,22.5102362 29.6577799,22.5102362 C28.1739906,22.5102362 26.9668056,23.7322415 26.9668056,25.2343202 C26.9668056,26.736399 28.1739906,27.9584042 29.6577799,27.9584042 C30.1171171,27.9584042 30.5498103,27.8410394 30.9285621,27.6347507 C30.0839391,27.1747717 29.5082974,26.2714226 29.5082974,25.2343937 Z" id="Path"></path>
                    </g>
                    <path d="M9.59066213,4 C9.69124268,4 9.79309819,3.97543325 9.88631227,3.92393757 C10.4528924,3.61057656 11.044476,3.32603424 11.6445594,3.07807207 C11.9435386,2.95449593 12.0808098,2.62351975 11.9511176,2.33863997 C11.8214962,2.05382768 11.4740683,1.92303 11.1751599,2.04653865 C10.5330735,2.31184602 9.90012439,2.61629821 9.29394951,2.95152632 C9.01204065,3.10743068 8.91627664,3.45136514 9.07982628,3.71991209 C9.18933158,3.89964079 9.38723443,4 9.59066213,4 Z" id="Path" fill="#000000"></path>
                    <path d="M21.4635758,2.42380206 C22.0752912,2.55982369 22.6868723,2.74362506 23.2814725,2.9701269 C23.3346302,2.99035796 23.3881905,3 23.4409454,3 C23.682034,3 23.9044638,2.79837807 23.976683,2.48681967 C24.0646749,2.10716438 23.8959398,1.70796673 23.5999484,1.59527539 C22.9636007,1.35293307 22.3091981,1.15613216 21.6546613,1.01064067 C21.350683,0.943060305 21.0610008,1.20442844 21.008313,1.59467277 C20.9555581,1.98500318 21.1593961,2.35613561 21.4635758,2.42380206 Z" id="Path" fill="#000000"></path>
                    <path d="M17.5491889,2 C17.5600793,2 17.5710358,1.999532 17.5820582,1.998245 C17.8941184,1.96560197 18.2111289,1.94910495 18.5243111,1.94910495 C18.5249052,1.94910495 18.5254332,1.94910495 18.5259612,1.94910495 C18.8235669,1.94910495 19.1242087,1.96396396 19.4195702,1.99321399 C19.7243042,2.02398502 19.9822423,1.61191061 19.999139,1.07452907 C20.0159696,0.537147537 19.7840365,0.0771030771 19.4808866,0.0471510472 C19.1651963,0.0159120159 18.8438957,0 18.5260932,0 C18.5254332,0 18.5249052,0 18.5242451,0 C18.189678,0 17.8508867,0.0175500176 17.5174417,0.0525330525 C17.2143578,0.0842400842 16.9830847,0.545454545 17.0009714,1.08271908 C17.0180661,1.6005616 17.2603616,2 17.5491889,2 Z" id="Path" fill="#000000"></path>
                    <path d="M35.5902588,15.0153012 C35.1775807,15.0863433 34.9227808,15.3857728 35.0210858,15.6840028 C35.2185257,16.2827952 35.3691187,16.897049 35.4689914,17.5097033 C35.5150085,17.7921387 35.8468109,18 36.2308091,18 C36.2608723,18 36.29112,17.9987338 36.3216444,17.9961347 C36.7428988,17.9602804 37.0442691,17.6844427 36.9946555,17.3799483 C36.8879586,16.7245754 36.7267606,16.0674032 36.51558,15.4267586 C36.4170906,15.1283954 36.0030292,14.9440593 35.5902588,15.0153012 Z" id="Path" fill="#000000"></path>
                    <path d="M34.0404878,25.2423453 C33.914217,25.5353096 34.0931474,25.8592443 34.4402515,25.9658445 C34.515709,25.9890892 34.5928521,26 34.6688715,26 C34.9420434,26 35.198438,25.8576178 35.2972551,25.6283561 C35.5691426,24.9978356 35.799368,24.34712 35.981991,23.6942358 C36.0667602,23.3908351 35.8441608,23.0867567 35.4847748,23.0151929 C35.1258705,22.9436969 34.7652001,23.1313485 34.6803506,23.4349526 C34.5096884,24.0450747 34.2944742,24.6531637 34.0404878,25.2423453 Z" id="Path" fill="#000000"></path>
                    <path d="M25.3566498,3.08135664 C25.9571881,3.32824923 26.5492393,3.6120066 27.1166069,3.92464703 C27.2094,3.97571659 27.3103974,4 27.4102631,4 C27.614026,4 27.8122015,3.89874022 27.921191,3.71779839 C28.0836497,3.44817815 27.9868959,3.10367844 27.7049095,2.94830521 C27.0979351,2.61374884 26.4644383,2.31024006 25.8218884,2.04609881 C25.5227863,1.92285544 25.1764388,2.05529809 25.0479996,2.34122 C24.9195603,2.62707427 25.0577598,2.95838384 25.3566498,3.08135664 Z" id="Path" fill="#000000"></path>
                    <path d="M1.51405502,23.0153571 C1.1550702,23.0873661 0.933070657,23.391743 1.01816514,23.6952384 C1.20134684,24.3482011 1.43208843,24.9987228 1.70421432,25.6287673 C1.80310357,25.8578806 2.05918903,26 2.33179613,26 C2.40782777,26 2.48530304,25.9889478 2.56085347,25.965555 C2.90740695,25.8586265 3.08585674,25.5343827 2.95929774,25.2413292 C2.70513713,24.6526458 2.48939335,24.0448412 2.31824197,23.4346636 C2.23306729,23.1311003 1.87376166,22.9434159 1.51405502,23.0153571 Z" id="Path" fill="#000000"></path>
                    <path d="M13.559259,3 C13.6125746,3 13.6668303,2.99022428 13.7205488,2.96955806 C14.3146084,2.74154362 14.9260594,2.55589064 15.5378462,2.41782999 C15.8420944,2.34914268 16.0451504,1.97860849 15.9913647,1.59015215 C15.9375791,1.20161005 15.6477005,0.942467652 15.3432508,1.01098346 C14.6886236,1.15864832 14.0343321,1.3573356 13.3984391,1.60138566 C13.1025844,1.71500699 12.9349155,2.11332481 13.0238197,2.49106216 C13.0966082,2.80045521 13.3188015,3 13.559259,3 Z" id="Path" fill="#000000"></path>
                    <path d="M36.090047,20 C35.587503,20 35.1803124,20.243561 35.1803124,20.5440117 L35.1803124,20.5784329 C35.1803124,21.1844288 35.1216586,21.7950622 35.0060986,22.3934162 C34.9484278,22.6919074 35.3062487,22.9618558 35.8052975,22.9963423 C35.8409048,22.9988243 35.8759661,23 35.9110273,23 C36.3667137,23 36.7600328,22.7956282 36.8136622,22.5184298 C36.9373049,21.8787965 37,21.2260347 37,20.5784982 L37,20.544077 C36.9997816,20.243561 36.5924817,20 36.090047,20 Z" id="Path" fill="#000000"></path>
                    <path d="M21.3523445,36.0127393 C20.750044,36.1723807 20.1336255,36.2805766 19.5201897,36.334124 C19.2158248,36.3607476 18.9833091,36.7548968 19.00094,37.214504 C19.0178418,37.6577968 19.2612939,38 19.5516071,38 C19.5622785,38 19.5732149,37.9995996 19.5840188,37.9985988 C20.2398086,37.941348 20.8991112,37.8257456 21.5433017,37.6547941 C21.8436234,37.5751236 22.0443903,37.1430407 21.9915639,36.6894388 C21.9389363,36.2361372 21.6525337,35.9329686 21.3523445,36.0127393 Z" id="Path" fill="#000000"></path>
                    <path d="M17.4791633,36.3315567 C16.8657088,36.2788353 16.2493381,36.171488 15.6471506,36.012622 C15.3462557,35.9331389 15.0608032,36.2373397 15.0083122,36.6914858 C14.9558876,37.1457322 15.156904,37.5782284 15.4572024,37.6575111 C16.1014091,37.8275026 16.7605944,37.9423672 17.4165983,37.998697 C17.4272025,37.9995991 17.4378068,38 17.448411,38 C17.7389668,38 17.9824663,37.656609 17.9991017,37.2124859 C18.0163336,36.7520253 17.7835708,36.357717 17.4791633,36.3315567 Z" id="Path" fill="#000000"></path>
                    <path d="M13.5917268,35.7688735 C12.9840646,35.5694721 12.380449,35.3281073 11.7976146,35.0514963 C11.5079806,34.9141342 11.1717089,35.0610059 11.0468844,35.3798822 C10.9218542,35.698683 11.0555261,36.0685794 11.3452287,36.206017 C11.9690083,36.5019492 12.6149408,36.7601447 13.2652627,36.9735842 C13.3197191,36.9914715 13.3746556,37 13.4287691,37 C13.6748516,37 13.9020734,36.8235426 13.9760765,36.5508562 C14.0661284,36.2182437 13.8941175,35.8681214 13.5917268,35.7688735 Z" id="Path" fill="#000000"></path>
                    <path d="M0.683756217,17.9963357 C0.713666093,17.9988008 0.743205568,18 0.772559843,18 C1.15925843,18 1.49289707,17.7912039 1.53780819,17.5081899 C1.63531624,16.8954592 1.78384701,16.281063 1.97941871,15.6820566 C2.07674156,15.3836527 1.8195907,15.0849824 1.40483425,15.0148951 C0.990170396,14.9446079 0.57485834,15.1298196 0.477442893,15.4282901 C0.268351561,16.0691356 0.109356957,16.726437 0.00508909158,17.3818729 C-0.0434334318,17.6864061 0.260480541,17.961492 0.683756217,17.9963357 Z" id="Path" fill="#000000"></path>
                    <path d="M25.2013429,35.0517499 C24.618619,35.3285418 24.0151719,35.5701975 23.4077447,35.7700818 C23.1053349,35.8696093 22.9336469,36.2196142 23.0241571,36.5519002 C23.098267,36.8241681 23.3255375,37 23.5715414,37 C23.6258201,37 23.6809909,36.9914044 23.7357499,36.9734593 C24.3858589,36.7595507 25.0315762,36.5009301 25.6551291,36.2046851 C25.9448441,36.0670054 26.078242,35.6973212 25.9528727,35.3789841 C25.827572,35.0605717 25.4912637,34.9140703 25.2013429,35.0517499 Z" id="Path" fill="#000000"></path>
                    <path d="M1.19680013,22.9962998 C1.69519407,22.9610819 2.05192198,22.687796 1.99379419,22.3858335 C1.87732051,21.7806533 1.81777498,21.1629187 1.81679346,20.5498095 C1.81635723,20.245997 1.40968087,20 0.908451435,20 C0.90823332,20 0.907906146,20 0.907469915,20 C0.405804251,20.0003304 -0.000435880015,20.246922 3.50998166e-07,20.5509328 C0.00109092853,21.2060657 0.0647806564,21.8663524 0.189324611,22.5133581 C0.243308198,22.793648 0.635807052,23 1.09035977,23 C1.12547636,23 1.16113825,22.9988107 1.19680013,22.9962998 Z" id="Path" fill="#000000"></path>
                    <path d="M2.21027764,13 L8.78965399,13 C9.45703977,13 10,12.4407909 10,11.7534326 L10,10.3402008 C10,9.87090732 9.92602833,9.40957035 9.77999924,8.9690048 C9.68832086,8.69242793 9.39592085,8.54477475 9.12785901,8.63912633 C8.85925026,8.73354832 8.71588742,9.03420597 8.8075658,9.31085325 C8.91701926,9.64108378 8.97246382,9.98750898 8.97246382,10.3402712 L8.97246382,11.753503 C8.97246382,11.8573601 8.89049337,11.9417837 8.78965399,11.9417837 L2.21020927,11.9417837 C2.1093699,11.9417837 2.02739945,11.8573601 2.02739945,11.753503 L2.02739945,10.3402712 C2.02739945,9.43013054 2.40689734,8.56786977 3.05746515,7.96697695 C3.60787725,8.71981806 4.48261613,9.2076298 5.46605644,9.2076298 C7.12775267,9.2076298 8.479684,7.81523989 8.479684,6.1038149 C8.479684,4.39238991 7.12782103,3 5.46619317,3 C3.80456531,3 2.45256561,4.39238991 2.45256561,6.1038149 C2.45256561,6.4151047 2.49775533,6.71555111 2.58095636,6.99923955 C1.58746629,7.8013688 1,9.03350185 1,10.3403416 L1,11.7535734 C0.999931634,12.4407909 1.54289187,13 2.21027764,13 Z M5.46619317,4.05821633 C6.56134301,4.05821633 7.45235292,4.97582065 7.45235292,6.1038149 C7.45235292,7.23180916 6.56141137,8.14941347 5.46619317,8.14941347 C4.3711117,8.14941347 3.48010179,7.23180916 3.48010179,6.1038149 C3.48010179,4.97582065 4.37097497,4.05821633 5.46619317,4.05821633 Z" id="Shape" fill="#000000"></path>
                    <path d="M27,10.3402008 L27,11.7534326 C27,12.4407909 27.5428877,13 28.2103368,13 L34.7896632,13 C35.4570439,13 36,12.4407909 36,11.7534326 L36,10.3402008 C36,9.87090732 35.9260289,9.40957035 35.7800009,8.9690048 C35.6883232,8.69242793 35.3960622,8.54477475 35.1278656,8.63912633 C34.8592589,8.73354832 34.7158972,9.03420597 34.8075749,9.31085325 C34.9169591,9.64108378 34.9724716,9.98750898 34.9724716,10.3402712 L34.9724716,11.753503 C34.9724716,11.8573601 34.8905018,11.9417837 34.7896632,11.9417837 L28.2103368,11.9417837 C28.1094982,11.9417837 28.0275284,11.8573601 28.0275284,11.753503 L28.0275284,10.3402712 C28.0275284,9.43013054 28.4070234,8.56786977 29.0575863,7.96697695 C29.6079942,8.71981806 30.4827264,9.2076298 31.4661592,9.2076298 C33.1278429,9.2076298 34.4797639,7.81523989 34.4797639,6.1038149 C34.4797639,4.39238991 33.1278429,3 31.4661592,3 C29.8044756,3 28.4526229,4.39238991 28.4526229,6.1038149 C28.4526229,6.4151047 28.4978123,6.71555111 28.5810127,6.99923955 C27.5873935,7.80129839 27,9.03336103 27,10.3402008 Z M31.4660909,4.05814592 C32.5612324,4.05814592 33.4522355,4.97575024 33.4522355,6.10374449 C33.4522355,7.23173874 32.5613008,8.14934306 31.4660909,8.14934306 C30.3710177,8.14934306 29.4800146,7.23173874 29.4800146,6.10374449 C29.4800146,4.97575024 30.3710177,4.05814592 31.4660909,4.05814592 Z" id="Shape" fill="#000000"></path>
                    <path d="M35.1277973,30.6390469 C34.8591906,30.7334676 34.7158288,31.034121 34.8075065,31.3107644 C34.9168908,31.6409903 34.9724033,31.9873402 34.9724033,32.3401679 L34.9724033,33.7533797 C34.9724033,33.8572354 34.8904334,33.9416577 34.7895948,33.9416577 L28.2102684,33.9416577 C28.1094298,33.9416577 28.02746,33.8572354 28.02746,33.7533797 L28.02746,32.3401679 C28.02746,31.43004 28.406955,30.5677914 29.0575179,29.966907 C29.6079258,30.7197375 30.482658,31.2075424 31.4660909,31.2075424 C33.1277745,31.2075424 34.4796955,29.8151721 34.4796955,28.1037712 C34.4796955,26.3923703 33.1277745,25 31.4660909,25 C29.8044073,25 28.4525546,26.3923703 28.4525546,28.1037712 C28.4525546,28.4150566 28.4977439,28.7154988 28.5809444,28.9991832 C27.5874618,29.8013012 27,31.0334169 27,32.3402383 L27,33.7534501 C27,34.4407987 27.5428877,35 28.2103368,35 L34.7896632,35 C35.4570439,35 36,34.4408691 36,33.7534501 L36,32.3402383 C36,31.8709514 35.9260289,31.4096209 35.7800009,30.9690616 C35.6882549,30.6922774 35.3959254,30.5445558 35.1277973,30.6390469 Z M31.4660909,26.058131 C32.5612324,26.058131 33.4522355,26.9757224 33.4522355,28.1037008 C33.4522355,29.2316792 32.5613008,30.1492705 31.4660909,30.1492705 C30.3710177,30.1492705 29.4800146,29.2316792 29.4800146,28.1037008 C29.4800146,26.9757224 30.3710177,26.058131 31.4660909,26.058131 Z" id="Shape" fill="#000000"></path>
                    <path d="M9.12779727,30.6390469 C8.85919056,30.7334676 8.71582881,31.034121 8.80750649,31.3107644 C8.91695912,31.6409903 8.97240326,31.9873402 8.97240326,32.3401679 L8.97240326,33.7533797 C8.97240326,33.8572354 8.89043344,33.9416577 8.78959482,33.9416577 L2.21026845,33.9416577 C2.10942983,33.9416577 2.02746001,33.8572354 2.02746001,33.7533797 L2.02746001,32.3401679 C2.02746001,31.43004 2.40695502,30.5677914 3.05751789,29.966907 C3.6079258,30.7197375 4.48265804,31.2075424 5.46609088,31.2075424 C7.12777449,31.2075424 8.47969555,29.8151721 8.47969555,28.1037712 C8.47969555,26.3923703 7.12777449,25 5.46609088,25 C3.80440727,25 2.45255458,26.3923703 2.45255458,28.1037712 C2.45255458,28.4150566 2.49774395,28.7154988 2.58094435,28.9991832 C1.58746183,29.8013012 1,31.0334169 1,32.3402383 L1,33.7534501 C1,34.4407987 1.54295611,35 2.21033681,35 L8.78966319,35 C9.45704389,35 10,34.4408691 10,33.7534501 L10,32.3402383 C10,31.8709514 9.9260289,31.4096209 9.78000091,30.9690616 C9.6881865,30.6922774 9.39578871,30.5445558 9.12779727,30.6390469 Z M5.46615925,26.058131 C6.56130076,26.058131 7.45230391,26.9757224 7.45230391,28.1037008 C7.45230391,29.2316792 6.56136913,30.1492705 5.46615925,30.1492705 C4.37108609,30.1492705 3.48008295,29.2316792 3.48008295,28.1037008 C3.48008295,26.9757224 4.37094936,26.058131 5.46615925,26.058131 Z" id="Shape" fill="#000000"></path>
                    <path d="M22.9792757,13 L17.2199659,13 C14.7313184,13 12.6608305,14.854965 12.2676625,17.2791303 L12.0711865,17.2791303 C9.8263334,17.2791303 8,19.1928794 8,21.5451975 C8,23.2023807 8.90049083,24.6865141 10.3140663,25.3935379 C11.0088623,27.1084778 13.1766519,27.9310149 13.2726572,27.9666083 C13.3331557,27.9891385 13.3958148,28 13.4578978,28 C13.6059029,28 13.7507391,27.9379868 13.855099,27.8232074 C14.0031762,27.6602851 14.0409157,27.4227269 13.9508162,27.2205419 C13.7329497,26.7316284 13.6104403,26.2594475 13.5845124,25.8111912 L16.6097237,25.8111912 C18.2830104,25.8111912 19.7231619,24.7475733 20.3483127,23.2318829 L21.2100557,23.2318829 C21.1948591,23.8357959 21.034034,24.4741281 20.7295251,25.1360914 C20.6369768,25.3373224 20.6719795,25.5756145 20.8183282,25.7402981 C20.922832,25.8578663 21.0694688,25.9216408 21.2196346,25.9216408 C21.2799891,25.9216408 21.3407756,25.9113664 21.3996896,25.8901571 C21.5198943,25.8469314 24.2520481,24.8429782 25.090528,22.7577205 C26.8660139,21.9208726 28,20.1252055 28,18.1159781 C28,15.2950018 25.7477286,13 22.9792757,13 Z M24.4591113,21.8348614 C24.3125466,21.8955536 24.1978876,22.0163509 24.1496329,22.1698794 C23.8459162,23.136111 22.92137,23.8553906 22.1585852,24.304234 C22.2896652,23.7293094 22.3256762,23.1669341 22.2655378,22.6223189 C22.2345684,22.3420486 22.0040981,22.1288553 21.7273176,22.1288553 L17.220038,22.1288553 C16.7017678,22.1288553 16.2069768,22.0256713 15.7534544,21.8391914 C15.5526571,21.7566294 15.3232671,21.8016165 15.1701483,21.9576402 L15.162442,21.9654928 C14.8902709,22.2428275 14.9854119,22.712293 15.3422088,22.8597303 C15.9224899,23.0994168 16.5562834,23.2318095 17.2199659,23.2318095 L19.1360387,23.2318095 C18.606029,24.1181211 17.6719039,24.7080903 16.6095796,24.7080903 L13.0576716,24.7080903 C12.7832679,24.7080903 12.5503488,24.9174674 12.5200995,25.1953893 C12.479119,25.5721653 12.4916509,25.9587753 12.5572629,26.3530911 C12.0318625,25.9996526 11.4710274,25.4889428 11.2649004,24.8349789 C11.2149172,24.6763132 11.1045795,24.5431866 10.9537655,24.478825 C9.8168265,23.993214 9.08227431,22.8416034 9.08227431,21.5451975 C9.08227431,19.8011224 10.4229635,18.3821578 12.0710425,18.3821578 L12.2061557,18.3821578 C12.2353246,18.9586236 12.3588423,19.5099906 12.561008,20.0208472 C12.7053401,20.3856609 13.1664248,20.4843683 13.4393881,20.2062263 C13.4420529,20.2035109 13.4447177,20.2007955 13.4473105,20.1981535 C13.5997811,20.0427903 13.6447948,19.8100023 13.5643462,19.6061294 C13.3721916,19.1191974 13.2706406,18.5855904 13.2826683,18.0265911 C13.3299867,15.8361678 15.1254947,14.1031009 17.2756389,14.1031009 L22.9130155,14.1031009 C25.0862787,14.1031009 26.9242797,15.9146199 26.9174376,18.1290413 C26.9123961,19.7650887 25.9485259,21.2187659 24.4591113,21.8348614 Z" id="Shape" fill="#000000"></path>
                </g>
            </g>
        </g>
    </g>
</svg>