<?xml version="1.0" encoding="UTF-8"?>
<svg width="37px" height="35px" viewBox="0 0 37 35" version="1.1" xmlns="http://www.w3.org/2000/svg" xmlns:xlink="http://www.w3.org/1999/xlink">
    <!-- Generator: Sketch 53.2 (72643) - https://sketchapp.com -->
    <title>soldering-iron</title>
    <desc>Created with Sketch.</desc>
    <g id="Website" stroke="none" stroke-width="1" fill="none" fill-rule="evenodd">
        <g id="Landingpage" transform="translate(-64.000000, -469.000000)" fill-rule="nonzero">
            <g id="Group-6" transform="translate(13.000000, 469.000000)">
                <g id="soldering-iron" transform="translate(51.000000, 0.000000)">
                    <polygon id="Path" fill="#8BC89C" points="27 32.8420972 27 23 1 23 1 34 27 34"></polygon>
                    <polygon id="Path" fill="#97D9A9" points="26 31.9473723 26 23 0 23 0 33 26 33"></polygon>
                    <path d="M31.5940334,10.9999911 C30.5638009,10.9999641 29.6350152,10.3750833 29.2407239,9.41670028 C28.8464326,8.45831726 29.0642748,7.35514547 29.7926814,6.62154025 L32.9449877,3.44741386 C33.4422012,2.94660744 33.4422012,2.13480019 32.9449877,1.63399378 C32.4410153,1.14928679 31.6476081,1.14928679 31.1436357,1.63399378 L24.9006362,7.91980604 L24,7.01317615 L30.2429995,0.727043268 C31.2050101,-0.242347756 32.8832949,-0.242347756 33.8453055,0.727043268 C34.8398387,1.72867446 34.8398387,3.35241256 33.8453055,4.35404375 L30.6929992,7.52817014 C30.1957326,8.02898573 30.1957326,8.84085479 30.6929992,9.34167038 C31.1970041,9.82629554 31.9903462,9.82629554 32.4943512,9.34167038 L36.099523,5.71146371 L37,6.61825391 L33.3948282,10.2483804 C32.9184065,10.7311247 32.2699205,11.0017879 31.5940334,10.9999911 L31.5940334,10.9999911 Z" id="Path" fill="#B9B9B9"></path>
                    <polygon id="Path" fill="#FDB62F" points="4 27 8 27 8 31 4 31"></polygon>
                    <polygon id="Path" fill="#EC9E15" points="5 28 7 28 7 30 5 30"></polygon>
                    <polygon id="Path" fill="#FDB62F" points="16 27 20 27 20 31 16 31"></polygon>
                    <polygon id="Path" fill="#84BF94" points="5 25 7 25 7 27 5 27"></polygon>
                    <polygon id="Path" fill="#84BF94" points="5 30 7 30 7 32 5 32"></polygon>
                    <polygon id="Path" fill="#84BF94" points="6 30 8 30 8 32 6 32"></polygon>
                    <polygon id="Path" fill="#84BF94" points="2 28 5 28 5 30 2 30"></polygon>
                    <polygon id="Path" fill="#84BF94" points="2 27 5 27 5 29 2 29"></polygon>
                    <polygon id="Path" fill="#84BF94" points="8 28 15 28 15 30 8 30"></polygon>
                    <polygon id="Path" fill="#84BF94" points="7 27 10 27 10 29 7 29"></polygon>
                    <path d="M17.9183651,11.8897417 L17.9183651,11.8897417 C18.6002122,11.8946676 19.1517459,12.4462013 19.1566718,13.1280484 L19.1744354,15.5868982 C19.1792703,16.2561507 18.6406535,16.8026064 17.971401,16.8074413 C17.9655648,16.8074835 17.9597284,16.8074835 17.9538923,16.8074413 L17.9538923,16.8074413 C17.2720451,16.8025154 16.7205115,16.2509817 16.7155856,15.5691346 L16.697822,13.1102848 C16.6929871,12.4410324 17.2316039,11.8945766 17.9008563,11.8897417 C17.9066925,11.8896996 17.9125289,11.8896996 17.9183651,11.8897417 Z" id="Rectangle" fill="#F85542" transform="translate(17.936129, 14.348592) rotate(-45.000000) translate(-17.936129, -14.348592) "></path>
                    <path d="M25.8294827,9.64307917 L20.4724644,15 L18,12.5275806 L23.3570183,7.17065977 C23.5845973,6.94311341 23.9535456,6.94311341 24.1811246,7.17065977 L25.8294827,8.81927931 C26.0568391,9.04682078 26.0568391,9.41553769 25.8294827,9.64307917 Z" id="Path" fill="#DE4C3B"></path>
                    <polygon id="Path" fill="#BB4033" transform="translate(21.220029, 12.406954) rotate(-45.000000) translate(-21.220029, -12.406954) " points="20.5987324 11.48056 21.8280037 11.4894407 21.8413247 13.3333475 20.6120535 13.3244668"></polygon>
                    <polygon id="Path" fill="#BB4033" transform="translate(22.972424, 10.684086) rotate(-45.000000) translate(-22.972424, -10.684086) " points="22.3511275 9.75757732 23.5803987 9.76645801 23.5937214 11.6105954 22.3644502 11.6017147"></polygon>
                    <g id="Group" transform="translate(11.000000, 25.000000)" fill="#84BF94">
                        <polygon id="Path" points="0 1.76464948 1.27272727 1.76464948 1.27272727 2.91928866 0 2.91928866"></polygon>
                        <polygon id="Path" points="2.54545455 1.76464948 4.45454545 1.76464948 4.45454545 2.91928866 2.54545455 2.91928866"></polygon>
                        <polygon id="Path" points="4.45454545 5.22856701 5.72727273 5.22856701 5.72727273 6.96052577 4.45454545 6.96052577"></polygon>
                        <polygon id="Path" points="7 5.22856701 8.27272727 5.22856701 8.27272727 6.96052577 7 6.96052577"></polygon>
                        <polygon id="Path" points="8.27272727 1.76464948 14 1.76464948 14 2.91928866 8.27272727 2.91928866"></polygon>
                        <polygon id="Path" points="8.27272727 4.07392784 14 4.07392784 14 5.22856701 8.27272727 5.22856701"></polygon>
                        <polygon id="Path" points="4.45454545 0.0326907216 5.72727273 0.0326907216 5.72727273 1.76464948 4.45454545 1.76464948"></polygon>
                        <polygon id="Path" points="7 0.0326907216 8.27272727 0.0326907216 8.27272727 1.76464948 7 1.76464948"></polygon>
                    </g>
                    <polygon id="Path" fill="#CDCDCD" points="9.36358888 21.8181855 8 25 11.1818145 23.6364111 18 16.8182256 16.1817744 15"></polygon>
                    <path d="M10,23.8024161 L8.01752456,25.8298521 C7.7809587,26.0605955 7.40757369,26.0560987 7.17638639,25.819722 C6.94519909,25.5833453 6.94070312,25.201479 7.16625815,24.9594777 L9.08190858,23 L10,23.8024161 Z" id="Path" fill="#B1B1B1"></path>
                    <polygon id="Path" fill="#EC9E15" points="17 28 19 28 19 30 17 30"></polygon>
                    <path d="M19.5,26.1666667 L19.5,25 L18.2777778,25 L18.2777778,26.1666667 L17.0555556,26.1666667 L17.0555556,25 L15.8333333,25 L15.8333333,26.1666667 C15.495826,26.1666667 15.2222222,26.4278339 15.2222222,26.75 L14,26.75 L14,27.9166667 L15.2222222,27.9166667 L15.2222222,29.0833333 L9.11111111,29.0833333 L9.11111111,27.9166667 L10.3333333,27.9166667 L10.3333333,26.75 L9.11111111,26.75 C9.11111111,26.4278339 8.83750735,26.1666667 8.5,26.1666667 L6.05555556,26.1666667 L6.05555556,25 L4.83333333,25 L4.83333333,26.1666667 C4.49582599,26.1666667 4.22222222,26.4278339 4.22222222,26.75 L3,26.75 L3,27.9166667 L4.22222222,27.9166667 L4.22222222,29.0833333 L3,29.0833333 L3,30.25 L4.22222222,30.25 C4.22222222,30.5721661 4.49582599,30.8333333 4.83333333,30.8333333 L4.83333333,32 L6.05555556,32 L6.05555556,30.8333333 L7.27777778,30.8333333 L7.27777778,32 L8.5,32 L8.5,30.8333333 C8.83750735,30.8333333 9.11111111,30.5721661 9.11111111,30.25 L15.2222222,30.25 C15.2222222,30.5721661 15.495826,30.8333333 15.8333333,30.8333333 L15.8333333,32 L17.0555556,32 L17.0555556,30.8333333 L18.2777778,30.8333333 L18.2777778,32 L19.5,32 L19.5,30.8333333 C19.8375073,30.8333333 20.1111111,30.5721661 20.1111111,30.25 L25,30.25 L25,29.0833333 L20.1111111,29.0833333 L20.1111111,27.9166667 L25,27.9166667 L25,26.75 L20.1111111,26.75 C20.1111111,26.4278339 19.8375073,26.1666667 19.5,26.1666667 Z M7.88888889,29.6666667 L5.44444444,29.6666667 L5.44444444,27.3333333 L7.88888889,27.3333333 L7.88888889,29.6666667 Z M18.8888889,29.6666667 L16.4444444,29.6666667 L16.4444444,27.3333333 L18.8888889,27.3333333 L18.8888889,29.6666667 Z" id="Shape" fill="#000000"></path>
                    <polygon id="Path" fill="#000000" points="10 27 12 27 12 29 10 29"></polygon>
                    <path d="M0.619692876,35 L26.6467918,35 C26.9890387,35 27.2664847,34.7264224 27.2664847,34.3889474 L27.2664847,23.3899999 C27.2664847,23.0525248 26.9890387,22.7789472 26.6467918,22.7789472 L12.5455265,22.7789472 L17.9529662,17.4475129 C18.43722,17.9240201 19.2212811,17.9240201 19.705535,17.4475129 L20.5815482,16.5830262 C20.8151585,16.3541587 20.9459626,16.0424929 20.9446882,15.7177757 C20.9430166,15.6124325 20.9275777,15.5077415 20.8987535,15.4062916 L26.278307,10.1019728 C26.7610276,9.62401856 26.7610276,8.8511827 26.278307,8.37322848 L25.8399518,7.9410615 L31.3009949,2.55692393 C31.7914056,2.09503359 32.5634627,2.09503359 33.0538735,2.55692393 C33.5377073,3.03415586 33.5377073,3.80774887 33.0538735,4.2849808 L29.986394,7.30969136 C29.3485272,7.92479615 29.0951079,8.83046077 29.3228454,9.68106823 C29.5505829,10.5316757 30.2243372,11.1959773 31.0869923,11.4204643 C31.9496473,11.6449514 32.8680955,11.3949855 33.4918414,10.7659579 L37,7.30671248 L36.1237543,6.44260767 L32.6155957,9.90192942 C32.1251533,10.3637418 31.3531596,10.3637418 30.8627171,9.90192942 C30.3788317,9.42468875 30.3788317,8.65103685 30.8627171,8.17379618 L33.9301966,5.14908561 C34.8979674,4.19460426 34.8979674,2.64730047 33.9301966,1.69281912 C32.9940731,0.769060293 31.3609501,0.769060293 30.4248267,1.69281912 L24.9637836,7.07710945 L24.5255833,6.64509524 C24.0352926,6.18320446 23.2633052,6.18320446 22.7730145,6.64509524 L17.3925315,11.9505598 C16.9670009,11.8374039 16.5125548,11.9560948 16.1996228,12.2621202 L15.3232996,13.1261487 C14.8393626,13.6033981 14.8393626,14.3771089 15.3232996,14.8543583 L9.1883406,20.9037794 C9.13251309,20.9587051 9.08793552,21.0237186 9.05704318,21.095268 L8.32518594,22.7787181 L0.619692876,22.7787181 C0.277445975,22.7787181 4.36352461e-08,23.0522957 4.36352461e-08,23.3897707 L4.36352461e-08,34.3887182 C-6.16037506e-05,34.5508192 0.0652000592,34.7063017 0.181421691,34.8209458 C0.297643323,34.93559 0.455299847,35 0.619692876,35 L0.619692876,35 Z M23.6494151,7.50912367 L25.4026036,9.23725691 L23.6490278,10.9660776 L22.7724723,10.1019728 L21.8962266,10.9660012 L22.7727821,11.830106 L21.8963815,12.6942872 L21.0199035,11.830106 L20.1436578,12.6941345 L21.0200584,13.558392 L20.143348,14.4228788 L19.2670248,13.5585448 L18.3907792,12.6941345 L23.6494151,7.50912367 Z M17.076643,13.1261487 L19.705535,15.7189978 L18.8292118,16.5830262 L16.2000875,13.9902535 L17.076643,13.1261487 Z M10.1498715,21.6850866 L16.2000101,15.7183867 L17.076643,16.5830262 L11.0261946,22.5484276 L9.49245485,23.1964489 L10.1498715,21.6850866 Z M1.23938571,24.0010525 L7.79472888,24.0010525 L7.79039103,24.0111349 L6.9981912,24.7925184 C6.83709797,24.9459381 6.77249127,25.1731296 6.82920273,25.3867716 C6.88591419,25.6004136 7.0551182,25.7672584 7.27178105,25.8231792 C7.4884439,25.8790999 7.71884782,25.815394 7.87443687,25.6565469 L8.66640431,24.875698 L10.7361784,24.0010525 L26.027099,24.0010525 L26.027099,33.7778947 L1.23938571,33.7778947 L1.23938571,24.0010525 Z" id="Shape" fill="#000000"></path>
                    <polygon id="Path" fill="#000000" points="5 28 7 28 7 30 5 30"></polygon>
                    <polygon id="Path" fill="#000000" points="17 28 19 28 19 30 17 30"></polygon>
                </g>
            </g>
        </g>
    </g>
</svg>