<?xml version="1.0" encoding="UTF-8"?>
<svg width="42px" height="42px" viewBox="0 0 42 42" version="1.1" xmlns="http://www.w3.org/2000/svg" xmlns:xlink="http://www.w3.org/1999/xlink">
    <!-- Generator: Sketch 53.2 (72643) - https://sketchapp.com -->
    <title>whiteboard</title>
    <desc>Created with Sketch.</desc>
    <g id="Website" stroke="none" stroke-width="1" fill="none" fill-rule="evenodd">
        <g id="Landingpage" transform="translate(-223.000000, -521.000000)" fill-rule="nonzero">
            <g id="Group-6" transform="translate(13.000000, 469.000000)">
                <g id="whiteboard" transform="translate(210.000000, 52.000000)">
                    <path d="M40.7381626,28.4137457 L40.7381626,5.92927028 C40.7381626,4.72661478 39.7813887,3.74804993 38.6055142,3.74804993 L34.0676521,3.74804993 L34.0676521,3.4467606 C34.0676521,2.64904082 33.4330643,2 32.6534577,2 C31.8735018,2 31.2389139,2.64904082 31.2389139,3.4467606 L31.2389139,3.74804993 L13.2684768,3.74804993 L13.2684768,3.4467606 C13.2684768,2.64904082 12.6338889,2 11.853933,2 C11.073977,2 10.4393892,2.64904082 10.4393892,3.4467606 L10.4393892,3.74804993 L5.90152706,3.74804993 C4.72565258,3.74804993 3.76887864,4.72661478 3.76887864,5.92927028 L3.76887864,28.3948034 L3.44389698,28.3948034 C2.64751721,28.3948034 2,29.0574255 2,29.8715857 C2,30.6861033 2.64786665,31.348368 3.44389698,31.348368 L10.4393892,31.348368 L10.4393892,39.0961142 L9.70066744,39.0961142 C8.91791592,39.0961142 8.28123144,39.7472994 8.28123144,40.5478784 C8.28123144,41.3484574 8.91791592,41.9996426 9.70066744,41.9996426 L14.0068491,41.9996426 C14.7896006,41.9996426 15.4262851,41.3484574 15.4262851,40.5478784 C15.4262851,39.7472994 14.7896006,39.0961142 14.0068491,39.0961142 L13.2681273,39.0961142 L13.2681273,31.3487254 L31.238215,31.3487254 L31.238215,39.0964716 L30.4994933,39.0964716 C29.7167418,39.0964716 29.0800573,39.7476568 29.0800573,40.5482358 C29.0800573,41.3488148 29.7167418,42 30.4994933,42 L34.8056749,42 C35.5884265,42 36.2251109,41.3488148 36.2251109,40.5482358 C36.2251109,39.7476568 35.5884265,39.0964716 34.8056749,39.0964716 L34.0676521,39.0964716 L34.0676521,31.3487254 L40.556103,31.3487254 C41.3524828,31.3487254 42,30.6861033 42,29.8719431 C42,29.1210429 41.4475312,28.5063126 40.7381626,28.4137457 Z" id="Path" fill="#E6E7E8"></path>
                    <path d="M39,26 L39,3.71436029 C39,2.76773829 38.232606,2 37.2856314,2 L4.71436858,2 C3.767742,2 3,2.76739026 3,3.71436029 L3,26 L39,26 Z" id="Path" fill="#6DC9F7"></path>
                    <path d="M37.2856314,2 L4.71436858,2 C3.7691341,2 3,2.78387326 3,3.74722157 L3,5 C3,4.03665169 3.7691341,3.25277843 4.71436858,3.25277843 L37.2856314,3.25277843 C38.2308659,3.25277843 39,4.03665169 39,5 L39,3.74722157 C39,2.78351856 38.2308659,2 37.2856314,2 Z" id="Path" fill="#FFFFFF"></path>
                    <path d="M35.3141067,4 L4.68554526,4 C4.3069294,4 4,4.30776063 4,4.68740186 L4,26 L36,26 L36,4.6877508 C36,4.30810957 35.6930706,4 35.3141067,4 Z" id="Path" fill="#FFFFFF"></path>
                    <path d="M35.3141067,4 L4.68554526,4 C4.3069294,4 4,4.30776063 4,4.68740186 L4,26 L36,26 L36,4.6877508 C36,4.30810957 35.6930706,4 35.3141067,4 Z" id="Path" fill="#FFFFFF"></path>
                    <polygon id="Path" fill="#0089EF" points="7 24 13 24 13 27 7 27"></polygon>
                    <g id="Group" transform="translate(7.000000, 0.000000)" fill="#FA759E">
                        <polygon id="Path" points="2.53453165 28.3767545 4.56931646 28.3767545 4.56931646 36.8975455 2.53453165 36.8975455"></polygon>
                        <path d="M3.55210127,0.0971454545 C2.99032911,0.0971454545 2.53453165,0.552736364 2.53453165,1.11504545 L2.53453165,1.83158182 L4.56931646,1.83158182 L4.56931646,1.11504545 C4.56931646,0.552736364 4.11387342,0.0971454545 3.55210127,0.0971454545 Z" id="Path"></path>
                        <polygon id="Path" points="23.6309367 28.3767545 25.6657215 28.3767545 25.6657215 36.8975455 23.6309367 36.8975455"></polygon>
                        <path d="M24.6481519,0.0971454545 C24.0863797,0.0971454545 23.6305823,0.552736364 23.6305823,1.11504545 L23.6305823,1.83158182 L25.6653673,1.83158182 L25.6653671,1.11504545 C25.6657215,0.552736364 25.2099241,0.0971454545 24.6481519,0.0971454545 Z" id="Path"></path>
                        <path d="M5.73574684,36.8971909 L1.36810127,36.8971909 C0.803493671,36.8971909 0.34556962,37.3552636 0.34556962,37.9200545 C0.34556962,38.4848455 0.803493671,38.9429182 1.36810127,38.9429182 L5.73574684,38.9429182 C6.30035443,38.9429182 6.75827848,38.4848455 6.75827848,37.9200545 C6.75827848,37.3552636 6.30070886,36.8971909 5.73574684,36.8971909 Z" id="Path"></path>
                        <path d="M26.8321519,36.8971909 L22.4645063,36.8971909 C21.8998987,36.8971909 21.4419747,37.3552636 21.4419747,37.9200545 C21.4419747,38.4848455 21.8998987,38.9429182 22.4645063,38.9429182 L26.8321519,38.9429182 C27.3967595,38.9429182 27.8546835,38.4848455 27.8546835,37.9200545 C27.8546835,37.3552636 27.3967595,36.8971909 26.8321519,36.8971909 L26.8321519,36.8971909 Z" id="Path"></path>
                    </g>
                    <path d="M38.9457066,26 L1.05429344,26 C0.472023762,26 0,26.4477157 0,27 C0,27.5522843 0.472023762,28 1.05429344,28 L38.9457066,28 C39.5279762,28 40,27.5522843 40,27 C40,26.4477157 39.528333,26 38.9457066,26 Z" id="Path" fill="#6DC9F7"></path>
                    <path d="M38.5,11 C38.224,11 38,11.1612865 38,11.3600144 L38,13.6399856 C38,13.8387135 38.224,14 38.5,14 C38.776,14 39,13.8387135 39,13.6399856 L39,11.3600144 C39,11.1612865 38.776,11 38.5,11 Z" id="Path" fill="#3A2C60"></path>
                    <path d="M10.6264545,18 C10.8205583,18 10.9601878,17.940703 11.0456561,17.8221089 C11.1308114,17.7038424 11.2338116,17.475172 11.3543439,17.1364253 L11.6633446,16.2685918 L14.2928255,16.2685918 L14.6015132,17.1180793 C14.6425254,17.2225862 14.6919906,17.3434736 14.7492825,17.4804137 C14.8065745,17.6173539 14.8601096,17.7189123 14.9102009,17.7850892 C14.9602922,17.851266 15.0219671,17.9036832 15.0955387,17.9420134 C15.1687973,17.9803435 15.2573963,17.9996724 15.3600835,17.9996724 C15.5366554,17.9996724 15.6872424,17.9341508 15.8124706,17.8034352 C15.9373859,17.6727196 16,17.5288997 16,17.3716479 C16,17.2209482 15.9339421,16.9791735 15.8015132,16.646979 L14.1118706,12.2793092 C14.0326637,12.0607947 13.9669189,11.8861796 13.9155753,11.7551364 C13.8639186,11.6244208 13.8009914,11.5018954 13.7258544,11.3878879 C13.6507175,11.2742079 13.5521002,11.1811672 13.4303157,11.1084382 C13.3082181,11.0360369 13.1560657,11 12.9738586,11 C12.7944691,11 12.643569,11.0360369 12.5214714,11.1084382 C12.3993739,11.1808396 12.3007566,11.2755183 12.2259327,11.3924744 C12.1507957,11.5094304 12.0803548,11.6565264 12.0139838,11.8334347 C11.9479259,12.0103431 11.8912601,12.1620256 11.8442995,12.2881546 L10.1897208,16.6836711 C10.1220976,16.859269 10.0732585,16.9962091 10.044143,17.0944915 C10.0147143,17.1931015 10,17.2884354 10,17.3808209 C10,17.5410212 10.0632403,17.6838583 10.1897208,17.810315 C10.3162014,17.9367717 10.4617793,18 10.6264545,18 L10.6264545,18 Z M12.9647795,12.4454065 L13.9399948,15.2385922 L12.0074093,15.2385922 L12.9647795,12.4454065 Z" id="Shape" fill="#3A2C60"></path>
                    <path d="M17.8871024,18 L20.0936735,18 C20.4746592,18 20.8077595,17.9817029 21.0936735,17.9451087 C21.379238,17.9085144 21.6322964,17.8458299 21.8521496,17.7563774 C22.2034254,17.606951 22.4826984,17.3751876 22.689619,17.0617648 C22.8965397,16.7483421 23,16.3956145 23,16.0039208 C23,15.1571712 22.5253408,14.5872501 21.5763719,14.2944963 C22.298497,13.9698921 22.6599091,13.4572341 22.6599091,12.7568614 C22.6599091,12.5532214 22.6253058,12.3597464 22.5564488,12.1767753 C22.4875918,11.9938042 22.3872772,11.8267583 22.2562041,11.6756377 C22.1247815,11.5245172 21.9737854,11.3994869 21.8028661,11.3008858 C21.6025865,11.1829711 21.3760923,11.1033448 21.1230339,11.0620069 C20.8699755,11.020669 20.5714785,11 20.2264942,11 L17.8867529,11 C17.5746243,11 17.3488291,11.0677671 17.2093674,11.2029624 C17.0699056,11.3381577 17,11.5604337 17,11.8691127 L17,17.1315649 C17,17.4341449 17.068158,17.6543879 17.204474,17.7929716 C17.3407899,17.9305387 17.5683328,18 17.8871024,18 L17.8871024,18 Z M18.4631248,12.0642819 L19.6501223,12.0642819 C20.1821042,12.0642819 20.57777,12.1222228 20.8371199,12.2384433 C21.0964698,12.3546638 21.2261447,12.5894767 21.2261447,12.942882 C21.2261447,13.1082337 21.1852499,13.2579989 21.1031108,13.3918389 C20.9979028,13.5795537 20.8462076,13.7069558 20.6473261,13.7737064 C20.4484446,13.8404569 20.1670744,13.8740016 19.8025166,13.8740016 L18.4627753,13.8740016 L18.4627753,12.0642819 L18.4631248,12.0642819 Z M18.4631248,14.8911854 L19.9853198,14.8911854 C20.4942328,14.8911854 20.8769661,14.9708118 21.1331702,15.1300644 C21.3893743,15.289317 21.5173016,15.5454765 21.5173016,15.8988818 C21.5173016,16.5897672 21.0230689,16.9353793 20.0346033,16.9353793 L18.4631248,16.9353793 L18.4631248,14.8911854 Z" id="Shape" fill="#3A2C60"></path>
                    <path d="M24.3765472,16.3030799 C24.5019544,16.5661861 24.6534202,16.8040629 24.8309446,17.0163827 C25.0299674,17.2503277 25.2478827,17.4390564 25.4850163,17.5822412 C25.7221498,17.725426 25.9863192,17.8309305 26.276873,17.8984273 C26.5674267,17.965924 26.890228,18 27.2456026,18 C27.7140065,18 28.1237785,17.9246396 28.4758958,17.7735911 C28.8276873,17.6228702 29.1169381,17.4266055 29.3436482,17.1847969 C29.5700326,16.9433159 29.7361564,16.6969201 29.8416938,16.4459371 C29.9472313,16.1949541 30,15.9619921 30,15.7463958 C30,15.5769987 29.9420195,15.4354522 29.8257329,15.3214286 C29.7094463,15.2077326 29.5700326,15.1507208 29.4078176,15.1507208 C29.2179153,15.1507208 29.080456,15.2070773 28.9944625,15.3194626 C28.9087948,15.431848 28.8368078,15.5773263 28.7788274,15.7558978 C28.6410423,16.1346658 28.4368078,16.4216907 28.1661238,16.6169725 C27.895114,16.8125819 27.5638436,16.9102228 27.1723127,16.9102228 C26.8110749,16.9102228 26.4957655,16.8240498 26.2267101,16.6517038 C25.9576547,16.4793578 25.7495114,16.2185452 25.6022801,15.8689384 C25.4553746,15.5196592 25.3820847,15.0815858 25.3820847,14.5553735 C25.3820847,13.7673657 25.5478827,13.1592398 25.8801303,12.7313237 C26.2123779,12.3034076 26.6583062,12.0897772 27.218241,12.0897772 C27.5700326,12.0897772 27.8661238,12.1726737 28.1065147,12.3391219 C28.3465798,12.5052425 28.5553746,12.7562254 28.732899,13.0917431 C28.8400651,13.2948886 28.9371336,13.4380734 29.02443,13.5212975 C29.1117264,13.604194 29.2423453,13.645806 29.4169381,13.645806 C29.5729642,13.645806 29.7061889,13.5858453 29.8162866,13.465924 C29.9263844,13.345675 29.9814332,13.2070773 29.9814332,13.0501311 C29.9814332,12.7637615 29.8680782,12.4596986 29.6416938,12.13827 C29.4153094,11.8165138 29.0892508,11.5465269 28.6638436,11.327654 C28.2384365,11.1091088 27.7534202,11 27.2087948,11 C26.7618893,11 26.3410423,11.0802752 25.9465798,11.2401704 C25.5517915,11.4003932 25.2074919,11.6333552 24.9136808,11.9397117 C24.6198697,12.2460682 24.3941368,12.6146789 24.2364821,13.0455439 C24.0788274,13.4764089 24,13.9646134 24,14.5091743 C24,14.844692 24.0312704,15.1618611 24.0941368,15.4603539 C24.1570033,15.7591743 24.2508143,16.0399738 24.3765472,16.3030799 L24.3765472,16.3030799 Z" id="Path" fill="#3A2C60"></path>
                    <path d="M38.7345875,26.4907453 L38.7345875,15.341012 C38.7345875,15.1431004 38.5775502,14.9824766 38.3840577,14.9824766 C38.1905653,14.9824766 38.033528,15.1431004 38.033528,15.341012 L38.033528,26.4781966 L36.7218457,26.4781966 L36.7218457,4.93774929 C36.7218457,4.35046834 36.2545896,3.87289921 35.6807724,3.87289921 L4.82819659,3.87289921 C4.25402888,3.87289921 3.78712327,4.35082687 3.78712327,4.93774929 L3.78712327,26.4781966 L2.475441,26.4781966 L2.475441,3.8779187 C2.475441,3.1016896 3.09272387,2.47030879 3.85162075,2.47030879 L36.6573483,2.47030879 C37.4162451,2.47030879 38.033528,3.1016896 38.033528,3.8779187 L38.033528,9.94039349 C38.033528,10.138305 38.1905653,10.2989289 38.3840577,10.2989289 C38.5775502,10.2989289 38.7345875,10.138305 38.7345875,9.94039349 L38.7345875,3.8779187 C38.7345875,2.70622507 37.8028794,1.75323802 36.6573483,1.75323802 L32.0433253,1.75323802 L32.0433253,1.38753193 C32.0433253,0.622417425 31.4348057,6.3688678e-16 30.6864247,6.3688678e-16 C29.9380437,6.3688678e-16 29.3295241,0.622417425 29.3295241,1.38753193 L29.3295241,1.75359656 L11.1790944,1.75359656 L11.1790944,1.38753193 C11.1790944,0.622417425 10.5705747,0 9.82219375,0 C9.07381276,0 8.46529314,0.622417425 8.46529314,1.38753193 L8.46529314,1.75359656 L3.85162075,1.75359656 C2.70608957,1.75359656 1.77438153,2.70658361 1.77438153,3.87827724 L1.77438153,26.4785551 L1.38669564,26.4785551 C0.621839753,26.4781966 0,27.1142383 0,27.896204 C0,28.6781697 0.621839753,29.31457 1.38669564,29.31457 L8.4659942,29.31457 L8.4659942,37.2141801 L7.66258004,37.2141801 C6.91139482,37.2141801 6.30077202,37.8391072 6.30077202,38.60709 C6.30077202,39.3754314 6.91174535,40 7.66258004,40 L11.982158,40 C12.7329927,40 13.343966,39.3750728 13.343966,38.60709 C13.343966,37.8391072 12.7329927,37.2141801 11.982158,37.2141801 L11.1790944,37.2141801 L11.1790944,29.31457 L29.3295241,29.31457 L29.3295241,37.2141801 L28.5264605,37.2141801 C27.7756258,37.2141801 27.1646525,37.8391072 27.1646525,38.60709 C27.1646525,39.3754314 27.7756258,40 28.5264605,40 L32.8460384,40 C33.5972237,40 34.2078465,39.3750728 34.2078465,38.60709 C34.2078465,37.8391072 33.5968731,37.2141801 32.8460384,37.2141801 L32.0429748,37.2141801 L32.0429748,29.31457 L38.6136547,29.31457 C39.3781601,29.31457 39.9999998,28.6785282 39.9999998,27.896204 C40.0003504,27.1565455 39.441606,26.5545646 38.7345875,26.4907453 Z M30.0305836,1.38753193 C30.0305836,1.01788195 30.324678,0.717070766 30.6864247,0.717070766 C31.0481714,0.717070766 31.3422659,1.01788195 31.3422659,1.38753193 L31.3422659,1.75359656 L30.0309341,1.75359656 L30.0309341,1.38753193 L30.0305836,1.38753193 Z M9.16670314,1.38753193 C9.16670314,1.01788195 9.46079759,0.717070766 9.82254428,0.717070766 C10.184291,0.717070766 10.4783854,1.01788195 10.4783854,1.38753193 L10.4783854,1.75359656 L9.16705367,1.75359656 L9.16705367,1.38753193 L9.16670314,1.38753193 Z M4.48818275,4.93774929 C4.48818275,4.74593286 4.64066318,4.58996997 4.82819659,4.58996997 L35.6804219,4.58996997 C35.8679553,4.58996997 36.0204357,4.74593286 36.0204357,4.93774929 L36.0204357,26.4781966 L13.4775178,26.4781966 L13.4775178,23.8730785 C13.4775178,23.6751669 13.3204805,23.5145431 13.1269881,23.5145431 L6.51810045,23.5145431 C6.32460804,23.5145431 6.16757072,23.6751669 6.16757072,23.8730785 L6.16757072,26.4781966 L4.48818275,26.4781966 L4.48818275,4.93774929 Z M12.7764584,26.4781966 L6.86863019,26.4781966 L6.86863019,24.2316139 L12.7764584,24.2316139 L12.7764584,26.4781966 Z M12.6429065,38.6067315 C12.6429065,38.9796083 12.3463584,39.2825707 11.982158,39.2825707 L7.66258004,39.2825707 C7.29802912,39.2825707 7.00183149,38.9792498 7.00183149,38.6067315 C7.00183149,38.2342132 7.29837965,37.9308923 7.66258004,37.9308923 L8.81617341,37.9308923 L10.8285646,37.9308923 L11.982158,37.9308923 C12.3467089,37.9308923 12.6429065,38.2342132 12.6429065,38.6067315 L12.6429065,38.6067315 Z M10.4783854,37.2138215 L9.16705367,37.2138215 L9.16705367,29.31457 L10.4783854,29.31457 L10.4783854,37.2138215 Z M33.5071375,38.6067315 C33.5071375,38.9796083 33.2105894,39.2825707 32.846389,39.2825707 L28.5264605,39.2825707 C28.1622601,39.2825707 27.8657119,38.9792498 27.8657119,38.6067315 C27.8657119,38.2342132 28.1622601,37.9308923 28.5264605,37.9308923 L29.6800539,37.9308923 L31.6924451,37.9308923 L32.8460384,37.9308923 C33.2105894,37.9308923 33.5071375,38.2342132 33.5071375,38.6067315 L33.5071375,38.6067315 Z M31.3422659,37.2138215 L30.0309341,37.2138215 L30.0309341,29.31457 L31.3422659,29.31457 L31.3422659,37.2138215 Z M38.6140053,28.5974992 L31.6927956,28.5974992 L29.6804044,28.5974992 L10.8289152,28.5974992 L8.81652394,28.5974992 L1.38669564,28.5974992 C1.00847405,28.5974992 0.701059473,28.2827051 0.701059473,27.896204 C0.701059473,27.5097029 1.00847405,27.1952673 1.38669564,27.1952673 L6.51810045,27.1952673 L13.1269881,27.1952673 L38.6136547,27.1952673 C38.9915258,27.1952673 39.2989404,27.5097029 39.2989404,27.896204 C39.2989404,28.2827051 38.9918763,28.5974992 38.6140053,28.5974992 Z" id="Shape" fill="#3A2C60"></path>
                </g>
            </g>
        </g>
    </g>
</svg>