<?xml version="1.0" encoding="UTF-8"?>
<svg width="42px" height="35px" viewBox="0 0 42 35" version="1.1" xmlns="http://www.w3.org/2000/svg" xmlns:xlink="http://www.w3.org/1999/xlink">
    <!-- Generator: Sketch 53.2 (72643) - https://sketchapp.com -->
    <title>GroupWhite</title>
    <desc>Created with Sketch.</desc>
    <g id="GroupWhite" stroke="none" stroke-width="1" fill="none" fill-rule="evenodd">
        <g id="multiple-users-silhouette" fill="#FFFFFF" fill-rule="nonzero">
            <path d="M25.3451891,6.00729613 C27.2871584,7.21301143 28.6488955,9.25333294 28.8968177,11.6216837 C29.6888057,11.9881215 30.5678023,12.1988492 31.4997379,12.1988492 C34.9019843,12.1988492 37.6595283,9.46821289 37.6595283,6.09968413 C37.6595283,2.73063634 34.9019843,0 31.4997379,0 C28.1299888,0.00103806742 25.3965556,2.68288523 25.3451891,6.00729613 Z M21.3097716,18.4962852 C24.712018,18.4962852 27.469562,15.7651298 27.469562,12.3966011 C27.469562,9.02807231 24.7114938,6.29743597 21.3097716,6.29743597 C17.9080494,6.29743597 15.148933,9.02859134 15.148933,12.3971201 C15.148933,15.7656489 17.9080494,18.4962852 21.3097716,18.4962852 Z M23.9226507,18.9120312 L18.6958443,18.9120312 C14.3469861,18.9120312 10.8089854,22.4160278 10.8089854,26.7224504 L10.8089854,33.0520665 L10.825234,33.1512019 L11.2655185,33.2877078 C15.4157244,34.5717972 19.0213403,35 21.9890678,35 C27.7856234,35 31.1454137,33.3634867 31.3524523,33.2591609 L31.7639086,33.0531046 L31.8079371,33.0531046 L31.8079371,26.7224504 C31.8095095,22.4160278 28.2715088,18.9120312 23.9226507,18.9120312 Z M34.1136653,12.6151143 L28.9272183,12.6151143 C28.8711344,14.6699687 27.9853238,16.5203239 26.5842756,17.8511263 C30.449869,18.9893672 33.278173,22.5390387 33.278173,26.731793 L33.278173,28.6823217 C38.3991015,28.4965076 41.3500562,27.0593033 41.5445152,26.962763 L41.9559715,26.7561876 L42,26.7561876 L42,20.4244954 C42,16.1185918 38.4619993,12.6151143 34.1136653,12.6151143 Z M10.5013104,12.1998873 C11.7063272,12.1998873 12.8274803,11.8516157 13.777237,11.2583602 C14.0791464,9.30835051 15.134781,7.60436285 16.6427555,6.44380348 C16.6490453,6.32961606 16.6600524,6.21646672 16.6600524,6.10124123 C16.6600524,2.73219344 13.9019843,0.00155710112 10.5013104,0.00155710112 C7.09853987,0.00155710112 4.34152003,2.73219344 4.34152003,6.10124123 C4.34152003,9.46873193 7.09853987,12.1998873 10.5013104,12.1998873 Z M16.0331711,17.8511263 C14.6389367,16.5270713 13.7562711,14.6865778 13.6918008,12.6441801 C13.4994384,12.6301662 13.3091726,12.6151143 13.1131411,12.6151143 L7.88685885,12.6151143 C3.53800075,12.6151143 0,16.1185918 0,20.4244954 L0,26.7551496 L0.016248596,26.8527279 L0.456533134,26.9902718 C3.78592288,28.0195157 6.75731936,28.4939125 9.33822538,28.6433942 L9.33822538,26.731793 C9.33927368,22.5390387 12.1665294,18.9904053 16.0331711,17.8511263 Z" id="Shape"></path>
        </g>
    </g>
</svg>