<?xml version="1.0" encoding="UTF-8"?>
<svg width="43px" height="34px" viewBox="0 0 43 34" version="1.1" xmlns="http://www.w3.org/2000/svg" xmlns:xlink="http://www.w3.org/1999/xlink">
    <!-- Generator: Sketch 53.2 (72643) - https://sketchapp.com -->
    <title>Space</title>
    <desc>Created with Sketch.</desc>
    <g id="Space" stroke="none" stroke-width="1" fill="none" fill-rule="evenodd">
        <g id="home" fill="#FFFFFF" fill-rule="nonzero">
            <path d="M21.513868,6.92371196 L36.7936667,19.4274891 C36.8107922,19.4619511 36.8204719,19.5149837 36.8204719,19.5852011 L36.8204719,32.2465978 C36.8204719,32.7038424 36.6515433,33.1002935 36.3148961,33.4335489 C35.9788074,33.7680978 35.5797078,33.9356957 35.1191797,33.9356957 L24.9156147,33.9356957 L24.9156147,23.805913 L18.1122143,23.805913 L18.1122143,33.9353261 L7.90855628,33.9353261 C7.44793506,33.9353261 7.04939394,33.7673587 6.71283983,33.4335489 C6.37619264,33.0999239 6.20782251,32.70375 6.20782251,32.2465978 L6.20782251,19.5852011 C6.20782251,19.5670924 6.21247619,19.5415924 6.22122511,19.5064837 C6.23016017,19.4710978 6.23462771,19.4451359 6.23462771,19.4274891 L21.513868,6.92371196 Z M42.6390606,16.5785109 C42.8158074,16.7192228 42.9132554,16.9082554 42.9314048,17.1450543 C42.9498333,17.3825924 42.8877532,17.5894565 42.7460952,17.7655543 L41.0984134,19.7173207 C40.9557316,19.875125 40.770329,19.9725054 40.5403442,20.0072446 L40.460487,20.0072446 C40.2301299,20.0072446 40.0444481,19.9459891 39.9024177,19.8232935 L21.513868,4.60265761 L3.12550433,19.8233859 C2.91283117,19.9640054 2.70015801,20.0257228 2.48748485,20.0079837 C2.25712771,19.9725978 2.07135281,19.8758641 1.92941558,19.7176902 L0.281919913,17.7656467 C0.139982684,17.5899185 0.0780887446,17.3826848 0.0960519481,17.1454239 C0.114108225,16.9079783 0.211183983,16.7189457 0.38830303,16.5785109 L19.4949156,0.777657609 C20.0617338,0.320413043 20.7349351,0.0918369565 21.5144264,0.0918369565 C22.2940108,0.0918369565 22.9673052,0.320413043 23.5335649,0.777657609 L30.0172576,6.15898913 L30.0172576,1.01528804 C30.0172576,0.769342391 30.0968355,0.566913043 30.2560844,0.408554348 C30.4157056,0.250380435 30.6194437,0.171293478 30.8675779,0.171293478 L35.9695,0.171293478 C36.2179134,0.171293478 36.4217446,0.250380435 36.580342,0.408554348 C36.7402424,0.566913043 36.8199134,0.76925 36.8199134,1.01528804 L36.8199134,11.7776739 L42.6390606,16.5785109 Z" id="Combined-Shape"></path>
        </g>
    </g>
</svg>