<?xml version="1.0" encoding="UTF-8"?>
<svg width="40px" height="40px" viewBox="0 0 40 40" version="1.1" xmlns="http://www.w3.org/2000/svg" xmlns:xlink="http://www.w3.org/1999/xlink">
    <!-- Generator: Sketch 53.2 (72643) - https://sketchapp.com -->
    <title>Wiki</title>
    <desc>Created with Sketch.</desc>
    <g id="Wiki" stroke="none" stroke-width="1" fill="none" fill-rule="evenodd">
        <g id="wiki" transform="translate(0.000000, 8.000000)" fill="#FFFFFF" fill-rule="nonzero">
            <path d="M39.7145098,0.0426143791 L32.0104575,0.0426143791 L31.7490196,0.0426143791 L31.7490196,1.4032244 L32.5457952,1.4032244 C33.1684532,1.4032244 33.7299346,1.72278867 34.0479303,2.25812636 C34.3658388,2.79346405 34.3778649,3.43938998 34.08,3.98614379 L25.5135512,19.7100654 L21.6121133,10.4092375 L25.2869717,3.66570806 C26.0474946,2.27015251 27.5071895,1.4032244 29.0964706,1.4032244 L29.5315033,1.4032244 L29.5315033,1.14178649 L29.5315033,0.304052288 L29.5315033,0.0426143791 L29.2700654,0.0426143791 L21.5660131,0.0426143791 L21.3045752,0.0426143791 L21.3045752,1.4032244 L22.1013508,1.4032244 C22.7240087,1.4032244 23.2854902,1.72278867 23.6034858,2.25812636 C23.9213943,2.79346405 23.9334205,3.43938998 23.6355556,3.98614379 L20.9700218,8.87877996 L18.5945098,3.21568627 C18.4223094,2.80522876 18.4649237,2.35712418 18.7113725,1.98649237 C18.9578214,1.61586057 19.3545098,1.4032244 19.7996514,1.4032244 L20.6700654,1.4032244 L20.6700654,1.14178649 L20.6700654,0.304052288 L20.6700654,0.0426143791 L20.4086275,0.0426143791 L11.1947712,0.0426143791 L10.9333333,0.0426143791 L10.9333333,1.4032244 L11.3214815,1.4032244 C13.139085,1.4032244 14.767756,2.48627451 15.4709368,4.16235294 L18.980915,12.5299346 L15.0691939,19.7100654 L8.15015251,3.21568627 C7.97795207,2.80522876 8.02056645,2.35712418 8.26701525,1.98649237 C8.51346405,1.61586057 8.91015251,1.4032244 9.35529412,1.4032244 L10.5524183,1.4032244 L10.5524183,1.14178649 L10.5524183,0.304052288 L10.5524183,0.0426143791 L10.2909804,0.0426143791 L0.261437908,0.0426143791 L-2.84217094e-14,0.0424400871 L-2.84217094e-14,1.4032244 L0.877037037,1.4032244 C2.69464052,1.4032244 4.32339869,2.48627451 5.02649237,4.16235294 L13.0026144,23.1768192 C13.1421351,23.5093682 13.4656209,23.7242702 13.826841,23.7242702 C14.1583442,23.7242702 14.4510675,23.5501525 14.6099346,23.2585621 L15.6503704,21.3491939 L19.622658,14.0597821 L23.4469717,23.176732 C23.5864924,23.509281 23.9099782,23.724183 24.2711983,23.724183 C24.6027015,23.724183 24.8954248,23.5500654 25.0542919,23.2584749 L26.0947277,21.3491068 L35.731329,3.66553377 C36.4918519,2.26997821 37.9515468,1.40305011 39.5408279,1.40305011 L39.9758606,1.40305011 L39.9758606,1.1416122 L39.9758606,0.303877996 L39.9758606,0.0424400871 L39.7145098,0.0424400871 L39.7145098,0.0426143791 L39.7145098,0.0426143791 Z" id="Path"></path>
        </g>
    </g>
</svg>