<?xml version="1.0" encoding="UTF-8"?>
<svg width="37px" height="39px" viewBox="0 0 37 39" version="1.1" xmlns="http://www.w3.org/2000/svg" xmlns:xlink="http://www.w3.org/1999/xlink">
    <!-- Generator: Sketch 53.2 (72643) - https://sketchapp.com -->
    <title>3d-printer</title>
    <desc>Created with Sketch.</desc>
    <g id="Website" stroke="none" stroke-width="1" fill="none" fill-rule="evenodd">
        <g id="Landingpage" transform="translate(-276.000000, -469.000000)" fill-rule="nonzero">
            <g id="Group-6" transform="translate(13.000000, 469.000000)">
                <g id="3d-printer" transform="translate(263.000000, 0.000000)">
                    <path d="M35.3273018,2 L3.67235957,2 C2.75015724,2 2,2.75408071 2,3.68110635 L2,37.3188937 C2,38.2459193 2.75049591,39 3.67235957,39 L35.3276404,39 C36.2498428,39 37,38.2459193 37,37.3188937 L37,3.68110635 C37,2.75442116 36.2495041,2 35.3273018,2 Z M24.4346122,26.7692534 L20.5500508,26.7692534 L20.5500508,26.3532324 L27.1988485,26.3532324 C27.9947264,26.3532324 28.6419275,25.7026463 28.6419275,24.9026058 C28.6419275,24.1029057 27.9947264,23.4523196 27.1988485,23.4523196 L23.3396875,23.4523196 L23.3396875,21.7814265 C23.3396875,21.2979978 22.9485219,20.9047864 22.4676085,20.9047864 L19.8385021,20.9047864 L19.8385021,20.7982279 C19.8385021,20.1915589 19.3477672,19.6982573 18.7442547,19.6982573 L17.8352605,19.6982573 C17.6053026,19.6982573 17.418356,19.5099925 17.418356,19.2788318 C17.418356,19.0476712 17.6056413,18.8597468 17.8352605,18.8597468 L20.8778848,18.8597468 C21.4813973,18.8597468 21.9721322,18.3661048 21.9721322,17.7594358 C21.9721322,17.1527668 21.4813973,16.6594652 20.8778848,16.6594652 L17.8352605,16.6594652 C17.6053026,16.6594652 17.418356,16.4712004 17.418356,16.2400397 L17.418356,15.9717709 C17.418356,15.7406102 17.6056413,15.5526858 17.8352605,15.5526858 L18.7442547,15.5526858 C19.3477672,15.5526858 19.8385021,15.0590438 19.8385021,14.4523748 L19.8385021,13.3650006 C20.3451546,13.2162272 20.7187092,12.7505015 20.7187092,12.1938776 L20.7187092,11.5943579 L21.20538,11.5943579 C21.5741932,11.5943579 21.8742561,11.2927256 21.8742561,10.9219834 L21.8742561,9.73996614 C22.1008273,9.63238623 22.2593256,9.40190648 22.2593256,9.13363758 L22.2593256,7.32929096 L33.6552809,7.32929096 L33.6552809,30.9611251 L26.1073105,30.9611251 L26.1073105,28.4510407 C26.1073105,27.5233341 25.3568146,26.7692534 24.4346122,26.7692534 Z M17.1257439,9.7396257 L17.1257439,10.921643 C17.1257439,11.2923851 17.4258068,11.5940174 17.79462,11.5940174 L18.2812908,11.5940174 L18.2812908,12.1935371 C18.2812908,12.750161 18.6548454,13.2158867 19.1614979,13.3646602 L19.1614979,14.4520344 C19.1614979,14.683195 18.9742126,14.8714599 18.7445934,14.8714599 L17.8355992,14.8714599 C17.2320867,14.8714599 16.7413518,15.3651019 16.7413518,15.9714304 L16.7413518,16.2396993 C16.7413518,16.8463683 17.2320867,17.3400103 17.8355992,17.3400103 L20.8782234,17.3400103 C21.1081813,17.3400103 21.295128,17.5279347 21.295128,17.7590953 C21.295128,17.990256 21.1078427,18.1785208 20.8782234,18.1785208 L17.8355992,18.1785208 C17.2320867,18.1785208 16.7413518,18.6721628 16.7413518,19.2784914 C16.7413518,19.8851604 17.2320867,20.3788024 17.8355992,20.3788024 L18.7445934,20.3788024 C18.9745513,20.3788024 19.1614979,20.5667268 19.1614979,20.7978874 L19.1614979,20.904446 L16.5323915,20.904446 C16.0514781,20.904446 15.6603125,21.2976574 15.6603125,21.7810861 L15.6603125,23.4519792 L11.8011515,23.4519792 C11.0052736,23.4519792 10.3580725,24.1025653 10.3580725,24.9022653 C10.3580725,25.7023058 11.0052736,26.3528919 11.8011515,26.3528919 L18.4499492,26.3528919 L18.4499492,26.768913 L14.5647104,26.768913 C13.6425081,26.768913 12.8923509,27.5229937 12.8923509,28.4500193 L12.8923509,30.9601038 L5.34438047,30.9601038 L5.34438047,7.32895052 L16.7406744,7.32895052 L16.7406744,9.13329714 C16.7410131,9.40156604 16.8991727,9.63170534 17.1257439,9.7396257 L17.1257439,9.7396257 Z" id="Shape" fill="#E6E7E8"></path>
                    <path d="M17.6367579,20 C17.4577588,20 17.3130705,19.8469713 17.3130705,19.6584181 L17.3130705,19.2102626 C17.3130705,18.9783285 17.1340713,18.7894337 16.9146113,18.7894337 L16.0458341,18.7894337 C15.4690231,18.7894337 15,18.29414 15,17.6857826 C15,17.0770836 15.4690231,16.5817899 16.0458341,16.5817899 L18.9538422,16.5817899 C19.1739496,16.5817899 19.3526251,16.3932367 19.3526251,16.1613026 C19.3526251,15.9293685 19.1736259,15.7404737 18.9538422,15.7404737 L16.0458341,15.7404737 C15.4690231,15.7404737 15,15.2451799 15,14.6368225 L15,14.367656 C15,13.758957 15.4690231,13.2640049 16.0458341,13.2640049 L16.9146113,13.2640049 C17.134395,13.2640049 17.3130705,13.0751101 17.3130705,12.843176 L17.3130705,11.3415819 C17.3130705,11.1530287 17.4577588,11 17.6367579,11 C17.8157571,11 17.9604454,11.1530287 17.9604454,11.3415819 L17.9604454,12.843176 C17.9604454,13.4518749 17.4914223,13.9471687 16.9146113,13.9471687 L16.0458341,13.9471687 C15.8260504,13.9471687 15.6473749,14.1357219 15.6473749,14.367656 L15.6473749,14.6368225 C15.6473749,14.8687566 15.8263741,15.0573099 16.0458341,15.0573099 L18.9538422,15.0573099 C19.5306532,15.0573099 20,15.5526036 20,16.1613026 C20,16.7700015 19.5306532,17.2649537 18.9538422,17.2649537 L16.0458341,17.2649537 C15.8260504,17.2649537 15.6473749,17.4538485 15.6473749,17.6857826 C15.6473749,17.9177167 15.8263741,18.1062699 16.0458341,18.1062699 L16.9146113,18.1062699 C17.4914223,18.1062699 17.9604454,18.6015637 17.9604454,19.2102626 L17.9604454,19.6584181 C17.9604454,19.8469713 17.8157571,20 17.6367579,20 Z" id="Path" fill="#0089EF"></path>
                    <path d="M25.8708883,25.0079031 C26.4917093,25.0079031 27,24.5561942 27,24.0041055 C27,23.4520168 26.4920556,23 25.8708883,23 L10.1291117,23 C9.50829069,23 9,23.4517089 9,24.0041055 C9,24.5561942 9.50794445,25.0079031 10.1291117,25.0079031 L17.2728812,25.0079031 L17.2728812,26 L18.7271188,26 L18.7271188,25.0079031 L25.8708883,25.0079031 Z" id="Path" fill="#6DC9F7"></path>
                    <path d="M33.6788495,0 L2.32115053,0 C1.59448419,0 1,0.614579916 1,1.36581022 L1,35.6341898 C1,36.3854201 1.59448419,37 2.32115053,37 L33.6788495,37 C34.4055158,37 35,36.3854201 35,35.6341898 L35,1.36581022 C35,0.614579916 34.4055158,2.46436397e-15 33.6788495,0 Z M32.3573635,29.5036511 L24.2097094,29.5036511 L24.2097094,26.5996569 C24.2097094,25.8453052 23.6182446,25.2338467 22.8885589,25.2338467 L13.1111056,25.2338467 C12.3814199,25.2338467 11.7899551,25.8453052 11.7899551,26.5996569 L11.7899551,29.5036511 L3.64230105,29.5036511 L3.64230105,4.73524808 L32.3576989,4.73524808 L32.3576989,29.5036511 L32.3573635,29.5036511 Z" id="Shape" fill="#FA759E"></path>
                    <path d="M13,31.9870773 L13,29.0129227 C13,28.4535811 13.4841477,28 14.0811831,28 L21.9188169,28 C22.5158523,28 23,28.4535811 23,29.0129227 L23,31.9870773 C23,32.5464189 22.5158523,33 21.9188169,33 L14.0811831,33 C13.4841477,33 13,32.5464189 13,31.9870773 Z" id="Path" fill="#6DC9F7"></path>
                    <path d="M16,8 L16,9.62885421 C16,9.83365055 16.1450915,10 16.3244592,10 L19.6755408,10 C19.8545757,10 20,9.83403121 20,9.62885421 L20,8 L16,8 Z" id="Path" fill="#FFD7E5"></path>
                    <path d="M16.2728418,8 L19.7271582,8 C19.8777109,8 20,7.82020619 20,7.59793814 L20,5 L16,5 L16,7.59793814 C16,7.82020619 16.1222891,8 16.2728418,8 L16.2728418,8 Z" id="Path" fill="#FFD7E5"></path>
                    <path d="M17,9 L17,10.0302239 C17,10.5656716 17.4478646,11 18,11 C18.5521354,11 19,10.5656716 19,10.0302239 L19,9 L17,9 Z" id="Path" fill="#FFD7E5"></path>
                    <path d="M21.4667731,19 L15.5332269,19 C15.2386825,19 15,19.2826784 15,19.6315156 L15,22 L22,22 L22,19.6315156 C22,19.2826784 21.7613175,19 21.4667731,19 Z" id="Path" fill="#0089EF"></path>
                    <path d="M21.4670855,19 L15.5332527,19 C15.2386941,19 15,19.3081967 15,19.6885246 L15,21 C15,20.6196721 15.2386941,20.3114754 15.5332527,20.3114754 L21.4667469,20.3114754 C21.7613056,20.3114754 21.9999996,20.6196721 22,21 L21.9999996,19.6885246 C22.0003382,19.3081967 21.7616442,19 21.4670855,19 Z" id="Path" fill="#FFFFFF"></path>
                    <circle id="Oval" fill="#D4FBFF" cx="16" cy="29" r="1"></circle>
                    <circle id="Oval" fill="#FA759E" cx="18" cy="29" r="1"></circle>
                    <circle id="Oval" fill="#FA759E" cx="21" cy="29" r="1"></circle>
                    <g id="Group" fill="#3A2C60">
                        <path d="M33.2277885,0.221663636 L1.77221154,0.221663636 C0.855817308,0.221663636 0.110384615,0.966709091 0.110384615,1.88262727 L0.110384615,35.1173727 C0.110384615,36.0332909 0.856153846,36.7783364 1.77221154,36.7783364 L33.228125,36.7783364 C34.1445192,36.7783364 34.8899519,36.0332909 34.8899519,35.1173727 L34.8899519,1.88262727 C34.8899519,0.966709091 34.1441827,0.221663636 33.2277885,0.221663636 Z M34.216875,35.1173727 C34.216875,35.6622818 33.7733173,36.1056091 33.228125,36.1056091 L1.77221154,36.1056091 C1.22701923,36.1056091 0.783461538,35.6622818 0.783461538,35.1173727 L0.783461538,1.88262727 C0.783461538,1.33771818 1.22701923,0.894390909 1.77221154,0.894390909 L33.228125,0.894390909 C33.7733173,0.894390909 34.216875,1.33771818 34.216875,1.88262727 L34.216875,35.1173727 Z" id="Shape"></path>
                        <path d="M31.9028365,4.81403636 L3.0975,4.81403636 C2.91139423,4.81403636 2.76096154,4.96472727 2.76096154,5.1504 L2.76096154,29.1718091 C2.76096154,29.3574818 2.91139423,29.5081727 3.0975,29.5081727 L11.2706731,29.5081727 C11.4567788,29.5081727 11.6072115,29.3574818 11.6072115,29.1718091 L11.6072115,26.3551 C11.6072115,25.8101909 12.0507692,25.3668636 12.5959615,25.3668636 L22.4040385,25.3668636 C22.9492308,25.3668636 23.3927885,25.8101909 23.3927885,26.3551 L23.3927885,29.1718091 C23.3927885,29.3574818 23.5432212,29.5081727 23.7293269,29.5081727 L31.9028365,29.5081727 C32.0889423,29.5081727 32.239375,29.3574818 32.239375,29.1718091 L32.239375,5.1504 C32.239375,4.96472727 32.0889423,4.81403636 31.9028365,4.81403636 Z M19.1944712,9.028 L18.3847596,9.03001818 C18.3810577,9.03001818 18.3783654,9.028 18.3746635,9.028 L16.6256731,9.028 C16.6142308,9.028 16.6044712,9.03338182 16.5930288,9.03472727 L15.8142788,9.03674545 L15.8142788,7.93380909 L19.1880769,7.93380909 L19.1944712,9.028 Z M16.961875,9.70072727 L18.0377885,9.70072727 L18.0377885,10.2930636 C18.0377885,10.5894 17.7964904,10.8309091 17.4996635,10.8309091 C17.2028365,10.8309091 16.9615385,10.5897364 16.9615385,10.2930636 L16.9615385,9.70072727 L16.961875,9.70072727 Z M19.5697115,5.48676364 L19.5771154,7.26074545 L19.5225962,7.26074545 L15.4774038,7.26074545 L15.4312981,7.26074545 L15.4312981,5.48676364 L19.5697115,5.48676364 Z M16.7929327,23.6103727 L9.84947115,23.6103727 C9.43014423,23.6103727 9.08889423,23.2693 9.08889423,22.8501909 C9.08889423,22.4307455 9.43014423,22.0896727 9.84947115,22.0896727 L14.0208654,22.0896727 L20.9791346,22.0896727 L25.1505288,22.0896727 C25.5698558,22.0896727 25.9114423,22.4307455 25.9114423,22.8501909 C25.9114423,23.2693 25.5698558,23.6103727 25.1505288,23.6103727 L18.2067308,23.6103727 C18.020625,23.6103727 17.8701923,23.7610636 17.8701923,23.9467364 L17.8701923,24.6941364 L17.1294712,24.6941364 L17.1294712,23.9467364 C17.1294712,23.7610636 16.9790385,23.6103727 16.7929327,23.6103727 Z M20.6425962,21.4169455 L14.3574038,21.4169455 L14.3574038,19.7660727 C14.3574038,19.6594455 14.4442308,19.5726636 14.5509135,19.5726636 L20.44875,19.5726636 C20.5554327,19.5726636 20.6422596,19.6594455 20.6422596,19.7660727 L20.6422596,21.4169455 L20.6425962,21.4169455 Z M31.5662981,28.8354455 L24.0658654,28.8354455 L24.0658654,26.3551 C24.0658654,25.4391818 23.3204327,24.6941364 22.4040385,24.6941364 L18.5432692,24.6941364 L18.5432692,24.2831 L25.1501923,24.2831 C25.9410577,24.2831 26.5841827,23.6403091 26.5841827,22.8501909 C26.5841827,22.0597364 25.9410577,21.4169455 25.1501923,21.4169455 L21.3156731,21.4169455 L21.3156731,19.7660727 C21.3156731,19.2884364 20.9269712,18.8999364 20.4490865,18.8999364 L14.5509135,18.8999364 C14.0730288,18.8999364 13.6843269,19.2884364 13.6843269,19.7660727 L13.6843269,21.4169455 L9.84947115,21.4169455 C9.05894231,21.4169455 8.41581731,22.0597364 8.41581731,22.8501909 C8.41581731,23.6403091 9.05894231,24.2831 9.84947115,24.2831 L16.4563942,24.2831 L16.4563942,24.6941364 L12.5962981,24.6941364 C11.6799038,24.6941364 10.9344712,25.4391818 10.9344712,26.3551 L10.9344712,28.8354455 L3.43403846,28.8354455 L3.43403846,5.48676364 L14.7582212,5.48676364 L14.7582212,7.26949091 C14.7582212,7.53454545 14.9153846,7.76226364 15.1408654,7.86855455 L15.1408654,9.03640909 C15.1408654,9.40270909 15.4390385,9.70072727 15.8055288,9.70072727 L16.2891346,9.70072727 L16.2891346,10.2930636 C16.2891346,10.9604091 16.8323077,11.5036364 17.5003365,11.5036364 C18.1683654,11.5036364 18.7115385,10.9607455 18.7115385,10.2930636 L18.7115385,9.70072727 L19.1951442,9.70072727 C19.5616346,9.70072727 19.8598077,9.40270909 19.8598077,9.03640909 L19.8598077,7.86855455 C20.0849519,7.76226364 20.2424519,7.53454545 20.2424519,7.26949091 L20.2424519,5.48676364 L31.5669712,5.48676364 L31.5669712,28.8354455 L31.5662981,28.8354455 Z" id="Shape"></path>
                        <path d="M21.3436058,26.0187364 L13.6563942,26.0187364 C12.8863942,26.0187364 12.2597596,26.6450455 12.2597596,27.4146455 L12.2597596,30.5266818 C12.2597596,31.2966182 12.8863942,31.9229273 13.6563942,31.9229273 L21.3436058,31.9229273 C22.1139423,31.9229273 22.7405769,31.2966182 22.7405769,30.5266818 L22.7405769,27.4146455 C22.7405769,26.6450455 22.1139423,26.0187364 21.3436058,26.0187364 Z M22.0675,30.5266818 C22.0675,30.9256091 21.7427404,31.2502 21.3436058,31.2502 L13.6563942,31.2502 C13.2572596,31.2502 12.9328365,30.9256091 12.9328365,30.5266818 L12.9328365,27.4146455 C12.9328365,27.0157182 13.2575962,26.6914636 13.6563942,26.6914636 L21.3436058,26.6914636 C21.7430769,26.6914636 22.0675,27.0160545 22.0675,27.4146455 L22.0675,30.5266818 Z" id="Shape"></path>
                        <path d="M14.8332692,27.8226545 C14.1995673,27.8226545 13.6843269,28.3376273 13.6843269,28.971 C13.6843269,29.6043727 14.1995673,30.1193455 14.8332692,30.1193455 C15.4666346,30.1193455 15.981875,29.6043727 15.981875,28.971 C15.981875,28.3376273 15.4666346,27.8226545 14.8332692,27.8226545 Z M14.8332692,29.4462818 C14.5711058,29.4462818 14.3574038,29.2330273 14.3574038,28.9706636 C14.3574038,28.7083 14.5711058,28.4950455 14.8332692,28.4950455 C15.0954327,28.4950455 15.3087981,28.7083 15.3087981,28.9706636 C15.3087981,29.2330273 15.0954327,29.4462818 14.8332692,29.4462818 Z" id="Shape"></path>
                        <path d="M17.5,27.8226545 C16.8666346,27.8226545 16.3513942,28.3376273 16.3513942,28.971 C16.3513942,29.6043727 16.8666346,30.1193455 17.5,30.1193455 C18.1337019,30.1193455 18.6489423,29.6043727 18.6489423,28.971 C18.6489423,28.3376273 18.1337019,27.8226545 17.5,27.8226545 Z M17.5,29.4462818 C17.2378365,29.4462818 17.0244712,29.2330273 17.0244712,28.9706636 C17.0244712,28.7083 17.2378365,28.4950455 17.5,28.4950455 C17.7621635,28.4950455 17.9758654,28.7083 17.9758654,28.9706636 C17.9758654,29.2330273 17.7621635,29.4462818 17.5,29.4462818 Z" id="Shape"></path>
                        <path d="M20.1670673,27.8226545 C19.5333654,27.8226545 19.018125,28.3376273 19.018125,28.971 C19.018125,29.6043727 19.5333654,30.1193455 20.1670673,30.1193455 C20.8004327,30.1193455 21.3156731,29.6043727 21.3156731,28.971 C21.3156731,28.3376273 20.8004327,27.8226545 20.1670673,27.8226545 Z M20.1670673,29.4462818 C19.9049038,29.4462818 19.6912019,29.2330273 19.6912019,28.9706636 C19.6912019,28.7083 19.9049038,28.4950455 20.1670673,28.4950455 C20.4292308,28.4950455 20.6425962,28.7083 20.6425962,28.9706636 C20.6425962,29.2330273 20.4292308,29.4462818 20.1670673,29.4462818 Z" id="Shape"></path>
                    </g>
                </g>
            </g>
        </g>
    </g>
</svg>