<?xml version="1.0" encoding="UTF-8"?>
<svg width="38px" height="38px" viewBox="0 0 38 38" version="1.1" xmlns="http://www.w3.org/2000/svg" xmlns:xlink="http://www.w3.org/1999/xlink">
    <!-- Generator: Sketch 53.2 (72643) - https://sketchapp.com -->
    <title>handsaw</title>
    <desc>Created with Sketch.</desc>
    <g id="Website" stroke="none" stroke-width="1" fill="none" fill-rule="evenodd">
        <g id="Landingpage" transform="translate(-171.000000, -521.000000)" fill-rule="nonzero">
            <g id="Group-6" transform="translate(13.000000, 469.000000)">
                <g id="handsaw" transform="translate(158.000000, 52.000000)">
                    <path d="M14.9859303,23.8689941 C13.7851834,22.4799927 13.8540762,20.3852295 15.1429579,19.0802368 C15.8192636,18.3954956 16.1577781,17.4977478 16.1577781,16.6 C16.1577781,15.7022522 15.8192636,14.8045044 15.1429579,14.1197449 L14.037037,13 L1.71185077,20.9447632 C1.26888925,21.2282471 1,21.7217529 1,22.2527588 C1,22.6795044 1.17111545,23.0664795 1.4474103,23.3469971 C1.72444661,23.6267456 2.10666233,23.8 2.52814851,23.8 L3.96296296,23.8 L5.74074074,32.8 L4.45259151,34.1042603 C4.13925962,34.4215088 3.96296296,34.8519897 3.9622215,35.3004883 L3.9622215,35.3342529 C3.96148004,36.2537354 4.69925492,37 5.60740379,37 L5.63407841,37 C6.08591941,37 6.50888853,36.8230103 6.82370334,36.5042603 C8.91481301,34.3862427 17,26.2 17,26.2 L14.9859303,23.8689941 Z M12.0140697,26.4482544 L9.67703812,28.8144897 C9.00740559,29.4924927 7.8622233,29.1414795 7.67703812,28.2010132 L6.48888707,22.1882324 C6.39482059,21.7112427 6.59407551,21.2237427 6.99406828,20.9545044 L8.04592556,20.2435059 C8.8340748,19.7125 9.88888889,20.2840088 9.88888889,21.2424927 L9.88888889,22.1027588 C9.88888889,22.4215088 10.0140697,22.7267456 10.236292,22.9517456 L12.0140697,24.7517456 C12.4762912,25.2197632 12.4762912,25.9802368 12.0140697,26.4482544 L12.0140697,26.4482544 Z" id="Shape" fill="#FCC200"></path>
                    <path d="M5.98379916,20.9545044 L7.03673596,20.2435059 C7.24583525,20.1032471 7.47348111,20.0394897 7.69518918,20.0402588 C7.69370473,19.0832397 6.6385503,18.5132324 5.85033441,19.0435059 L4.79739761,19.7545044 C4.39699434,20.0237427 4.19753492,20.5112427 4.29169794,20.9882324 L5.48106839,27.0010132 C5.59822228,27.5950073 6.09873544,27.9534912 6.62075501,27.9662354 L5.47809948,22.1882324 C5.38393646,21.7112427 5.58339588,21.2237427 5.98379916,20.9545044 Z M13.9838632,23.8689941 C12.781884,22.4799927 12.8508476,20.3852295 14.141052,19.0802368 C14.8180518,18.3954956 15.1569138,17.4977478 15.1569138,16.6 C15.1569138,15.7022522 14.8180518,14.8045044 14.141052,14.1197449 L13.0339961,13 L13.0325117,13.0007507 C13.6575919,13.6742493 13.9705122,14.5375 13.9705122,15.4 C13.9705122,16.2977478 13.6316503,17.1954956 12.9546505,17.8802551 C11.664446,19.1852295 11.5954825,21.2799927 12.7974617,22.6689941 L14.8135985,25 C14.8135985,25 6.7201136,33.1862427 4.62685782,35.3042603 C4.31171991,35.6230103 3.8883167,35.8 3.43601198,35.8 L3.40930998,35.8 C3.26843204,35.8 3.13124712,35.7819824 3,35.7482544 C3.18167316,36.4674927 3.82825983,37 4.59571152,37 L4.62241352,37 C5.07471825,37 5.49812146,36.8230103 5.81325937,36.5042603 C7.90651515,34.3862427 16,26.2 16,26.2 L13.9838632,23.8689941 Z" id="Shape" fill="#F98800"></path>
                    <path d="M37,4.54545455 L37,6.31818182 L35.2,6.31818182 L35.2,8.09090909 L33.4,8.09090909 L33.4,9.86363636 L31.6,9.86363636 L31.6,11.6363636 L29.8,11.6363636 L29.8,13.4090909 L28,13.4090909 L28,15.1818182 L26.2,15.1818182 L26.2,16.9545455 L24.4,16.9545455 L24.4,18.7272727 L22.6,18.7272727 L22.6,20.5 L20.8,20.5 L20.8,22.2727273 L19,22.2727273 L19,24.0454545 L17.2,24.0454545 L17.2,25.8181818 L16,27 L13.9607544,24.7043124 C12.7449982,23.3363564 12.8147522,21.2733321 14.1197449,19.988112 C14.8045044,19.3137457 15.1472504,18.4296001 15.1472504,17.5454545 C15.1472504,16.661309 14.8045044,15.7771634 14.1197449,15.102779 L13,14 L33.0422485,1.2252877 C33.2762482,1.07829978 33.5469971,1 33.8244934,1 C34.0667511,1 34.3007507,1.05983387 34.5085022,1.16915062 C34.7155029,1.277728 34.8954956,1.43726696 35.0304993,1.63523449 L37,4.54545455 Z" id="Path" fill="#AEDEF8"></path>
                    <path d="M37,4.4923776 L37,6.26929516 L35.2097443,6.26929516 L35.2097443,8.04621272 L33.4194885,8.04621272 L33.4194885,9.82313027 L31.6292328,9.82313027 L31.6292328,11.6000478 L29.8389771,11.6000478 L29.8389771,13.3769654 L28.0487213,13.3769654 L28.0487213,15.1538829 L26.2584656,15.1538829 L26.2584656,16.9308005 L24.4682099,16.9308005 L24.4682099,18.7077181 L22.6779542,18.7077181 L22.6779542,20.4846356 L20.8876984,20.4846356 L20.8876984,22.2615532 L19.0974427,22.2615532 L19.0974427,24.0384707 L17.307187,24.0384707 L17.307187,25.8153883 L16.1136831,27 L15,25.7361804 L16.1136831,24.6307766 L16.1136831,22.853859 L17.9039389,22.853859 L17.9039389,21.0769415 L19.6941946,21.0769415 L19.6941946,19.3000239 L21.4844503,19.3000239 L21.4844503,17.5231064 L23.2747061,17.5231064 L23.2747061,15.7461888 L25.0649618,15.7461888 L25.0649618,13.9692712 L26.8552175,13.9692712 L26.8552175,12.1923537 L28.6454733,12.1923537 L28.6454733,10.4154361 L30.435729,10.4154361 L30.435729,8.63851857 L32.2259847,8.63851857 L32.2259847,6.86160101 L34.0162404,6.86160101 L34.0162404,5.08468345 L35.8064962,5.08468345 L35.8064962,3.3077659 L34.2571776,1 C34.3489267,1.02664364 34.4376983,1.06366276 34.5219899,1.10809292 C34.72787,1.21692695 34.9068883,1.37684303 35.0411611,1.5752785 L37,4.4923776 Z" id="Path" fill="#4CABCC"></path>
                    <g id="Group" transform="translate(12.000000, 3.000000)" fill="#EFEEEF">
                        <ellipse id="Oval" cx="22.3947368" cy="0.576923077" rx="1" ry="1"></ellipse>
                        <ellipse id="Oval" cx="0.907894737" cy="14.1346154" rx="1" ry="1"></ellipse>
                        <path d="M10.2899909,8.94237812 C10.0991468,8.94237812 9.91136892,8.85660025 9.79363371,8.69624212 C9.60193995,8.43517597 9.66851003,8.07544416 9.94236353,7.89276123 L12.9686793,5.87353046 C13.2425328,5.69077712 13.6199726,5.75430063 13.8116294,6.01529635 C14.0033232,6.2763625 13.9367531,6.63609431 13.6628996,6.81877724 L10.6365838,8.838008 C10.5309288,8.90850361 10.4098318,8.94237812 10.2899909,8.94237812 Z" id="Path"></path>
                        <path d="M7.26367508,10.9616089 C7.072831,10.9616089 6.88505313,10.875831 6.76731792,10.7154729 C6.57562416,10.4544067 6.64223118,10.0946749 6.91604774,9.911992 L7.78071995,9.33506893 C8.05457345,9.15238601 8.43201325,9.21576867 8.62367007,9.47683481 C8.81536383,9.73790096 8.7487568,10.0976328 8.47494025,10.2803157 L7.61026804,10.8572388 C7.50461298,10.9277344 7.38355295,10.9616089 7.26367508,10.9616089 Z" id="Path"></path>
                    </g>
                    <path d="M5.23680687,38 L5.21038818,38 C4.61145592,38 4.04829216,37.7666893 3.62461472,37.3431206 C3.20061112,36.9192619 2.96748162,36.3559532 2.96806145,35.7569122 L2.96809769,35.7239342 C2.96864128,35.118515 3.20474244,34.549263 3.63291359,34.1211281 L4.69922829,33.0548859 L3.07572937,24.9375 L2.12483787,24.9375 C0.953210829,24.9375 0,23.9842529 0,22.8126259 C0,22.0792809 0.370187762,21.4076881 0.99024773,21.0160828 L13.3352757,13.156723 L33.1674461,0.3220253 C33.4969368,0.110820773 33.8753147,0 34.263876,0 C34.9433327,0 35.5740109,0.337535861 35.9509392,0.902873996 L37.9002686,3.8269043 C37.9653187,3.92446136 38,4.03905105 38,4.15625 L38,5.9375 C38,6.26539612 37.7341824,6.53125 37.40625,6.53125 L36.21875,6.53125 L36.21875,7.71875 C36.21875,8.04664612 35.9529324,8.3125 35.625,8.3125 L34.4375,8.3125 L34.4375,9.5 C34.4375,9.82789612 34.1716824,10.09375 33.84375,10.09375 L32.65625,10.09375 L32.65625,11.28125 C32.65625,11.6091461 32.3904324,11.875 32.0625,11.875 L30.875,11.875 L30.875,13.0625 C30.875,13.3903961 30.6091824,13.65625 30.28125,13.65625 L29.09375,13.65625 L29.09375,14.84375 C29.09375,15.1716461 28.8279324,15.4375 28.5,15.4375 L27.3125,15.4375 L27.3125,16.625 C27.3125,16.9528961 27.0466824,17.21875 26.71875,17.21875 L25.53125,17.21875 L25.53125,18.40625 C25.53125,18.7341461 25.2654324,19 24.9375,19 L23.75,19 L23.75,20.1875 C23.75,20.5153961 23.4841824,20.78125 23.15625,20.78125 L21.96875,20.78125 L21.96875,21.96875 C21.96875,22.2966461 21.7029324,22.5625 21.375,22.5625 L20.1875,22.5625 L20.1875,23.75 C20.1875,24.0778961 19.9216824,24.34375 19.59375,24.34375 L18.40625,24.34375 L18.40625,25.53125 C18.40625,25.6887474 18.3437004,25.8397217 18.232336,25.9511223 L17.044836,27.1386223 C17.044836,27.1386223 8.94390297,35.2395554 6.84841919,37.3356552 C6.42013931,37.7640801 5.84780693,38 5.23680687,38 Z M13.5732613,14.4129333 L1.62614441,22.0189781 C1.35079574,22.1928558 1.1875,22.489151 1.1875,22.8126259 C1.1875,23.3294754 1.60798835,23.75 2.12483787,23.75 L3.5625,23.75 C3.84553147,23.75 4.0892067,23.9497528 4.1447258,24.2272759 L5.9259758,33.1335259 C5.96489716,33.3282051 5.90397835,33.52948 5.76358605,33.6698723 L4.47258568,34.9608726 C4.26841163,35.1649742 4.15585136,35.436409 4.15559768,35.7250938 L4.15556144,35.7581444 C4.15527152,36.0394363 4.26489639,36.3041306 4.46417808,36.503376 C4.66360474,36.7026939 4.92858887,36.8125 5.21038818,36.8125 L5.23680687,36.8125 C5.53052902,36.8125 5.80460929,36.7001572 6.00860214,36.4960556 C7.82681656,34.6773338 14.1664314,28.3376465 15.8123627,26.6917152 L14.160017,24.8033409 C12.7559853,23.1986504 12.837162,20.7606659 14.3448391,19.2529526 C15.4664917,18.1313362 15.4664917,16.3061638 14.3448391,15.1845474 L13.5732613,14.4129333 Z M14.5953999,13.7556915 L15.1845112,14.3448029 C16.7691975,15.9294891 16.7691975,18.5080109 15.1845112,20.0926971 C14.117363,21.1598816 14.0598869,22.88554 15.0536861,24.0213623 L16.6539192,25.8501587 L17.21875,25.2853279 L17.21875,23.75 C17.21875,23.4221039 17.4845676,23.15625 17.8125,23.15625 L19,23.15625 L19,21.96875 C19,21.6408539 19.2658176,21.375 19.59375,21.375 L20.78125,21.375 L20.78125,20.1875 C20.78125,19.8596039 21.0470676,19.59375 21.375,19.59375 L22.5625,19.59375 L22.5625,18.40625 C22.5625,18.0783539 22.8283176,17.8125 23.15625,17.8125 L24.34375,17.8125 L24.34375,16.625 C24.34375,16.2971039 24.6095676,16.03125 24.9375,16.03125 L26.125,16.03125 L26.125,14.84375 C26.125,14.5158539 26.3908176,14.25 26.71875,14.25 L27.90625,14.25 L27.90625,13.0625 C27.90625,12.7346039 28.1720676,12.46875 28.5,12.46875 L29.6875,12.46875 L29.6875,11.28125 C29.6875,10.9533539 29.9533176,10.6875 30.28125,10.6875 L31.46875,10.6875 L31.46875,9.5 C31.46875,9.17210388 31.7345676,8.90625 32.0625,8.90625 L33.25,8.90625 L33.25,7.71875 C33.25,7.39085388 33.5158176,7.125 33.84375,7.125 L35.03125,7.125 L35.03125,5.9375 C35.03125,5.60960388 35.2970676,5.34375 35.625,5.34375 L36.8125,5.34375 L36.8125,4.33599854 L34.9629021,1.5615654 C34.8067093,1.32731247 34.5454216,1.1875 34.263876,1.1875 C34.1028633,1.1875 33.9460545,1.23345184 33.8104095,1.32035446 L14.5953999,13.7556915 Z" id="Shape" fill="#000000"></path>
                    <path d="M8.933382,31 C8.76303372,31 8.5912194,30.9729223 8.42298081,30.9173623 C7.80144562,30.7120558 7.33620605,30.1528665 7.20883818,29.4580547 L6.03456504,23.0513345 C5.8943245,22.2862143 6.18814309,21.5122764 6.78311052,21.0795017 L7.82361521,20.3226531 C8.36387383,19.9295976 9.05527899,19.8929998 9.62786229,20.2274521 C10.2004098,20.5618263 10.5560887,21.2096618 10.5560887,21.9182856 L10.5560887,22.8352592 C10.5560887,23.0060749 10.6170194,23.1665902 10.7276885,23.2873863 L12.4852364,25.2050637 C12.8171724,25.567296 13,26.0488418 13,26.5611328 C13,27.0733458 12.8171724,27.5549696 12.4852364,27.9172019 L10.1750221,30.4380015 C9.84015399,30.8033552 9.39232827,31 8.933382,31 L8.933382,31 Z M8.79360631,21.2763026 C8.69752616,21.2763026 8.58728609,21.3036924 8.47354178,21.3864081 L7.43300134,22.1433347 C7.23469078,22.287619 7.136787,22.5455202 7.18352193,22.8005343 L8.35779507,29.2072545 C8.41990568,29.5461547 8.66151845,29.660396 8.76253312,29.6937164 C8.86347628,29.7270368 9.12253866,29.7782269 9.34652304,29.5339034 L11.6567374,27.0131038 C11.8851557,26.7638643 11.8851557,26.3584013 11.6567374,26.1091618 L9.89915371,24.1914064 C9.56718198,23.829096 9.38439013,23.3474722 9.38439013,22.8352592 L9.38439013,21.9182856 C9.38439013,21.5726745 9.16802208,21.4090379 9.07498131,21.3546484 C9.02209612,21.3238251 8.92015175,21.2763026 8.79360631,21.2763026 L8.79360631,21.2763026 Z" id="Shape" fill="#000000"></path>
                    <circle id="Oval" fill="#000000" cx="33" cy="4" r="1"></circle>
                    <path d="M12.5,19 C11.6729126,19 11,18.327124 11,17.5 C11,16.672876 11.6729126,16 12.5,16 C13.3270874,16 14,16.672876 14,17.5 C14,18.327124 13.3270874,19 12.5,19 Z M12.5,17.2 C12.3345825,17.2 12.2,17.3345459 12.2,17.5 C12.2,17.6654541 12.3345825,17.8 12.5,17.8 C12.6654175,17.8 12.8,17.6654541 12.8,17.5 C12.8,17.3345459 12.6654175,17.2 12.5,17.2 Z" id="Shape" fill="#000000"></path>
                    <path d="M21.7149377,12 C21.4897232,12 21.2681272,11.9189041 21.1291882,11.7672986 C20.902971,11.520482 20.9815302,11.1803852 21.3047038,11.0076735 L24.8760491,9.0986567 C25.1992227,8.92587843 25.6446382,8.98593469 25.8708118,9.23268469 C26.097029,9.47950128 26.0184698,9.81959816 25.6952962,9.99230985 L22.1239509,11.9013266 C21.9992677,11.9679744 21.8563616,12 21.7149377,12 Z" id="Path" fill="#000000"></path>
                    <path d="M19.5838446,15 C19.399923,15 19.2189565,14.9008853 19.1054919,14.7155945 C18.9207515,14.4139376 18.9849424,13.9982743 19.2488268,13.7871877 L20.0821345,13.1205641 C20.3460545,12.9094775 20.7098033,12.9827149 20.8945081,13.2843719 C21.0792485,13.5860288 21.0150576,14.0016921 20.7511732,14.2127787 L19.9178655,14.8794023 C19.8160429,14.9608586 19.6993741,15 19.5838446,15 Z" id="Path" fill="#000000"></path>
                </g>
            </g>
        </g>
    </g>
</svg>