<?xml version="1.0" encoding="UTF-8"?>
<svg width="36px" height="36px" viewBox="0 0 36 36" version="1.1" xmlns="http://www.w3.org/2000/svg" xmlns:xlink="http://www.w3.org/1999/xlink">
    <!-- Generator: Sketch 53.2 (72643) - https://sketchapp.com -->
    <title>robot</title>
    <desc>Created with Sketch.</desc>
    <g id="Website" stroke="none" stroke-width="1" fill="none" fill-rule="evenodd">
        <g id="Landingpage" transform="translate(-276.000000, -523.000000)" fill-rule="nonzero">
            <g id="Group-6" transform="translate(13.000000, 469.000000)">
                <g id="robot" transform="translate(263.000000, 54.000000)">
                    <g id="Group" transform="translate(3.000000, 9.000000)" fill="#C6C5CA">
                        <path d="M26.5833333,2.44444444 L26.5833333,9.77777778 C26.5833333,10.4527925 27.1243226,11 27.7916667,11 C28.4590107,11 29,10.4527925 29,9.77777778 L29,2.44444444 L26.5833333,2.44444444 Z" id="Path"></path>
                        <polygon id="Path" points="26.444375 0 25.9791667 0 22.9583333 0 22.9583333 2.44444444 25.9791667 2.44444444 26.444375 2.44444444 26.5833333 2.44444444 26.5833333 0"></polygon>
                        <path d="M0,2.44444444 L0,9.77777778 C0,10.4527925 0.540989261,11 1.20833333,11 C1.87567741,11 2.41666667,10.4527925 2.41666667,9.77777778 L2.41666667,2.44444444 L0,2.44444444 Z" id="Path"></path>
                        <polygon id="Path" points="3.02083333 0 2.555625 0 2.41666667 0 2.41666667 2.44444444 2.555625 2.44444444 3.02083333 2.44444444 6.04166667 2.44444444 6.04166667 0"></polygon>
                    </g>
                    <path d="M26,25.2307692 L26,32 L10,32 L10,25.2307692 C10.0020276,24.5518758 10.5518758,24.0020276 11.2307692,24 L24.7692308,24 C25.4481242,24.0020276 25.9979724,24.5518758 26,25.2307692 L26,25.2307692 Z" id="Path" fill="#898890"></path>
                    <path d="M26,8.4 L26,18 L9,18 L9,8.4 C9,3.7608081 12.8055796,7.99360578e-16 17.5,0 C22.1944204,-7.99360578e-16 26,3.7608081 26,8.4 Z" id="Path" fill="#ACABB1"></path>
                    <path d="M6.48658523,8.66737618 C7.17113826,9.42521108 7.17113826,10.578848 6.48658523,11.3366829 C6.43885792,11.3911222 6.38763962,11.4423924 6.33325547,11.4901681 C5.74595177,12.0160037 4.90494339,12.1476369 4.18531933,11.8263593 C3.46569526,11.5050817 3.00159232,10.790779 3,10.0020296 C3,8.8963665 3.89540959,8.00004949 4.99995328,8.00004949 C5.56875712,7.99600896 6.11125696,8.23952897 6.48658523,8.66737618 L6.48658523,8.66737618 Z" id="Path" fill="#ACABB1"></path>
                    <path d="M30.9979952,8 C32.1036719,8 33,8.89632809 33,10.0020048 C32.998406,10.790764 32.533827,11.5050756 31.8134648,11.8263571 C31.0931025,12.1476387 30.2512314,12.0160039 29.6633253,11.4901618 C29.6088853,11.4423855 29.5576145,11.3911147 29.5098382,11.3366747 C28.9839961,10.7487686 28.8523613,9.90689748 29.1736429,9.18653522 C29.4949244,8.46617297 30.209236,8.00159395 30.9979952,8 L30.9979952,8 Z" id="Path" fill="#ACABB1"></path>
                    <path d="M32,36 L32,26 L34.6666667,26 C35.4021346,26.0020593 35.9978035,26.5604988 36,27.25 L36,34.75 C35.9978035,35.4395012 35.4021346,35.9979407 34.6666667,36 L32,36 Z" id="Path" fill="#898890"></path>
                    <polygon id="Path" fill="#898890" points="28 31 28 33 26 33 26 29 28 29"></polygon>
                    <path d="M32,26 L32,36 L29.3333333,36 C28.5978654,35.9979407 28.0021965,35.4395012 28,34.75 L28,27.25 C28.0021965,26.5604988 28.5978654,26.0020593 29.3333333,26 L32,26 Z" id="Path" fill="#787680"></path>
                    <path d="M8,33.5 L8,34.75 C7.99780347,35.4395012 7.40213458,35.9979407 6.66666667,36 L4,36 L4,26 L6.66666667,26 C7.40213458,26.0020593 7.99780347,26.5604988 8,27.25 L8,33.5 Z" id="Path" fill="#787680"></path>
                    <path d="M4,26 L4,36 L1.33333333,36 C0.597865423,35.9979407 0.00219653407,35.4395012 0,34.75 L0,27.25 C0.00219653407,26.5604988 0.597865423,26.0020593 1.33333333,26 L4,26 Z" id="Path" fill="#898890"></path>
                    <polygon id="Path" fill="#898890" points="10 29 10 33 8 33 8 31 8 29"></polygon>
                    <path d="M24,8.71428571 L24,11 L12,11 L12,8.71428571 C12,5.55837286 14.6862915,3 18,3 C21.3137085,3 24,5.55837286 24,8.71428571 Z" id="Path" fill="#E6E7E8"></path>
                    <circle id="Oval" fill="#FF9811" cx="18" cy="7" r="2"></circle>
                    <polygon id="Path" fill="#ACABB1" points="12 22 24 22 24 24 12 24"></polygon>
                    <polygon id="Path" fill="#E6E7E8" points="13 15 23 15 23 19 13 19"></polygon>
                    <polygon id="Path" fill="#C6C5CA" points="26 18 26 22 23.5714286 22 11.4285714 22 9 22 9 18 12.6428571 18 22.3571429 18"></polygon>
                    <rect id="Rectangle" fill="#787680" x="14" y="26" width="8" height="4" rx="2"></rect>
                    <polygon id="Path" fill="#787680" points="26 29 27 29 27 33 26 33"></polygon>
                    <polygon id="Path" fill="#787680" points="9 29 10 29 10 33 9 33"></polygon>
                    <polygon id="Path" fill="#898890" points="12 22 24 22 24 23 12 23"></polygon>
                    <path d="M34.2,25.2031931 L29.4,25.2031931 C28.4058875,25.2031931 27.6,26.0088423 27.6,27.0026609 L27.6,28.2023061 L26.4,28.2023061 L26.4,25.8030157 C26.4,24.8091971 25.5941125,24.0035479 24.6,24.0035479 L24.6,22.8039027 L26.4,22.8039027 C26.7313708,22.8039027 27,22.5353529 27,22.20408 L27,12.0070957 L29.4,12.0070957 L29.4,18.6051444 C29.3996629,18.9657907 29.5084226,19.3181097 29.712,19.6158455 C28.7804427,20.1453592 28.2036022,21.1327921 28.2,22.20408 L29.4,22.20408 C29.4,21.2102614 30.2058875,20.4046122 31.2,20.4046122 C32.1941125,20.4046122 33,21.2102614 33,22.20408 L34.2,22.20408 C34.1963978,21.1327921 33.6195573,20.1453592 32.688,19.6158455 C32.8915774,19.3181097 33.0003371,18.9657907 33,18.6051444 L33,11.7779635 C33.3846871,11.3450729 33.5980447,10.7866677 33.6,10.2076279 C33.6,8.8825364 32.5254834,7.80833749 31.2,7.80833749 C30.6207889,7.81029222 30.0622186,8.02358677 29.6292,8.40816009 L26.9694,8.40816009 C26.6646328,3.67948493 22.7392818,2.66374747e-16 17.9994,0 C13.2595182,-1.33187374e-16 9.33416716,3.67948493 9.0294,8.40816009 L6.3708,8.40816009 C5.93778136,8.02358677 5.37921106,7.81029222 4.8,7.80833749 C3.4745166,7.80833749 2.4,8.8825364 2.4,10.2076279 C2.40195531,10.7866677 2.61531294,11.3450729 3,11.7779635 L3,18.6051444 C2.99966293,18.9657907 3.10842263,19.3181097 3.312,19.6158455 C2.38044266,20.1453592 1.80360216,21.1327921 1.8,22.20408 L3,22.20408 C3,21.2102614 3.80588745,20.4046122 4.8,20.4046122 C5.79411255,20.4046122 6.6,21.2102614 6.6,22.20408 L7.8,22.20408 C7.79639784,21.1327921 7.21955734,20.1453592 6.288,19.6158455 C6.49157737,19.3181097 6.60033707,18.9657907 6.6,18.6051444 L6.6,12.0070957 L9,12.0070957 L9,22.20408 C9,22.5353529 9.26862915,22.8039027 9.6,22.8039027 L11.4,22.8039027 L11.4,24.0035479 C10.4058875,24.0035479 9.6,24.8091971 9.6,25.8030157 L9.6,28.2023061 L8.4,28.2023061 L8.4,27.0026609 C8.4,26.0088423 7.59411255,25.2031931 6.6,25.2031931 L1.8,25.2031931 C0.80588745,25.2031931 0,26.0088423 0,27.0026609 L0,34.2005322 C0,35.1943508 0.80588745,36 1.8,36 L6.6,36 C7.59411255,36 8.4,35.1943508 8.4,34.2005322 L8.4,33.000887 L27.6,33.000887 L27.6,34.2005322 C27.6,35.1943508 28.4058875,36 29.4,36 L34.2,36 C35.1941125,36 36,35.1943508 36,34.2005322 L36,27.0026609 C36,26.0088423 35.1941125,25.2031931 34.2,25.2031931 L34.2,25.2031931 Z M28.8852,10.8074505 L27,10.8074505 L27,9.60780531 L28.8852,9.60780531 C28.7715958,9.99962324 28.7715958,10.4156326 28.8852,10.8074505 Z M30.6,18.6051444 L30.6,12.5217435 C30.9919338,12.6353141 31.4080662,12.6353141 31.8,12.5217435 L31.8,18.6051444 C31.8,18.9364173 31.5313708,19.204967 31.2,19.204967 C30.8686292,19.204967 30.6,18.9364173 30.6,18.6051444 Z M31.2,9.0079827 C31.8627417,9.0079827 32.4,9.54508216 32.4,10.2076279 C32.4,10.8701737 31.8627417,11.4072731 31.2,11.4072731 C30.5372583,11.4072731 30,10.8701737 30,10.2076279 C30,9.54508216 30.5372583,9.0079827 31.2,9.0079827 Z M18,1.21028881 C22.305765,1.21524696 25.7950404,4.70349069 25.8,9.0079827 L25.8,18.0053218 L23.4,18.0053218 L23.4,15.0062088 C23.4,14.6749359 23.1313708,14.4063862 22.8,14.4063862 L13.2,14.4063862 C12.8686292,14.4063862 12.6,14.6749359 12.6,15.0062088 L12.6,18.0053218 L10.2,18.0053218 L10.2,9.0079827 C10.2049596,4.70349069 13.694235,1.21524696 18,1.21028881 Z M22.2,18.0053218 L13.8,18.0053218 L13.8,15.6060314 L22.2,15.6060314 L22.2,18.0053218 Z M4.8,9.0079827 C5.4627417,9.0079827 6,9.54508216 6,10.2076279 C6,10.8701737 5.4627417,11.4072731 4.8,11.4072731 C4.1372583,11.4072731 3.6,10.8701737 3.6,10.2076279 C3.6,9.54508216 4.1372583,9.0079827 4.8,9.0079827 Z M4.2,18.6051444 L4.2,12.5217435 C4.59193381,12.6353141 5.00806619,12.6353141 5.4,12.5217435 L5.4,18.6051444 C5.4,18.9364173 5.13137085,19.204967 4.8,19.204967 C4.46862915,19.204967 4.2,18.9364173 4.2,18.6051444 Z M7.1148,10.8074505 C7.22840417,10.4156326 7.22840417,9.99962324 7.1148,9.60780531 L9,9.60780531 L9,10.8074505 L7.1148,10.8074505 Z M10.2,19.204967 L25.8,19.204967 L25.8,21.6042574 L10.2,21.6042574 L10.2,19.204967 Z M12.6,22.8039027 L23.4,22.8039027 L23.4,24.0035479 L12.6,24.0035479 L12.6,22.8039027 Z M1.2,34.2005322 L1.2,33.6007096 L2.4,33.6007096 L2.4,32.4010644 L1.2,32.4010644 L1.2,31.2014191 L2.4,31.2014191 L2.4,30.0017739 L1.2,30.0017739 L1.2,28.8021287 L2.4,28.8021287 L2.4,27.6024835 L1.2,27.6024835 L1.2,27.0026609 C1.2,26.671388 1.46862915,26.4028383 1.8,26.4028383 L3.6,26.4028383 L3.6,34.8003548 L1.8,34.8003548 C1.46862915,34.8003548 1.2,34.5318051 1.2,34.2005322 Z M6.6,34.8003548 L4.8,34.8003548 L4.8,26.4028383 L6.6,26.4028383 C6.93137085,26.4028383 7.2,26.671388 7.2,27.0026609 L7.2,27.6024835 L6,27.6024835 L6,28.8021287 L7.2,28.8021287 L7.2,30.0017739 L6,30.0017739 L6,31.2014191 L7.2,31.2014191 L7.2,32.4010644 L6,32.4010644 L6,33.6007096 L7.2,33.6007096 L7.2,34.2005322 C7.2,34.5318051 6.93137085,34.8003548 6.6,34.8003548 Z M8.4,29.4019513 L9.6,29.4019513 L9.6,31.8012418 L8.4,31.8012418 L8.4,29.4019513 Z M25.2,31.8012418 L10.8,31.8012418 L10.8,25.8030157 C10.8,25.4717428 11.0686292,25.2031931 11.4,25.2031931 L24.6,25.2031931 C24.9313708,25.2031931 25.2,25.4717428 25.2,25.8030157 L25.2,31.8012418 Z M26.4,31.8012418 L26.4,29.4019513 L27.6,29.4019513 L27.6,31.8012418 L26.4,31.8012418 Z M28.8,34.2005322 L28.8,33.6007096 L30,33.6007096 L30,32.4010644 L28.8,32.4010644 L28.8,31.2014191 L30,31.2014191 L30,30.0017739 L28.8,30.0017739 L28.8,28.8021287 L30,28.8021287 L30,27.6024835 L28.8,27.6024835 L28.8,27.0026609 C28.8,26.671388 29.0686292,26.4028383 29.4,26.4028383 L31.2,26.4028383 L31.2,34.8003548 L29.4,34.8003548 C29.0686292,34.8003548 28.8,34.5318051 28.8,34.2005322 Z M34.2,34.8003548 L32.4,34.8003548 L32.4,26.4028383 L34.2,26.4028383 C34.5313708,26.4028383 34.8,26.671388 34.8,27.0026609 L34.8,27.6024835 L33.6,27.6024835 L33.6,28.8021287 L34.8,28.8021287 L34.8,30.0017739 L33.6,30.0017739 L33.6,31.2014191 L34.8,31.2014191 L34.8,32.4010644 L33.6,32.4010644 L33.6,33.6007096 L34.8,33.6007096 L34.8,34.2005322 C34.8,34.5318051 34.5313708,34.8003548 34.2,34.8003548 Z" id="Shape" fill="#000000"></path>
                    <path d="M21.125,26 L14.875,26 C13.8394661,26 13,26.8394661 13,27.875 L13,29.125 C13,30.1605339 13.8394661,31 14.875,31 L21.125,31 C22.1605339,31 23,30.1605339 23,29.125 L23,27.875 C23,26.8394661 22.1605339,26 21.125,26 L21.125,26 Z M21.75,29.125 C21.75,29.470178 21.470178,29.75 21.125,29.75 L14.875,29.75 C14.529822,29.75 14.25,29.470178 14.25,29.125 L14.25,27.875 C14.25,27.529822 14.529822,27.25 14.875,27.25 L21.125,27.25 C21.470178,27.25 21.75,27.529822 21.75,27.875 L21.75,29.125 Z" id="Shape" fill="#000000"></path>
                    <path d="M11.5909091,12 L23.4090909,12 C23.735441,12 24,11.720178 24,11.375 L24,8.875 C24,5.07804234 21.0898509,2 17.5,2 C13.9101491,2 11,5.07804234 11,8.875 L11,11.375 C11,11.720178 11.264559,12 11.5909091,12 L11.5909091,12 Z M12.1818182,8.875 C12.1818182,5.76839828 14.5628493,3.25 17.5,3.25 C20.4371507,3.25 22.8181818,5.76839828 22.8181818,8.875 L22.8181818,10.75 L12.1818182,10.75 L12.1818182,8.875 Z" id="Shape" fill="#000000"></path>
                    <path d="M17.5,4 C16.1192881,4 15,5.11928813 15,6.5 C15,7.88071187 16.1192881,9 17.5,9 C18.8807119,9 20,7.88071187 20,6.5 C20,5.11928813 18.8807119,4 17.5,4 L17.5,4 Z M17.5,7.75 C16.8096441,7.75 16.25,7.19035594 16.25,6.5 C16.25,5.80964406 16.8096441,5.25 17.5,5.25 C18.1903559,5.25 18.75,5.80964406 18.75,6.5 C18.75,7.19035594 18.1903559,7.75 17.5,7.75 Z" id="Shape" fill="#000000"></path>
                </g>
            </g>
        </g>
    </g>
</svg>