<?xml version="1.0" encoding="UTF-8"?>
<svg width="38px" height="38px" viewBox="0 0 38 38" version="1.1" xmlns="http://www.w3.org/2000/svg" xmlns:xlink="http://www.w3.org/1999/xlink">
    <!-- Generator: Sketch 53.2 (72643) - https://sketchapp.com -->
    <title>tools</title>
    <desc>Created with Sketch.</desc>
    <g id="Website" stroke="none" stroke-width="1" fill="none" fill-rule="evenodd">
        <g id="Landingpage" transform="translate(-223.000000, -469.000000)" fill-rule="nonzero">
            <g id="Group-6" transform="translate(13.000000, 469.000000)">
                <g id="tools" transform="translate(210.000000, 0.000000)">
                    <path d="M38,19 C38,22.8086395 36.8794708,26.3549042 34.9497833,29.3282928 C34.3102264,30.3145905 33.5810852,31.2376862 32.7745361,32.0859833 C32.3860474,32.4953461 31.9790039,32.8878937 31.5548553,33.2607269 C30.2835693,34.381546 28.8615265,35.3339233 27.3226471,36.0845184 C25.9011841,36.7794495 24.3796997,37.3004303 22.786026,37.6222381 C22.1383514,37.7532806 21.4785003,37.8518524 20.8093719,37.9147644 C20.2135925,37.9712982 19.6102753,38 19,38 C18.3981323,38 17.8035126,37.972168 17.2164307,37.9170837 C16.5557098,37.8556214 15.9042663,37.7602386 15.2649994,37.6323853 C14.8620148,37.5526581 14.4633789,37.4595947 14.0699616,37.3531952 C12.6516876,36.9739837 11.2992249,36.4341583 10.0328675,35.7548828 C9.90095522,35.684433 9.76904297,35.6113739 9.63945005,35.537735 C9.03613281,35.195633 8.45397949,34.82193 7.89385986,34.4177856 C5.431015,32.6403045 3.4105835,30.2876282 2.03115848,27.5563202 C0.732040387,24.9847565 0,22.077179 0,19 C0,15.922821 0.732040387,13.0152435 2.03115848,10.4436798 C3.51292418,7.51087954 5.73252867,5.0144043 8.44673159,3.19807436 C8.94538881,2.86408998 9.46115109,2.55300907 9.99256899,2.26686098 C10.0056152,2.25990297 10.0195312,2.2520752 10.0328675,2.24511719 C12.7035827,0.812637348 15.7566986,0 19,0 C20.6400604,0 22.2314148,0.207870465 23.75,0.597808875 C23.8158112,0.615783691 23.8810425,0.632888813 23.9462738,0.65057373 C24.1292114,0.699569684 24.3106995,0.751464844 24.4913177,0.80567934 C28.8070221,2.10624693 32.4759216,4.90133663 34.8955688,8.58792118 C35.1483765,8.97351074 35.3881378,9.36895752 35.6131134,9.77310184 C37.133728,12.5049896 38,15.6514587 38,19 Z" id="Path" fill="#515A6E"></path>
                    <path d="M19,6.76988834 C19,6.85426718 18.998402,6.93837029 18.9962713,7.02274921 C18.8897372,10.9924169 13.1099964,10.9924169 13.0029297,7.02274921 C13.0005327,6.93837029 13,6.85426718 13,6.76988834 C13,5.53757063 13.240767,4.36426308 13.6778232,3.29573969 C14.1990412,2.01819938 14.9993786,0.892320419 16,0 C17.8366477,1.63821865 19,4.06259477 19,6.76988834 Z" id="Path" fill="#E5D6B9"></path>
                    <path d="M16,10 C14.0374612,10 12.0749223,9.00783142 12.0039059,7.02294286 C12.0010653,6.93856162 12,6.85445619 12,6.77007502 C12,5.53772333 12.3213493,4.36438343 12.9040391,3.29583058 C13.5985796,2.01825504 14.6659565,0.892345025 16,0 C15.6214825,0.892345025 15.3189525,2.01825504 15.1211717,3.29583058 C14.9560586,4.36438343 14.8644474,5.53772333 14.8644474,6.77007502 C14.8644474,6.85445619 14.8644474,6.93856162 14.8655126,7.02294286 C14.8857524,9.00783142 15.4432312,10 16,10 Z" id="Path" fill="#D1A982"></path>
                    <path d="M19,6.79346315 C16.4411707,7.87290184 16.0173691,4.31554116 14.8554829,5.420437 C14.8426669,5.43233547 14.8307247,5.44395718 14.8179087,5.45447213 C13.6688385,6.50070583 12.5555948,5.3974702 13.1795007,3.30721646 C13.749521,2.02522737 14.624795,0.89542775 15.719106,0 C17.7277215,1.64392343 19,4.07674196 19,6.79346315 Z" id="Path" fill="#49AAB7"></path>
                    <path d="M16,0 C15.6574456,0.917591609 15.3836591,2.07535632 15.2046695,3.38907754 C15.1105152,4.08294241 15.0427113,4.82019154 15.0057566,5.58948263 C13.7377266,6.66161298 12.5095435,5.53106978 13.1981873,3.38907754 C13.8267393,2.07535632 14.7927044,0.917591609 16,0 Z" id="Path" fill="#488089"></path>
                    <path d="M19,9 L18.6484689,19.6728162 L18.0466223,38 C17.3931643,37.9373006 16.7488817,37.839998 16.1166418,37.7095712 C15.7180869,37.6282393 15.323833,37.5333028 14.9347402,37.4247616 L14.3512444,19.6728162 L14,9 L19,9 Z" id="Path" fill="#5CBF96"></path>
                    <path d="M16,37 C15.4351125,36.9206782 14.8763208,36.8280881 14.3248442,36.7222296 L13.4978325,19.4090323 L13,9 L15.6720402,9 L15.7947711,19.4090323 L16,37 Z" id="Path" fill="#529E5F"></path>
                    <polygon id="Path" fill="#E6E6E6" points="19 9 18.6490222 19 14.3512645 19 14 9"></polygon>
                    <polygon id="Path" fill="#CCCCCC" points="15 19 13.35626 19 13 9 14.9124618 9"></polygon>
                    <path d="M35,8 L34.9591753,9.15286183 L34.6487313,17.935819 L34.2871829,28.1747999 C33.639274,29.1342021 32.900611,30.0321258 32.0835292,30.8572906 C31.6899671,31.2554904 31.2776081,31.6373336 30.8479206,32 L30.3512689,17.935819 L30,8 L35,8 Z" id="Path" fill="#49AAB7"></path>
                    <path d="M33,30.8572906 C32.622216,31.2554904 32.2263885,31.6373336 31.8139273,32 L31.3371864,17.935819 L31,8 L32.8099803,8 L32.8928672,17.935819 L33,30.8572906 Z" id="Path" fill="#488089"></path>
                    <polygon id="Path" fill="#E6E6E6" points="35 8 34.6490043 18 30.3512894 18 30 8"></polygon>
                    <polygon id="Path" fill="#CCCCCC" points="33 18 31.3562705 18 31 8 32.9124218 8"></polygon>
                    <polygon id="Path" fill="#E5D6B9" points="38 1 36.8910235 4.54055044 35.807251 8 31.193562 8 29.5851124 2.86583092 29.5842994 2.86480756 29 1"></polygon>
                    <polygon id="Path" fill="#D1A982" points="34 7.99897665 33.9982772 8 31.7889187 8 29.7439184 2.86583092 29.7428846 2.86480756 29 1 32.1290056 1"></polygon>
                    <path d="M38,1 L36.8910235,5.67021488 C36.4980577,4.90045118 36.130567,4.03315927 35.383119,3.70311586 C33.5947183,2.91647883 33.8359179,4.98853022 32.3383119,5.79204068 C32.3028094,5.81127631 32.267849,5.82814974 32.2331597,5.84502308 C30.797073,6.5145589 29.922792,4.88357776 29.5851124,3.46115158 L29.5842994,3.4598017 L29,1 L38,1 Z" id="Path" fill="#EA7E5A"></path>
                    <path d="M33,5.8449021 C31.2233026,6.51480539 30.1416597,4.88341382 29.7238893,3.46092408 L29.7228834,3.45991161 L29,1 L32.0447611,1 L33,5.8449021 Z" id="Path" fill="#D64F39"></path>
                    <path d="M27,6.17923501 L27,36.1656395 C25.6905546,36.8621328 24.28897,37.3842849 22.8208849,37.7068161 C22.22425,37.8381532 21.6163981,37.9369466 21,38 L21,6.17923501 L22.7079142,2.6613192 L23.7088934,0.5991528 L23.9997329,0 L24.391792,0.807490576 L25.2920858,2.6613192 L27,6.17923501 Z" id="Path" fill="#F7D65E"></path>
                    <path d="M27,5.30626328 C26.1036569,5.74938699 25.0821248,6 23.9989323,6 C23.6041463,6 23.2163003,5.96683431 22.8407332,5.90274722 C22.1867604,5.79128051 21.5677551,5.5877977 21,5.30626328 L23.9989323,0 L23.9994661,0.000748101777 L27,5.30626328 Z" id="Path" fill="#E5D6B9"></path>
                    <path d="M25,0 L24.8532764,0.652036276 L23.4280627,6.99137468 L23.4280627,37.7068161 C22.6324786,37.8381532 21.8219373,37.9369466 21,38 L21,6.17923501 L23.2774217,2.6613192 L24.6121795,0.5991528 L25,0 Z" id="Path" fill="#D1A22A"></path>
                    <path d="M25,0.00076042739 L23.4547477,6 C22.5826288,5.88669679 21.7571415,5.67986142 21,5.39368848 L24.9992881,0 L25,0.00076042739 Z" id="Path" fill="#D1A982"></path>
                    <path d="M25,3.53697623 C24.5522481,3.83240003 24.0412403,4 23.4995349,4 C23.3013953,4 23.1072868,3.97798795 22.92,3.93473636 C22.5931783,3.86059078 22.2837209,3.72504345 22,3.53697623 L23.4995349,0 L25,3.53697623 Z" id="Path" fill="#ED5972"></path>
                    <path d="M25,0 L24.2270472,3 C23.7911497,2.94346845 23.3784119,2.84012176 23,2.69673181 L25,0 Z" id="Path" fill="#D8375A"></path>
                    <path d="M10,0 L10,35 C9.88460143,34.9310375 9.76920287,34.8595209 9.65583328,34.7874368 C9.12804345,34.4525574 8.61876808,34.0867443 8.12876808,33.6911326 C5.97423908,31.951179 4.2067391,29.648174 3,26.9745313 L3,0 L10,0 Z" id="Path" fill="#EA7E5A"></path>
                    <g id="Group" transform="translate(6.000000, 2.000000)" fill="#D64F39">
                        <polygon id="Path" points="0.0229166222 0.000285804878 3.96736107 0.000285804878 3.96736107 1.10413493 0.0229166222 1.10413493"></polygon>
                        <polygon id="Path" points="0.0229166222 3.54277822 3.96736107 3.54277822 3.96736107 4.64691307 0.0229166222 4.64691307"></polygon>
                        <polygon id="Path" points="0.0229166222 7.08527056 3.96736107 7.08527056 3.96736107 8.18940549 0.0229166222 8.18940549"></polygon>
                        <polygon id="Path" points="0.0229166222 10.627763 3.96736107 10.627763 3.96736107 11.731612 0.0229166222 11.731612"></polygon>
                        <polygon id="Path" points="0.0229166222 14.1702553 3.96736107 14.1702553 3.96736107 15.2741044 0.0229166222 15.2741044"></polygon>
                        <polygon id="Path" points="0.0229166222 17.7127477 3.96736107 17.7127477 3.96736107 18.8165968 0.0229166222 18.8165968"></polygon>
                        <polygon id="Path" points="0.0229166222 21.2552401 3.96736107 21.2552401 3.96736107 22.359375 0.0229166222 22.359375"></polygon>
                        <polygon id="Path" points="0.0229166222 24.7977325 3.96736107 24.7977325 3.96736107 25.9018674 0.0229166222 25.9018674"></polygon>
                        <polygon id="Path" points="0.0229166222 28.3402248 3.96736107 28.3402248 3.96736107 29.4443598 0.0229166222 29.4443598"></polygon>
                        <path d="M3.96770836,31.883003 L3.96770836,32.987138 L3.54479164,32.987138 C2.82222222,32.6498666 2.125,32.2814406 1.45416667,31.883003 L3.96770836,31.883003 Z" id="Path"></path>
                    </g>
                </g>
            </g>
        </g>
    </g>
</svg>