<?xml version="1.0" encoding="UTF-8"?>
<svg width="38px" height="37px" viewBox="0 0 38 37" version="1.1" xmlns="http://www.w3.org/2000/svg" xmlns:xlink="http://www.w3.org/1999/xlink">
    <!-- Generator: Sketch 53.2 (72643) - https://sketchapp.com -->
    <title>yarn-ball</title>
    <desc>Created with Sketch.</desc>
    <g id="Website" stroke="none" stroke-width="1" fill="none" fill-rule="evenodd">
        <g id="Landingpage" transform="translate(-171.000000, -469.000000)" fill-rule="nonzero">
            <g id="Group-6" transform="translate(13.000000, 469.000000)">
                <g id="yarn-ball" transform="translate(158.000000, 0.000000)">
                    <path d="M25,12.0001507 C25,18.6275854 19.6275854,24 13.0001507,24 C6.37271594,24 1,18.6275854 1,12.0001507 C1,5.37271595 6.37271594,0 13.0001507,0 C19.6275854,0 25,5.37271595 25,12.0001507 Z" id="Path" fill="#F98C96"></path>
                    <path d="M9.54184662,11.5001472 C9.54275066,6.74248031 12.4901526,2.45799061 17,0.657975203 C16.2674436,0.365476425 15.507164,0.145072331 14.7300093,0 C8.22619828,1.22119731 3.96736674,7.35984698 5.21792574,13.7112498 C6.14424349,18.4159491 9.91219296,22.0954312 14.7300093,23 C15.507164,22.8549276 16.2677449,22.6345236 17,22.3417305 C12.4901526,20.5423037 9.54275066,16.2575197 9.54184662,11.5001472 Z" id="Path" fill="#F9CAD0"></path>
                    <path d="M16.0616928,12.0000001 C16.0602852,8.52062755 17.5003052,5.21620892 20,2.96300621 C19.0951662,2.14197704 18.0723719,1.47918256 16.9707495,1 C11.2419187,3.48159809 8.49504167,10.4179514 10.834828,16.493269 C11.9730492,19.4480784 14.1844584,21.7929378 16.9707495,23 C18.0726534,22.520519 19.0951662,21.8577245 20,21.0366953 C17.5003052,18.7834926 16.0602852,15.479074 16.0616928,12.0000001 Z" id="Path" fill="#F7B2BB"></path>
                    <path d="M38,25.0001507 C38,31.6275855 32.6272841,37 25.9998493,37 C19.3724146,37 14,31.6275855 14,25.0001507 C14,18.372716 19.3724146,13 25.9998493,13 C32.6272841,13 38,18.372716 38,25.0001507 Z" id="Path" fill="#FFF69A"></path>
                    <path d="M26.4998529,28.457981 C21.7424803,28.4570769 17.4579905,25.5099254 15.6579752,21 C15.3654764,21.7322678 15.1450724,22.4925605 15,23.2697286 C16.2211973,29.7739535 22.359847,34.0328587 28.7112499,32.7819767 C33.4159492,31.855643 37.0954313,28.0879296 38,23.2697286 C37.8549277,22.4925605 37.6345236,21.7322678 37.3417305,21 C35.5420095,25.5099254 31.2575197,28.4570769 26.4998529,28.457981 L26.4998529,28.457981 Z" id="Path" fill="#F9BD55"></path>
                    <path d="M25.9998507,21.938261 C22.520824,21.9396686 19.2164502,20.4996654 16.9632781,18 C16.1422601,18.9048231 15.4794746,19.9276055 15,21.029215 C17.4815644,26.7579784 24.4181221,29.5051048 30.4930587,27.1650643 C33.4481265,26.0268566 35.7929542,23.8157549 37,21.029215 C36.5205254,19.9276055 35.8577399,18.9048231 35.0367219,18 C32.7835498,20.4996654 29.479176,21.9396686 25.9998507,21.938261 L25.9998507,21.938261 Z" id="Path" fill="#FFD782"></path>
                    <path d="M26.5994063,16.9999993 C26.2679212,16.9996972 25.9994432,16.7082449 26.0000009,16.3494413 C26.0000009,16.2129268 26.0398682,16.0797346 26.1137485,15.9691941 L33.9135472,4.26911658 C34.1078661,3.9782682 34.482843,3.91303119 34.7513209,4.12323935 C35.0200776,4.33344751 35.0802969,4.73997072 34.8862568,5.0308191 L27.0861794,16.7305946 C26.973268,16.9000296 26.7920525,17.0003013 26.5994063,16.9999993 Z" id="Path" fill="#AABECE"></path>
                    <path d="M12.2143711,37 L0.642814471,37 C0.287653521,37 0,36.7152572 0,36.3636901 C0,36.012123 0.287653521,35.7273803 0.642814471,35.7273803 L12.2143711,35.7273803 C12.5692333,35.7270846 12.8568868,35.4423418 12.8571855,35.0910704 L12.8571855,34.4544648 C12.8568868,34.1031933 12.5692333,33.8184506 12.2143711,33.818155 L8.35718549,33.818155 C7.29200133,33.818155 6.42844339,32.963631 6.42844339,31.9092254 C6.42844339,30.8548196 7.29200133,30 8.35718549,30 L17.3571855,30 C17.7120478,30 18,30.2850384 18,30.6366056 C18,30.987877 17.7120478,31.2729155 17.3571855,31.2729155 L8.35718549,31.2729155 C8.00202454,31.2729155 7.71437102,31.5576582 7.71437102,31.9092254 C7.71437102,32.2607925 8.00202454,32.5455352 8.35718549,32.5455352 L12.2143711,32.5455352 C13.2789579,32.5467179 14.1416197,33.4006505 14.1428145,34.4547605 L14.1428145,35.0910704 C14.1416197,36.1448847 13.2789579,36.9988173 12.2143711,37 L12.2143711,37 Z" id="Path" fill="#F9BD55"></path>
                    <path d="M38,3.5 C38,4.32840332 37.3285836,5 36.5001162,5 C35.6716487,5 35,4.32840332 35,3.5 C35,2.67159668 35.6716487,2 36.5001162,2 C37.3285836,2 38,2.67159668 38,3.5 Z" id="Path" fill="#F98C96"></path>
                    <path d="M3.60023413,27.9999998 C3.26890757,28.0002856 3.00027939,27.7253386 3.00000075,27.3855132 C2.9997221,27.204311 3.07746822,27.0322548 3.2123396,26.9153594 L11.0086853,20.149147 C11.2594792,19.9273602 11.6384566,19.9562268 11.8546966,20.2137395 C12.070658,20.4709666 12.0427921,20.8593792 11.7917195,21.081166 C11.7889329,21.0837384 11.7858676,21.0863106 11.7830811,21.0888829 L3.98673538,27.8548094 C3.87861528,27.9485544 3.74179334,27.9999998 3.60023413,27.9999998 L3.60023413,27.9999998 Z" id="Path" fill="#AABECE"></path>
                    <path d="M4,27.4998838 C4,28.3283513 3.32835132,29 2.49988385,29 C1.67164874,29 1,28.3283513 1,27.4998838 C1,26.6714164 1.67164874,26 2.49988385,26 C3.32835132,26 4,26.6714164 4,27.4998838 Z" id="Path" fill="#F98C96"></path>
                </g>
            </g>
        </g>
    </g>
</svg>