<?xml version="1.0" encoding="UTF-8"?>
<svg width="34px" height="34px" viewBox="0 0 34 34" version="1.1" xmlns="http://www.w3.org/2000/svg" xmlns:xlink="http://www.w3.org/1999/xlink">
    <!-- Generator: Sketch 53.2 (72643) - https://sketchapp.com -->
    <title>OrganizeEvent</title>
    <desc>Created with Sketch.</desc>
    <g id="OrganizeEvent" stroke="none" stroke-width="1" fill="none" fill-rule="evenodd">
        <g id="calendar" transform="translate(1.000000, 1.000000)" fill-rule="nonzero">
            <polygon id="Path" fill="#F05565" points="25.3793103 2.20689655 25.3793103 4.4137931 21.5172414 4.4137931 21.5172414 2.20689655 8.27586207 2.20689655 8.27586207 4.4137931 4.4137931 4.4137931 4.4137931 2.20689655 0 2.20689655 0 8.27586207 29.7931034 8.27586207 29.7931034 2.20689655"></polygon>
            <polygon id="Path" fill="#EFEBDE" points="4.4137931 8.27586207 0 8.27586207 0 32 29.7931034 32 29.7931034 8.27586207 25.3793103 8.27586207 21.5172414 8.27586207 8.27586207 8.27586207"></polygon>
            <path d="M20.4137931,12.137931 L19.3103448,12.137931 L15.4482759,12.137931 L14.3448276,12.137931 L10.4827586,12.137931 L9.37931034,12.137931 L4.4137931,12.137931 L4.4137931,17.1034483 L4.4137931,18.2068966 L4.4137931,22.0689655 L4.4137931,23.1724138 L4.4137931,28.137931 L9.37931034,28.137931 L10.4827586,28.137931 L14.3448276,28.137931 L15.4482759,28.137931 L19.3103448,28.137931 L20.4137931,28.137931 L25.3793103,28.137931 L25.3793103,23.1724138 L25.3793103,22.0689655 L25.3793103,18.2068966 L25.3793103,17.1034483 L25.3793103,12.137931 L20.4137931,12.137931 Z M15.4482759,13.2413793 L19.3103448,13.2413793 L19.3103448,17.1034483 L15.4482759,17.1034483 L15.4482759,13.2413793 Z M19.3103448,22.0689655 L15.4482759,22.0689655 L15.4482759,18.2068966 L19.3103448,18.2068966 L19.3103448,22.0689655 Z M10.4827586,18.2068966 L14.3448276,18.2068966 L14.3448276,22.0689655 L10.4827586,22.0689655 L10.4827586,18.2068966 Z M10.4827586,13.2413793 L14.3448276,13.2413793 L14.3448276,17.1034483 L10.4827586,17.1034483 L10.4827586,13.2413793 Z M5.51724138,13.2413793 L9.37931034,13.2413793 L9.37931034,17.1034483 L5.51724138,17.1034483 L5.51724138,13.2413793 Z M5.51724138,18.2068966 L9.37931034,18.2068966 L9.37931034,22.0689655 L5.51724138,22.0689655 L5.51724138,18.2068966 Z M9.37931034,27.0344828 L5.51724138,27.0344828 L5.51724138,23.1724138 L9.37931034,23.1724138 L9.37931034,27.0344828 Z M14.3448276,27.0344828 L10.4827586,27.0344828 L10.4827586,23.1724138 L14.3448276,23.1724138 L14.3448276,27.0344828 Z M19.3103448,27.0344828 L15.4482759,27.0344828 L15.4482759,23.1724138 L19.3103448,23.1724138 L19.3103448,27.0344828 Z M24.2758621,27.0344828 L20.4137931,27.0344828 L20.4137931,23.1724138 L24.2758621,23.1724138 L24.2758621,27.0344828 Z M24.2758621,22.0689655 L20.4137931,22.0689655 L20.4137931,18.2068966 L24.2758621,18.2068966 L24.2758621,22.0689655 Z M20.4137931,17.1034483 L20.4137931,13.2413793 L24.2758621,13.2413793 L24.2758621,17.1034483 L20.4137931,17.1034483 Z" id="Shape" fill="#D5D0BB"></path>
            <rect id="Rectangle" fill="#36495E" x="4.4137931" y="0" width="3.86206897" height="4.4137931"></rect>
            <rect id="Rectangle" fill="#36495E" x="21.5172414" y="0" width="3.86206897" height="4.4137931"></rect>
            <rect id="Rectangle" fill="#7F6E5D" x="10.4827586" y="18.2068966" width="3.86206897" height="3.86206897"></rect>
            <g id="Group" transform="translate(18.758621, 18.206897)">
                <circle id="Oval" fill="#71C386" cx="6.62068966" cy="6.62068966" r="6.62068966"></circle>
                <path d="M9.93103448,6.06896552 L7.17241379,6.06896552 L7.17241379,3.31034483 C7.17241379,3.0057931 6.92524138,2.75862069 6.62068966,2.75862069 C6.31613793,2.75862069 6.06896552,3.0057931 6.06896552,3.31034483 L6.06896552,6.06896552 L3.31034483,6.06896552 C3.0057931,6.06896552 2.75862069,6.31613793 2.75862069,6.62068966 C2.75862069,6.92524138 3.0057931,7.17241379 3.31034483,7.17241379 L6.06896552,7.17241379 L6.06896552,9.93103448 C6.06896552,10.2355862 6.31613793,10.4827586 6.62068966,10.4827586 C6.92524138,10.4827586 7.17241379,10.2355862 7.17241379,9.93103448 L7.17241379,7.17241379 L9.93103448,7.17241379 C10.2355862,7.17241379 10.4827586,6.92524138 10.4827586,6.62068966 C10.4827586,6.31613793 10.2355862,6.06896552 9.93103448,6.06896552 Z" id="Path" fill="#FFFFFF"></path>
            </g>
        </g>
    </g>
</svg>