<?xml version="1.0" encoding="UTF-8"?>
<svg width="34px" height="34px" viewBox="0 0 34 34" version="1.1" xmlns="http://www.w3.org/2000/svg" xmlns:xlink="http://www.w3.org/1999/xlink">
    <!-- Generator: Sketch 53.2 (72643) - https://sketchapp.com -->
    <title>Volunteer</title>
    <desc>Created with Sketch.</desc>
    <g id="Volunteer" stroke="none" stroke-width="1" fill="none" fill-rule="evenodd">
        <g id="volunteer" transform="translate(1.000000, 1.000000)" fill-rule="nonzero">
            <polygon id="Path" fill="#FCB143" points="6.456 18.2929375 13.5233125 18.2929375 13.5233125 32 6.456 32"></polygon>
            <polygon id="Path" fill="#FA9801" points="6.456 18.2929375 13.5233125 18.2929375 13.5233125 20.4035 6.456 20.4035"></polygon>
            <polygon id="Path" fill="#FA9801" points="6.456 18.2929375 8.4095625 18.2929375 8.4095625 32 6.456 32"></polygon>
            <path d="M18.317375,7.08425 L17.339,8.062625 C15.8,9.601625 14.6465625,11.483 13.9729375,13.55275 L13.348,15.474 L6.8490625,15.474 C6.5078125,15.474 6.192,15.366 5.9333125,15.182625 L5.93275,15.182625 L0.670875,11.4614375 C-0.02825,10.96725 -0.206125,10.0121875 0.2570625,9.301375 C0.268125,9.2841875 0.27975,9.267 0.2914375,9.2504375 C0.79725,8.5346875 1.78725,8.365125 2.503,8.8709375 L5.2015,10.7794375 C5.0890625,9.5356875 4.8186875,8.3091875 4.396,7.1296875 L3.081875,3.4660625 C2.7860625,2.6411875 3.2143125,1.732625 4.0391875,1.43675 C4.8640625,1.1409375 5.772625,1.5696875 6.0679375,2.394625 L7.5465625,6.51525 L7.5465625,1.586375 C7.5465625,0.7238125 8.234625,0.021875 9.0916875,0.0008125 C9.095,0.00025 9.098875,0.00025 9.1021875,0.00025 C9.991375,-0.016375 10.7193125,0.732625 10.7193125,1.622375 L10.7193125,6.623875 L12.2161875,1.955875 C12.482125,1.1270625 13.36575,0.668375 14.1950625,0.924875 C14.200625,0.9265625 14.2055625,0.9281875 14.211125,0.929875 C15.0454375,1.1974375 15.50525,2.0905 15.2376875,2.9248125 L13.938,6.9761875 L16.0736875,4.8405 C16.693625,4.221125 17.698,4.221125 18.317375,4.8405 C18.9373125,5.4599375 18.9373125,6.464875 18.317375,7.08425 Z" id="Path" fill="#D38678"></path>
            <g id="Group" fill="#C86E57">
                <path d="M18.317375,4.8405625 C17.8951875,4.418375 16.395625,5.956 15.4655625,7 C15.055625,7.460125 14.3330625,7.44925 13.938,6.97625 L16.0736875,4.8405625 C16.693625,4.2211875 17.698,4.2211875 18.317375,4.8405625 L18.317375,4.8405625 Z" id="Path"></path>
                <path d="M14.195125,0.924875 C13.5655,0.7723125 12.483875,4.308625 11.9648125,6.1548125 C11.814,6.69125 11.186625,6.9274375 10.7193125,6.623875 L12.2161875,1.955875 C12.482125,1.127125 13.36575,0.668375 14.195125,0.924875 Z" id="Path"></path>
                <path d="M7.5465625,6.5153125 L7.5465625,1.586375 C7.5465625,0.7238125 8.234625,0.021875 9.0916875,0.0008125 C8.6215,0.0555625 8.5796875,3.8481875 8.58925,5.792875 C8.591875,6.3330625 8.0515625,6.7071875 7.5465625,6.5153125 L7.5465625,6.5153125 Z" id="Path"></path>
                <path d="M13.9729375,13.55275 L13.348,15.474 L10.6116875,16.3614375 L6.8490625,15.474 C6.5078125,15.474 6.192,15.366 5.9333125,15.182625 L5.93275,15.182625 L0.670875,11.4614375 C-0.02825,10.96725 -0.206125,10.0121875 0.2570625,9.301375 C-0.1435,10.262 8.58475,16.132125 13.9729375,13.55275 Z" id="Path"></path>
            </g>
            <polygon id="Path" fill="#FCB143" points="6.2269375 15.4739375 13.699125 15.4739375 13.699125 19.552375 6.2269375 19.552375"></polygon>
            <polygon id="Path" fill="#FA9801" points="6.2269375 15.4739375 8.8183125 15.4739375 8.8183125 19.552375 6.2269375 19.552375"></polygon>
            <path d="M10.2384375,11.605625 C9.0333125,10.0656875 7.524375,9.7250625 6.461375,9.712625 C5.6859375,7.6730625 3.483625,1.7295625 4.0391875,1.4368125 C3.21425,1.732625 2.786,2.6411875 3.081875,3.466125 L4.3959375,7.1296875 C4.818625,8.309125 5.089,9.5356875 5.2014375,10.7794375 C5.2014375,10.7794375 5.440875,10.6505625 5.660375,10.6114375 C6.5591875,10.4513125 8.2651875,10.4425 9.5791875,12.1215 C9.6616875,12.227 9.78475,12.282125 9.9090625,12.282125 C9.99925,12.2820625 10.090125,12.2530625 10.1666875,12.193125 C10.3488125,12.0506875 10.380875,11.7876875 10.2384375,11.605625 L10.2384375,11.605625 Z" id="Path" fill="#C86E57"></path>
            <polygon id="Path" fill="#0A93A3" points="19.6735 28.090625 26.7408125 28.090625 26.7408125 32 19.6735 32"></polygon>
            <polygon id="Path" fill="#046B74" points="19.6735 28.090625 26.7408125 28.090625 26.7408125 30.2011875 19.6735 30.2011875"></polygon>
            <polygon id="Path" fill="#046B74" points="19.6735 28.090625 21.6270625 28.090625 21.6270625 32 19.6735 32"></polygon>
            <path d="M31.5349375,16.881875 L30.5565625,17.86025 C29.0175625,19.39925 27.864125,21.280625 27.1905,23.350375 L26.5655625,25.271625 L20.066625,25.271625 C19.725375,25.271625 19.4095625,25.163625 19.150875,24.98025 L19.1503125,24.98025 L13.8884375,21.2590625 C13.1893125,20.764875 13.0114375,19.8098125 13.474625,19.099 C13.4856875,19.0818125 13.4973125,19.064625 13.509,19.0480625 C14.0148125,18.3323125 15.0048125,18.16275 15.7205625,18.6685625 L18.4190625,20.5770625 C18.306625,19.3333125 18.03625,18.1068125 17.6135625,16.9273125 L16.2995,13.26375 C16.0036875,12.438875 16.431875,11.5303125 17.2568125,11.2344375 C18.0816875,10.938625 18.99025,11.367375 19.2855625,12.1923125 L20.7641875,16.3129375 L20.7641875,11.384 C20.7641875,10.5214375 21.45225,9.8195 22.30925,9.7984375 C22.3125625,9.797875 22.3164375,9.797875 22.31975,9.797875 C23.2089375,9.78125 23.936875,10.53025 23.936875,11.42 L23.936875,16.4215 L25.43375,11.7535 C25.6996875,10.9246875 26.5833125,10.466 27.412625,10.7225 C27.4181875,10.7241875 27.423125,10.7258125 27.4286875,10.7275 C28.263,10.9950625 28.7228125,11.888125 28.45525,12.7224375 L27.1555625,16.7738125 L29.29125,14.638125 C29.9111875,14.01875 30.9155625,14.01875 31.5349375,14.638125 C32.154875,15.2575625 32.154875,16.2625 31.5349375,16.881875 L31.5349375,16.881875 Z" id="Path" fill="#FCD0A3"></path>
            <path d="M31.5349375,14.6381875 C31.11275,14.216 29.6131875,15.753625 28.683125,16.797625 C28.2731875,17.25775 27.550625,17.246875 27.1555625,16.773875 L29.29125,14.6381875 C29.9111875,14.0188125 30.9155625,14.0188125 31.5349375,14.6381875 Z" id="Path" fill="#FFB983"></path>
            <path d="M27.412625,10.7225625 C26.783,10.57 25.701375,14.1063125 25.1823125,15.9525 C25.0315,16.4889375 24.404125,16.725125 23.9368125,16.4215625 L25.4336875,11.7535625 C25.6996875,10.92475 26.5833125,10.4660625 27.412625,10.7225625 Z" id="Path" fill="#FFB983"></path>
            <path d="M20.764125,16.3129375 L20.764125,11.384 C20.764125,10.5214375 21.4521875,9.8195 22.3091875,9.7984375 C21.839,9.8531875 21.7971875,13.6458125 21.80675,15.5904375 C21.809375,16.1306875 21.2690625,16.5048125 20.764125,16.3129375 Z" id="Path" fill="#FFB983"></path>
            <path d="M27.1905,23.350375 L26.5655625,25.271625 L23.302625,26.7239375 L20.066625,25.271625 C19.725375,25.271625 19.4095625,25.163625 19.150875,24.98025 L19.1503125,24.98025 L13.8884375,21.2590625 C13.1893125,20.764875 13.0114375,19.8098125 13.474625,19.099 C13.0740625,20.059625 21.8023125,25.92975 27.1905,23.350375 L27.1905,23.350375 Z" id="Path" fill="#FFB983"></path>
            <polygon id="Path" fill="#0A93A3" points="19.4444375 25.2715625 26.916625 25.2715625 26.916625 29.35 19.4444375 29.35"></polygon>
            <polygon id="Path" fill="#046B74" points="19.4444375 25.2715625 22.0358125 25.2715625 22.0358125 29.35 19.4444375 29.35"></polygon>
            <path d="M23.456,21.4033125 C22.250875,19.863375 20.7419375,19.52275 19.6789375,19.5103125 C18.9034375,17.47075 16.7011875,11.52725 17.25675,11.2344375 C16.4318125,11.53025 16.0035625,12.4388125 16.2994375,13.26375 L17.6135,16.9273125 C18.0361875,18.10675 18.3065625,19.3333125 18.419,20.5770625 C18.419,20.5770625 18.6584375,20.4481875 18.8779375,20.4090625 C19.77675,20.2489375 21.48275,20.240125 22.79675,21.919125 C22.87925,22.024625 23.0023125,22.07975 23.126625,22.07975 C23.2168125,22.0796875 23.3076875,22.0506875 23.38425,21.99075 C23.566375,21.8483125 23.5984375,21.5853125 23.456,21.4033125 L23.456,21.4033125 Z" id="Path" fill="#FFB983"></path>
        </g>
    </g>
</svg>