<?xml version="1.0" encoding="UTF-8"?>
<svg width="38px" height="38px" viewBox="0 0 38 38" version="1.1" xmlns="http://www.w3.org/2000/svg" xmlns:xlink="http://www.w3.org/1999/xlink">
    <!-- Generator: Sketch 53.2 (72643) - https://sketchapp.com -->
    <title>laser-cutting-machine</title>
    <desc>Created with Sketch.</desc>
    <g id="Website" stroke="none" stroke-width="1" fill="none" fill-rule="evenodd">
        <g id="Landingpage" transform="translate(-115.000000, -469.000000)" fill-rule="nonzero">
            <g id="Group-6" transform="translate(13.000000, 469.000000)">
                <g id="laser-cutting-machine" transform="translate(102.000000, 0.000000)">
                    <g id="Icons" transform="translate(1.000000, 1.000000)">
                        <path d="M5.5862069,31.6551724 L5.5862069,36 L0.620689655,36 C0.277892224,36 0,35.7221077 0,35.3793103 L0,31.6551724 L5.5862069,31.6551724 Z" id="Shape" fill="#783E22"></path>
                        <path d="M3.72413793,31.6551724 L3.72413793,36 L0.620689655,36 C0.277892224,36 0,35.7221077 0,35.3793103 L0,31.6551724 L3.72413793,31.6551724 Z" id="Shape" fill="#A0522D"></path>
                        <path d="M36,31.6551724 L36,35.3793103 C36,35.7221077 35.7221077,36 35.3793103,36 L30.4137931,36 L30.4137931,31.6551724 L36,31.6551724 Z" id="Shape" fill="#783E22"></path>
                        <path d="M34.137931,31.6551724 L34.137931,35.3793103 C34.137931,35.7221077 33.8600388,36 33.5172414,36 L30.4137931,36 L30.4137931,31.6551724 L34.137931,31.6551724 Z" id="Shape" fill="#A0522D"></path>
                        <path d="M31.0344828,9.31034483 L26.8696552,16.4482759 C26.7594503,16.6391656 26.5562759,16.7572902 26.3358621,16.7586207 L22.077931,16.7586207 C21.8575172,16.7572902 21.6543428,16.6391656 21.5441379,16.4482759 L17.3793103,9.31034483 L31.0344828,9.31034483 Z" id="Shape" fill="#707070"></path>
                        <path d="M29.1724138,9.31034483 L25.0075862,16.4482759 C24.8973813,16.6391656 24.6942069,16.7572902 24.4737931,16.7586207 L22.077931,16.7586207 C21.8575172,16.7572902 21.6543428,16.6391656 21.5441379,16.4482759 L17.3793103,9.31034483 L29.1724138,9.31034483 Z" id="Shape" fill="#9E9E9E"></path>
                        <polygon id="Rectangle-path" fill="#283593" points="17.3793103 5.5862069 31.0344828 5.5862069 31.0344828 9.31034483 17.3793103 9.31034483"></polygon>
                        <polygon id="Rectangle-path" fill="#3F51B5" points="17.3793103 5.5862069 29.1724138 5.5862069 29.1724138 9.31034483 17.3793103 9.31034483"></polygon>
                        <rect id="Rectangle-path" fill="#0377BC" x="14.2758621" y="0" width="19.862069" height="5.5862069" rx="2.79310345"></rect>
                        <rect id="Rectangle-path" fill="#02A9F4" x="14.2758621" y="0" width="18" height="5.5862069" rx="2.79310345"></rect>
                    </g>
                    <g id="Layer_10" fill="#000000">
                        <path d="M36.1,1.26666667 C36.1,0.567105983 35.532894,0 34.8333333,0 L15.8333333,0 C15.1337726,0 14.5666667,0.567105983 14.5666667,1.26666667 L14.5666667,5.7 C14.5666667,6.39956068 15.1337726,6.96666667 15.8333333,6.96666667 L17.7333333,6.96666667 C17.7333333,10.336 17.7333333,10.2093333 17.7966667,10.4056667 C17.86,10.602 18.7973333,12.1346667 22.0716667,17.7333333 C22.2965662,18.1228898 22.7111927,18.3639516 23.161,18.3666667 L24.7,18.3666667 L24.7,21.5333333 C24.7,21.8831136 24.983553,22.1666667 25.3333333,22.1666667 C25.6831136,22.1666667 25.9666667,21.8831136 25.9666667,21.5333333 L25.9666667,18.3666667 L27.5056667,18.3666667 C27.955474,18.3639516 28.3701004,18.1228898 28.595,17.7333333 C31.8693333,12.1283333 32.813,10.5133333 32.87,10.3993333 C32.927,10.2853333 32.9333333,10.3993333 32.9333333,6.96033333 L34.8333333,6.96033333 C35.532894,6.96033333 36.1,6.39322735 36.1,5.69366667 L36.1,1.26666667 Z M31.6666667,9.5 L24.7,9.5 C24.3502197,9.5 24.0666667,9.78355302 24.0666667,10.1333333 C24.0666667,10.4831136 24.3502197,10.7666667 24.7,10.7666667 L31.198,10.7666667 L27.5056667,17.1 L23.161,17.1 L19.4686667,10.7666667 L21.5333333,10.7666667 C21.8831136,10.7666667 22.1666667,10.4831136 22.1666667,10.1333333 C22.1666667,9.78355302 21.8831136,9.5 21.5333333,9.5 L19,9.5 L19,6.96666667 L31.6666667,6.96666667 L31.6666667,9.5 Z M34.8333333,5.7 L15.8333333,5.7 L15.8333333,1.26666667 L17.1,1.26666667 L17.1,2.53333333 C17.1,2.88311368 17.383553,3.16666667 17.7333333,3.16666667 C18.0831136,3.16666667 18.3666667,2.88311368 18.3666667,2.53333333 L18.3666667,1.26666667 L19.6333333,1.26666667 L19.6333333,2.53333333 C19.6333333,2.88311368 19.9168864,3.16666667 20.2666667,3.16666667 C20.616447,3.16666667 20.9,2.88311368 20.9,2.53333333 L20.9,1.26666667 L22.1666667,1.26666667 L22.1666667,2.53333333 C22.1666667,2.88311368 22.4502197,3.16666667 22.8,3.16666667 C23.1497803,3.16666667 23.4333333,2.88311368 23.4333333,2.53333333 L23.4333333,1.26666667 L24.7,1.26666667 L24.7,2.53333333 C24.7,2.88311368 24.983553,3.16666667 25.3333333,3.16666667 C25.6831136,3.16666667 25.9666667,2.88311368 25.9666667,2.53333333 L25.9666667,1.26666667 L27.2333333,1.26666667 L27.2333333,2.53333333 C27.2333333,2.88311368 27.5168864,3.16666667 27.8666667,3.16666667 C28.216447,3.16666667 28.5,2.88311368 28.5,2.53333333 L28.5,1.26666667 L29.7666667,1.26666667 L29.7666667,2.53333333 C29.7666667,2.88311368 30.0502197,3.16666667 30.4,3.16666667 C30.7497803,3.16666667 31.0333333,2.88311368 31.0333333,2.53333333 L31.0333333,1.26666667 L32.3,1.26666667 L32.3,2.53333333 C32.3,2.88311368 32.583553,3.16666667 32.9333333,3.16666667 C33.2831136,3.16666667 33.5666667,2.88311368 33.5666667,2.53333333 L33.5666667,1.26666667 L34.8333333,1.26666667 L34.8333333,5.7 Z" id="Shape"></path>
                        <path d="M25.9666667,24.0666667 C25.9666667,23.7168864 25.6831136,23.4333333 25.3333333,23.4333333 C24.983553,23.4333333 24.7,23.7168864 24.7,24.0666667 L24.7,31.0333333 C24.7,31.3831136 24.983553,31.6666667 25.3333333,31.6666667 C25.6831136,31.6666667 25.9666667,31.3831136 25.9666667,31.0333333 L25.9666667,24.0666667 Z" id="Shape"></path>
                        <path d="M16.4666667,33.5666667 C16.1168864,33.5666667 15.8333333,33.8502197 15.8333333,34.2 C15.8333333,34.5497803 16.1168864,34.8333333 16.4666667,34.8333333 L22.1666667,34.8333333 C22.516447,34.8333333 22.8,34.5497803 22.8,34.2 C22.8,33.8502197 22.516447,33.5666667 22.1666667,33.5666667 L16.4666667,33.5666667 Z" id="Shape"></path>
                        <path d="M28.0756667,33.25 C28.3163333,33.25 27.987,33.402 33.326,30.3176667 C33.5228534,30.2045326 33.644397,29.9949723 33.6448467,29.7679253 C33.6452963,29.5408782 33.5245837,29.3308382 33.32818,29.2169253 C33.1317763,29.1030123 32.88952,29.1025326 32.6926667,29.2156667 L27.759,32.0656667 C27.5080653,32.2078615 27.3848975,32.5016413 27.4593988,32.7802757 C27.5338999,33.0589102 27.7872512,33.2520165 28.0756667,33.25 L28.0756667,33.25 Z" id="Shape"></path>
                        <path d="M30.0833333,25.9666667 C29.937335,25.8820882 29.7636227,25.8592637 29.600731,25.9032563 C29.4378394,25.9472489 29.2992358,26.0544215 29.2156667,26.201 L26.3656667,31.1346667 C26.2523051,31.3310104 26.2525441,31.5729737 26.3662934,31.7690931 C26.4800427,31.9652126 26.689949,32.0855688 26.9166667,32.0846667 C27.1438337,32.0855685 27.354084,31.964735 27.4676667,31.768 L30.3176667,26.8343333 C30.4022452,26.688335 30.4250697,26.5146227 30.3810771,26.351731 C30.3370844,26.1888394 30.2299118,26.0502358 30.0833333,25.9666667 L30.0833333,25.9666667 Z" id="Shape"></path>
                        <path d="M23.75,32.091 C23.9767177,32.0919022 24.186624,31.9715459 24.3003733,31.7754265 C24.4141225,31.5793071 24.4143615,31.3373438 24.301,31.141 L21.451,26.2073333 C21.3378659,26.01048 21.1283056,25.8889363 20.9012586,25.8884867 C20.6742116,25.888037 20.4641715,26.0087496 20.3502586,26.2051533 C20.2363457,26.401557 20.2358659,26.6438133 20.349,26.8406667 L23.199,31.7743333 C23.3125826,31.9710683 23.522833,32.0919019 23.75,32.091 L23.75,32.091 Z" id="Shape"></path>
                        <path d="M22.9076667,32.0656667 L17.974,29.2156667 C17.7771466,29.1025326 17.5348904,29.1030124 17.3384867,29.2169253 C17.142083,29.3308382 17.0213703,29.5408783 17.02182,29.7679253 C17.0222697,29.9949723 17.1438133,30.2045326 17.3406667,30.3176667 C22.6606667,33.3893333 22.3503333,33.25 22.591,33.25 C22.8794155,33.2520165 23.1327668,33.0589102 23.2072679,32.7802757 C23.2817691,32.5016413 23.1586014,32.2078615 22.9076667,32.0656667 L22.9076667,32.0656667 Z" id="Shape"></path>
                        <path d="M37.3666667,32.3 L32.3,32.3 C31.6004393,32.3 31.0333333,32.867106 31.0333333,33.5666667 L31.0333333,36.7333333 L6.96666667,36.7333333 L6.96666667,33.5666667 C6.96666667,32.867106 6.39956068,32.3 5.7,32.3 L0.633333333,32.3 C0.283552992,32.3 0,32.583553 0,32.9333333 C0,33.2831136 0.283552992,33.5666667 0.633333333,33.5666667 L5.7,33.5666667 L5.7,36.7333333 C5.7,37.432894 6.26710598,38 6.96666667,38 L31.0333333,38 C31.732894,38 32.3,37.432894 32.3,36.7333333 L32.3,33.5666667 L37.3666667,33.5666667 C37.716447,33.5666667 38,33.2831136 38,32.9333333 C38,32.583553 37.716447,32.3 37.3666667,32.3 Z" id="Shape"></path>
                        <circle id="Oval" cx="25.3333333" cy="34.2" r="1"></circle>
                        <circle id="Oval" cx="15.2" cy="28.5" r="1"></circle>
                        <circle id="Oval" cx="35.4666667" cy="28.5" r="1"></circle>
                        <path d="M10.3486667,27.7083333 C11.7546667,28.975 11.7546667,30.5773333 10.3486667,31.825 C10.1041468,32.0598636 10.0879573,32.4456352 10.3119392,32.7001601 C10.5359212,32.9546851 10.9206205,32.9876746 11.1846667,32.775 C13.1543333,31.0206667 13.1606667,28.5126667 11.1846667,26.7583333 C9.77866667,25.4916667 9.77866667,23.8893333 11.1846667,22.6416667 C11.3660159,22.4955999 11.4525841,22.2617981 11.4100889,22.03285 C11.3675939,21.8039019 11.2028903,21.6167388 10.9812031,21.5454797 C10.7595159,21.4742206 10.5166051,21.5303603 10.3486667,21.6916667 C8.379,23.4333333 8.37266667,25.9666667 10.3486667,27.7083333 Z" id="Shape"></path>
                        <path d="M13.1416667,14.1486667 C12.9106534,13.8866539 12.5111179,13.8611516 12.2486667,14.0916667 C10.279,15.846 10.2726667,18.354 12.2486667,20.1083333 C13.6546667,21.375 13.6546667,22.9773333 12.2486667,24.225 C12.0041468,24.4598636 11.9879573,24.8456352 12.2119392,25.1001601 C12.4359212,25.3546851 12.8206205,25.3876746 13.0846667,25.175 C15.0543333,23.4206667 15.0606667,20.9126667 13.0846667,19.1583333 C11.6786667,17.8916667 11.6786667,16.2893333 13.0846667,15.0416667 C13.3466795,14.8106534 13.3721817,14.4111179 13.1416667,14.1486667 Z" id="Shape"></path>
                    </g>
                </g>
            </g>
        </g>
    </g>
</svg>