<?xml version="1.0" encoding="UTF-8"?>
<svg width="37px" height="37px" viewBox="0 0 37 37" version="1.1" xmlns="http://www.w3.org/2000/svg" xmlns:xlink="http://www.w3.org/1999/xlink">
    <!-- Generator: Sketch 53.2 (72643) - https://sketchapp.com -->
    <title>programming</title>
    <desc>Created with Sketch.</desc>
    <g id="Website" stroke="none" stroke-width="1" fill="none" fill-rule="evenodd">
        <g id="Landingpage" transform="translate(-13.000000, -469.000000)" fill-rule="nonzero">
            <g id="Group-6" transform="translate(13.000000, 469.000000)">
                <g id="programming">
                    <path d="M36,33 L36,33.6 C36,34.926 34.8889655,36 33.5172414,36 L2.48275862,36 C1.11103448,36 0,34.926 0,33.6 L0,33 L13.0344828,33 L13.6551724,33.6 L22.3448276,33.6 L22.9655172,33 L36,33 Z" id="Path" fill="#8360F4"></path>
                    <polygon id="Path" fill="#6599ED" points="32.2758621 24 36 33.4117647 22.9655172 33.4117647 22.3448276 34 13.6551724 34 13.0344828 33.4117647 0 33.4117647 3.72413793 24"></polygon>
                    <path d="M32,3.48648649 L32,24 L4,24 L4,3.48648649 C4,2.1127027 5.08956522,1 6.43478261,1 L29.5652174,1 C30.9104348,1 32,2.1127027 32,3.48648649 Z" id="Path" fill="#6599ED"></path>
                    <polygon id="Path" fill="#F6DB40" points="7 3 30 3 30 21 7 21"></polygon>
                    <g id="Group" fill="#1A1A1A">
                        <path d="M3.08333333,37 L33.9166667,37 C35.6168167,37 37,35.6168167 37,33.9166667 L37,33.3 L36.9956833,33.3 C36.9956833,33.2272333 36.98705,33.15385 36.96115,33.08355 L33.3,23.3211 L33.3,3.08333333 C33.3,1.38318333 31.9168167,0 30.2166667,0 L6.78333333,0 C5.08318333,0 3.7,1.38318333 3.7,3.08333333 L3.7,23.3211 L0.0394666667,33.08355 C0.01295,33.15385 0.00431666667,33.2272333 0.00431666667,33.3 L7.10542736e-15,33.3 L7.10542736e-15,33.9166667 C7.10542736e-15,35.6168167 1.38318333,37 3.08333333,37 Z M33.9166667,35.7666667 L3.08333333,35.7666667 C2.06336667,35.7666667 1.23333333,34.9366333 1.23333333,33.9166667 L13.3113667,33.9166667 L13.74735,34.35265 C13.8632833,34.4685833 14.0199167,34.5333333 14.1833333,34.5333333 L22.8166667,34.5333333 C22.9800833,34.5333333 23.1373333,34.4685833 23.25265,34.35265 L23.6886333,33.9166667 L35.7666667,33.9166667 C35.7666667,34.9366333 34.9366333,35.7666667 33.9166667,35.7666667 Z M6.78333333,1.23333333 L30.2166667,1.23333333 C31.2366333,1.23333333 32.0666667,2.06336667 32.0666667,3.08333333 L32.0666667,22.8166667 L4.93333333,22.8166667 L4.93333333,3.08333333 C4.93333333,2.06336667 5.76336667,1.23333333 6.78333333,1.23333333 Z M4.74401667,24.05 L32.2559833,24.05 L35.4934833,32.6833333 L23.4333333,32.6833333 C23.2699167,32.6833333 23.1126667,32.7480833 22.99735,32.8640167 L22.5613667,33.3 L14.4386333,33.3 L14.00265,32.8640167 C13.8873333,32.7480833 13.7300833,32.6833333 13.5666667,32.6833333 L1.50651667,32.6833333 L4.74401667,24.05 Z" id="Shape"></path>
                        <polygon id="Path" points="4.31666667 30.2166667 6.78333333 30.2166667 6.78333333 31.45 4.31666667 31.45"></polygon>
                        <polygon id="Path" points="8.63333333 30.2166667 11.1 30.2166667 11.1 31.45 8.63333333 31.45"></polygon>
                        <polygon id="Path" points="12.95 30.2166667 24.05 30.2166667 24.05 31.45 12.95 31.45"></polygon>
                        <polygon id="Path" points="25.9 30.2166667 28.3666667 30.2166667 28.3666667 31.45 25.9 31.45"></polygon>
                        <polygon id="Path" points="30.2166667 30.2166667 32.6833333 30.2166667 32.6833333 31.45 30.2166667 31.45"></polygon>
                        <polygon id="Path" points="4.93333333 27.75 8.63333333 27.75 8.63333333 28.9833333 4.93333333 28.9833333"></polygon>
                        <polygon id="Path" points="10.4833333 27.75 12.95 27.75 12.95 28.9833333 10.4833333 28.9833333"></polygon>
                        <polygon id="Path" points="14.8 27.75 17.2666667 27.75 17.2666667 28.9833333 14.8 28.9833333"></polygon>
                        <polygon id="Path" points="19.1166667 27.75 21.5833333 27.75 21.5833333 28.9833333 19.1166667 28.9833333"></polygon>
                        <polygon id="Path" points="23.4333333 27.75 25.9 27.75 25.9 28.9833333 23.4333333 28.9833333"></polygon>
                        <polygon id="Path" points="27.75 27.75 32.0666667 27.75 32.0666667 28.9833333 27.75 28.9833333"></polygon>
                        <polygon id="Path" points="8.63333333 25.2833333 9.86666667 25.2833333 9.86666667 26.5166667 8.63333333 26.5166667"></polygon>
                        <polygon id="Path" points="6.16666667 25.2833333 7.4 25.2833333 7.4 26.5166667 6.16666667 26.5166667"></polygon>
                        <polygon id="Path" points="11.7166667 25.2833333 14.1833333 25.2833333 14.1833333 26.5166667 11.7166667 26.5166667"></polygon>
                        <polygon id="Path" points="16.0333333 25.2833333 18.5 25.2833333 18.5 26.5166667 16.0333333 26.5166667"></polygon>
                        <polygon id="Path" points="20.35 25.2833333 22.8166667 25.2833333 22.8166667 26.5166667 20.35 26.5166667"></polygon>
                        <polygon id="Path" points="24.6666667 25.2833333 27.1333333 25.2833333 27.1333333 26.5166667 24.6666667 26.5166667"></polygon>
                        <polygon id="Path" points="28.9833333 25.2833333 31.45 25.2833333 31.45 26.5166667 28.9833333 26.5166667"></polygon>
                        <path d="M6.78333333,21.5833333 L30.2166667,21.5833333 C30.5570667,21.5833333 30.8333333,21.3070667 30.8333333,20.9666667 L30.8333333,3.08333333 C30.8333333,2.74293333 30.5570667,2.46666667 30.2166667,2.46666667 L6.78333333,2.46666667 C6.44293333,2.46666667 6.16666667,2.74293333 6.16666667,3.08333333 L6.16666667,20.9666667 C6.16666667,21.3070667 6.44293333,21.5833333 6.78333333,21.5833333 Z M7.4,3.7 L29.6,3.7 L29.6,20.35 L7.4,20.35 L7.4,3.7 Z" id="Shape"></path>
                        <path d="M10.6640167,5.11401667 L8.81401667,6.96401667 C8.5729,7.20513333 8.5729,7.59486667 8.81401667,7.83598333 L10.6640167,9.68598333 L11.5359833,8.81401667 L10.1219667,7.4 L11.5359833,5.98598333 L10.6640167,5.11401667 Z" id="Path"></path>
                        <path d="M17.70265,5.11401667 L16.8306833,5.98598333 L18.2447,7.4 L16.8306833,8.81401667 L17.70265,9.68598333 L19.55265,7.83598333 C19.7937667,7.59486667 19.7937667,7.20513333 19.55265,6.96401667 L17.70265,5.11401667 Z" id="Path"></path>
                        <path d="M18.6806833,13.74735 L16.8306833,15.59735 C16.5895667,15.8384667 16.5895667,16.2282 16.8306833,16.4693167 L18.6806833,18.3193167 L19.55265,17.44735 L18.1386333,16.0333333 L19.55265,14.6193167 L18.6806833,13.74735 Z" id="Path"></path>
                        <path d="M25.7193167,13.74735 L24.84735,14.6193167 L26.2613667,16.0333333 L24.84735,17.44735 L25.7193167,18.3193167 L27.5693167,16.4693167 C27.8104333,16.2282 27.8104333,15.8384667 27.5693167,15.59735 L25.7193167,13.74735 Z" id="Path"></path>
                        <polygon id="Path" transform="translate(21.879642, 16.039500) rotate(-63.434949) translate(-21.879642, -16.039500) " points="19.8123295 15.4231279 23.9469538 15.4231279 23.9469538 16.6558721 19.8123295 16.6558721"></polygon>
                        <polygon id="Path" points="14.8 17.2666667 16.0333333 17.2666667 16.0333333 18.5 14.8 18.5"></polygon>
                        <polygon id="Path" points="12.3333333 17.2666667 13.5666667 17.2666667 13.5666667 18.5 12.3333333 18.5"></polygon>
                        <polygon id="Path" points="9.86666667 17.2666667 11.1 17.2666667 11.1 18.5 9.86666667 18.5"></polygon>
                        <path d="M23.4333333,8.01666667 L22.2,8.01666667 L22.2,9.25 L22.8166667,9.25 L22.8166667,11.1 L24.05,11.1 L24.05,8.63333333 C24.05,8.29293333 23.7737333,8.01666667 23.4333333,8.01666667 Z" id="Path"></path>
                        <polygon id="Path" points="22.2 5.55 23.4333333 5.55 23.4333333 6.78333333 22.2 6.78333333"></polygon>
                    </g>
                </g>
            </g>
        </g>
    </g>
</svg>