<?xml version="1.0" encoding="UTF-8"?>
<svg width="32px" height="32px" viewBox="0 0 32 32" version="1.1" xmlns="http://www.w3.org/2000/svg" xmlns:xlink="http://www.w3.org/1999/xlink">
    <!-- Generator: Sketch 53.2 (72643) - https://sketchapp.com -->
    <title>consensus</title>
    <desc>Created with Sketch.</desc>
    <g id="consensus" stroke="none" stroke-width="1" fill="none" fill-rule="evenodd">
        <g id="speech-bubbles-comment-option" transform="translate(0.000000, 3.000000)" fill="#FFFFFF" fill-rule="nonzero">
            <path d="M18.8704375,17.0500625 C20.8033125,16.2351875 22.3291875,15.126 23.4473125,13.7220625 C24.5653125,12.3184375 25.124375,10.789875 25.124375,9.1363125 C25.124375,7.4826875 24.5653125,5.954 23.446875,4.5503125 C22.328875,3.146625 20.80325,2.0373125 18.870125,1.22225 C16.937,0.4073125 14.8344375,-1.95399252e-14 12.562125,-1.95399252e-14 C10.29,-1.95399252e-14 8.1874375,0.4075625 6.2541875,1.22225 C4.321125,2.03725 2.7954375,3.1465625 1.677375,4.5503125 C0.5591875,5.95425 -7.10542736e-15,7.4826875 -7.10542736e-15,9.136375 C-7.10542736e-15,10.551875 0.4229375,11.8848125 1.2675,13.133875 C2.112,14.3826875 3.2719375,15.4356875 4.7469375,16.2920625 C4.6280625,16.5778125 4.506125,16.8391875 4.3811875,17.0774375 C4.2561875,17.3153125 4.107625,17.544125 3.935,17.764375 C3.7625,17.9846875 3.6288125,18.1570625 3.5335625,18.2815625 C3.438375,18.4064375 3.28375,18.5823125 3.0695,18.8079375 C2.8553125,19.034 2.7184375,19.1826875 2.6590625,19.253875 C2.6590625,19.2419375 2.63525,19.268875 2.587625,19.3343125 C2.5399375,19.39975 2.5131875,19.4293125 2.5073125,19.42375 C2.5013125,19.4173125 2.4775,19.4470625 2.435875,19.5125 C2.39425,19.578 2.373375,19.6106875 2.373375,19.6106875 L2.3286875,19.699625 C2.3110625,19.7355625 2.2989375,19.7706875 2.2930625,19.806625 C2.2870625,19.8420625 2.2840625,19.881 2.2840625,19.9225 C2.2840625,19.964 2.2899375,20.0025 2.3020625,20.038375 C2.325875,20.1928125 2.39425,20.3175 2.50725,20.413125 C2.6201875,20.508125 2.742,20.5555625 2.873,20.5555625 L2.9265625,20.5555625 C3.52125,20.4723125 4.032875,20.3771875 4.4610625,20.27 C6.2930625,19.794375 7.94675,19.0326875 9.4218125,17.9859375 C10.492375,18.1763125 11.53925,18.2714375 12.56225,18.2714375 C14.8345625,18.27225 16.937375,17.8650625 18.8704375,17.0500625 Z" id="Path"></path>
            <path d="M30.709625,17.710125 C31.5545,16.4670625 31.976625,15.1321875 31.976625,13.7045 C31.976625,12.241125 31.53,10.87225 30.638125,9.5995 C29.7458125,8.326875 28.53225,7.2679375 26.9978125,6.4233125 C27.2711875,7.3154375 27.408,8.2195 27.408,9.1356875 C27.408,10.729625 27.01,12.2404375 26.2124375,13.668125 C25.4154375,15.095375 24.273375,16.35625 22.7864375,17.450875 C21.4064375,18.450125 19.836125,19.2171875 18.075375,19.7526875 C16.315125,20.2878125 14.4770625,20.5556875 12.56175,20.5556875 C12.205,20.5556875 11.6815,20.532125 10.991625,20.484625 C13.382625,22.0545625 16.1901875,22.8399375 19.413875,22.8399375 C20.4370625,22.8399375 21.4838125,22.7445625 22.5545625,22.55425 C24.0295625,23.6014375 25.6833125,24.3624375 27.5151875,24.8385625 C27.9434375,24.9459375 28.455,25.040875 29.0498125,25.1240625 C29.1925,25.136 29.323625,25.0943125 29.4425,24.999125 C29.5614375,24.904 29.638875,24.7735 29.674375,24.607125 C29.6688125,24.5356875 29.674375,24.4965 29.6923125,24.4908125 C29.709875,24.4851875 29.706875,24.4463125 29.6833125,24.3750625 C29.6598125,24.3035625 29.6478125,24.267875 29.6478125,24.267875 L29.6033125,24.178875 C29.5909375,24.155375 29.5708125,24.1224375 29.540875,24.0809375 C29.511125,24.0396875 29.4874375,24.0095 29.4694375,23.99175 C29.4519375,23.974 29.425375,23.9440625 29.3894375,23.90275 C29.3539375,23.8615 29.33,23.8345 29.318,23.8225625 C29.2585625,23.751125 29.1218125,23.6025 28.90775,23.376375 C28.6934375,23.1505625 28.5390625,22.975125 28.443875,22.85025 C28.3486875,22.7253125 28.2148125,22.5529375 28.042375,22.332625 C27.87,22.11275 27.721125,21.8836875 27.5961875,21.6456875 C27.4713125,21.4078125 27.349375,21.146 27.2304375,20.8606875 C28.7055625,20.0034375 29.8651875,18.953625 30.709625,17.710125 Z" id="Path"></path>
        </g>
    </g>
</svg>