<?xml version="1.0" encoding="UTF-8"?>
<svg width="92px" height="92px" viewBox="0 0 92 92" version="1.1" xmlns="http://www.w3.org/2000/svg" xmlns:xlink="http://www.w3.org/1999/xlink">
    <!-- Generator: Sketch 53.2 (72643) - https://sketchapp.com -->
    <title>discuss</title>
    <desc>Created with Sketch.</desc>
    <g id="Website" stroke="none" stroke-width="1" fill="none" fill-rule="evenodd">
        <g id="Meetings(meeting-night)Desktop" transform="translate(-73.000000, -838.000000)" fill="#FFFFFF" fill-rule="nonzero">
            <g id="discuss" transform="translate(73.000000, 838.000000)">
                <path d="M46.39,0.0002 C21.2134,0.0002 0.0004,20.2278 0.0004,45.1992 C0.0004,46 0.0208,91.9998 0.0208,91.9998 L46.3902,91.9586 C71.5874,91.9586 91.9998,70.9512 91.9998,45.9796 C91.9996,21.0084 71.5874,0.0002 46.39,0.0002 Z M46.0002,72.2858 C42.0162,72.2858 38.217,71.4024 34.8286,69.801 L18.1744,73.9288 L22.8768,58.5268 C20.8644,54.8098 19.7144,50.5384 19.7144,46 C19.7144,31.4814 31.4814,19.7144 46.0002,19.7144 C60.519,19.7144 72.2856,31.4814 72.2856,46 C72.2856,60.5192 60.519,72.2858 46.0002,72.2858 Z" id="Shape"></path>
            </g>
        </g>
    </g>
</svg>