<?xml version="1.0" encoding="UTF-8"?>
<svg width="40px" height="40px" viewBox="0 0 40 40" version="1.1" xmlns="http://www.w3.org/2000/svg" xmlns:xlink="http://www.w3.org/1999/xlink">
    <!-- Generator: Sketch 53.2 (72643) - https://sketchapp.com -->
    <title>Event</title>
    <desc>Created with Sketch.</desc>
    <g id="Event" stroke="none" stroke-width="1" fill="none" fill-rule="evenodd">
        <g id="icon" fill="#FFFFFF" fill-rule="nonzero">
            <path d="M29.9992572,9 C28.3414211,9 27.0014855,7.68499837 27,6.04930036 L27,2.95802148 C27,1.31793036 28.3399356,0 29.9992572,0 C31.6585789,0 33,1.31939473 33,2.95802148 L33,6.04783599 C33,7.68499837 31.6570933,9 29.9992572,9 Z M39.956802,5.06951476 L40,39.9918218 L37.1447483,40 L2.85943215,40 L0,40 L0,5 L5.71747082,5.06951476 L5.71747082,6.4693512 C5.71747082,8.78105771 7.63769378,10.6620453 10.0024386,10.6620453 C12.3671834,10.6620453 14.2887999,8.77969468 14.2887999,6.4693512 L14.2887999,5.06951476 L25.722348,5.06951476 L25.722348,6.4693512 C25.722348,8.77969468 27.636997,10.6620453 30.0059223,10.6620453 C32.3720606,10.6620453 34.2908901,8.77969468 34.2908901,6.4693512 L34.2908901,5.06951476 L39.956802,5.06951476 Z M37.1419613,37.2125944 L37.1447483,37.2125944 L37.1447483,14.8533764 L2.85943215,14.8533764 L2.85943215,37.2125944 L37.1419613,37.2125944 Z M9.99777173,9 C8.33845011,9 7,7.68499837 7,6.04930036 L7,2.95802148 C7,1.31793036 8.33993563,0 9.99777173,0 C11.6556078,0 13,1.31793036 13,2.95802148 L13,6.04783599 C13,7.68499837 11.6556078,9 9.99777173,9 Z M15,18 L20,18 L20,22 L15,22 L15,18 Z M21,18 L26,18 L26,22 L21,22 L21,18 Z M28,18 L33,18 L33,22 L28,22 L28,18 Z M15,24 L20,24 L20,28 L15,28 L15,24 Z M21,24 L26,24 L26,28 L21,28 L21,24 Z M28,24 L33,24 L33,28 L28,28 L28,24 Z M15,30 L20,30 L20,34 L15,34 L15,30 Z M7,24 L12,24 L12,28 L7,28 L7,24 Z M7,30 L12,30 L12,34 L7,34 L7,30 Z M21,30 L26,30 L26,34 L21,34 L21,30 Z M28,30 L33,30 L33,34 L28,34 L28,30 Z" id="Combined-Shape"></path>
        </g>
    </g>
</svg>