<?xml version="1.0" encoding="UTF-8"?>
<svg width="32px" height="32px" viewBox="0 0 32 32" version="1.1" xmlns="http://www.w3.org/2000/svg" xmlns:xlink="http://www.w3.org/1999/xlink">
    <!-- Generator: Sketch 53.2 (72643) - https://sketchapp.com -->
    <title>Machine</title>
    <desc>Created with Sketch.</desc>
    <g id="Machine" stroke="none" stroke-width="1" fill="none" fill-rule="evenodd">
        <g id="sewing-machine" fill="#FFFFFF" fill-rule="nonzero">
            <circle id="Oval" cx="21.6875" cy="11.6875" r="1"></circle>
            <path d="M27.3125,15.125 L30.125,15.125 L30.125,17.625 C30.125,18.14275 30.54475,18.5625 31.0625,18.5625 C31.58025,18.5625 32,18.14275 32,17.625 L32,6.375 C32,5.85725 31.58025,5.4375 31.0625,5.4375 C30.54475,5.4375 30.125,5.85725 30.125,6.375 L30.125,8.875 L27.3125,8.875 L27.3125,7.625 C27.3125,6.2443125 26.1931875,5.125 24.8125,5.125 L23.9375,5.125 C24.627875,5.125 25.1875,4.565375 25.1875,3.875 L25.1875,1.25 C25.1875,0.559625 24.627875,0 23.9375,0 L22.05625,0 C21.365875,0 20.80625,0.559625 20.80625,1.25 L20.80625,3.875 C20.80625,4.565375 21.365875,5.125 22.05625,5.125 L5.3125,5.125 L5.3125,2.875 L6.25,2.875 C6.76775,2.875 7.1875,2.45525 7.1875,1.9375 C7.1875,1.41975 6.76775,1 6.25,1 L2.5,1 C1.98225,1 1.5625,1.41975 1.5625,1.9375 C1.5625,2.45525 1.98225,2.875 2.5,2.875 L3.4375,2.875 L3.4375,5.125 L2.5,5.125 C1.1193125,5.125 0,6.2443125 0,7.625 L0,15.4375 C0,16.8181875 1.1193125,17.9375 2.5,17.9375 L3.4375,17.9375 L3.4375,23.5625 C3.4375,24.08025 3.85725,24.5 4.375,24.5 C4.89275,24.5 5.3125,24.08025 5.3125,23.5625 L5.3125,22.67925 L6.875,22.67925 C7.39275,22.67925 7.8125,22.2595 7.8125,21.74175 C7.8125,21.224 7.39275,20.80425 6.875,20.80425 L5.3125,20.80425 L5.3125,17.9375 L6.25,17.9375 C7.6306875,17.9375 8.75,16.8181875 8.75,15.4375 L8.75,14.5 C8.75,13.809625 9.309625,13.25 10,13.25 L14.8125,13.25 C15.502875,13.25 16.0625,13.809625 16.0625,14.5 L16.0625,21.6875 L27.3125,21.6875 L27.3125,15.125 Z M21.6875,14.5 C20.1366875,14.5 18.875,13.2383125 18.875,11.6875 C18.875,10.1366875 20.1366875,8.875 21.6875,8.875 C23.2383125,8.875 24.5,10.1366875 24.5,11.6875 C24.5,13.2383125 23.2383125,14.5 21.6875,14.5 Z" id="Shape"></path>
            <path d="M28.875,26.375 L28.875,24.8125 C28.875,24.122125 28.315375,23.5625 27.625,23.5625 L15.75,23.5625 C15.059625,23.5625 14.5,24.122125 14.5,24.8125 L14.5,26.375 L28.875,26.375 Z" id="Path"></path>
            <path d="M31.375,32 C31.7201875,32 32,31.7201875 32,31.375 L32,29.5 C32,28.809625 31.440375,28.25 30.75,28.25 L28.875,28.25 L14.5,28.25 L1.25,28.25 C0.559625,28.25 0,28.809625 0,29.5 L0,31.375 C0,31.7201875 0.2798125,32 0.625,32 L31.375,32 Z" id="Path"></path>
        </g>
    </g>
</svg>