<?xml version="1.0" encoding="UTF-8"?>
<svg width="32px" height="36px" viewBox="0 0 32 36" version="1.1" xmlns="http://www.w3.org/2000/svg" xmlns:xlink="http://www.w3.org/1999/xlink">
    <!-- Generator: Sketch 53.2 (72643) - https://sketchapp.com -->
    <title>NoteWhite</title>
    <desc>Created with Sketch.</desc>
    <g id="NoteWhite" stroke="none" stroke-width="1" fill="none" fill-rule="evenodd">
        <g id="writing" fill="#FFFFFF" fill-rule="nonzero">
            <path d="M22.7101913,15.46875 C22.7101913,16.2454219 22.0873043,16.875 21.318887,16.875 L6.98845217,16.875 C6.22003478,16.875 5.59714783,16.2454219 5.59714783,15.46875 C5.59714783,14.6920781 6.22003478,14.0625 6.98845217,14.0625 L21.318887,14.0625 C22.0873043,14.0625 22.7101913,14.6920781 22.7101913,15.46875 Z M6.98845217,19.6875 L15.6918261,19.6875 C16.4602435,19.6875 17.0831304,20.3170781 17.0831304,21.09375 C17.0831304,21.8704219 16.4602435,22.5 15.6918261,22.5 L6.98845217,22.5 C6.22003478,22.5 5.59714783,21.8704219 5.59714783,21.09375 C5.59714783,20.3170781 6.22003478,19.6875 6.98845217,19.6875 Z M10.2580174,33.1875 C11.0264348,33.1875 11.6493217,33.8170781 11.6493217,34.59375 C11.6493217,35.3704219 11.0264348,36 10.2580174,36 L5.60486957,36 C2.5362087,36 0.0396521739,33.476625 0.0396521739,30.375 L0.0396521739,5.625 C0.0396521739,2.523375 2.5362087,0 5.60486957,0 L22.7101913,0 C25.7788522,0 28.2754087,2.523375 28.2754087,5.625 L28.2754087,14.2734375 C28.2754087,15.0501094 27.6525217,15.6796875 26.8841043,15.6796875 C26.115687,15.6796875 25.4928,15.0501094 25.4928,14.2734375 L25.4928,5.625 C25.4928,4.0741875 24.2445217,2.8125 22.7101913,2.8125 L5.60486957,2.8125 C4.07053913,2.8125 2.82226087,4.0741875 2.82226087,5.625 L2.82226087,30.375 C2.82226087,31.9258125 4.07053913,33.1875 5.60486957,33.1875 L10.2580174,33.1875 Z M30.7397565,20.3605312 C32.3672348,22.0055625 32.3672348,24.6819375 30.7398261,26.3268281 L23.1173565,34.0166953 C22.9476174,34.1879766 22.7369739,34.3119375 22.5058783,34.376625 L16.8902261,35.9488828 C16.7675826,35.9832656 16.6426435,36 16.518887,36 C16.1490087,36 15.7883826,35.8507266 15.5229217,35.5757344 C15.1685565,35.2086328 15.0400696,34.6757344 15.1875478,34.1849531 L16.8510609,28.6496016 C16.9177043,28.4279766 17.0373565,28.2264609 17.1995826,28.0628437 L24.8380522,20.3594062 C26.4644174,18.7155703 29.1123478,18.7156406 30.7397565,20.3605312 Z M21.4105043,31.7649375 L26.5341217,26.5959844 L24.5661217,24.6068437 L19.4121043,29.8046953 L18.5853217,32.5559531 L21.4105043,31.7649375 Z M28.7732174,24.3372656 C29.314713,23.7898125 29.314713,22.8976875 28.7722435,22.3493906 C28.2297739,21.8010937 27.3471304,21.8010937 26.8046609,22.3493906 L26.536,22.620375 L28.5036522,24.6091641 L28.7732174,24.3372656 Z M21.318887,8.4375 C22.0873043,8.4375 22.7101913,9.06707813 22.7101913,9.84375 C22.7101913,10.6204219 22.0873043,11.25 21.318887,11.25 L6.98845217,11.25 C6.22003478,11.25 5.59714783,10.6204219 5.59714783,9.84375 C5.59714783,9.06707813 6.22003478,8.4375 6.98845217,8.4375 L21.318887,8.4375 Z" id="Combined-Shape"></path>
        </g>
    </g>
</svg>