<?xml version="1.0" encoding="UTF-8"?>
<svg width="32px" height="32px" viewBox="0 0 32 32" version="1.1" xmlns="http://www.w3.org/2000/svg" xmlns:xlink="http://www.w3.org/1999/xlink">
    <!-- Generator: Sketch 53.2 (72643) - https://sketchapp.com -->
    <title>project</title>
    <desc>Created with Sketch.</desc>
    <g id="project" stroke="none" stroke-width="1" fill="none" fill-rule="evenodd">
        <g id="light-bulb" transform="translate(-0.000000, 0.000000)" fill="#FFFFFF" fill-rule="nonzero">
            <path d="M19.055144,27.963786 L19.055144,28.8987654 C19.055144,29.6427984 18.508642,30.2617284 17.7975309,30.3670782 L17.5670782,31.2164609 C17.4419753,31.6773663 17.0271605,32 16.5465021,32 L14.2617284,32 C13.78107,32 13.3662551,31.6773663 13.2411523,31.2164609 L13.017284,30.3670782 C12.2995885,30.255144 11.7530864,29.6427984 11.7530864,28.8921811 L11.7530864,27.9572016 C11.7530864,27.4567901 12.1547325,27.055144 12.655144,27.055144 L18.1530864,27.055144 C18.6534979,27.0617284 19.055144,27.4633745 19.055144,27.963786 Z M23.2888889,15.3613169 C23.2888889,17.4880658 22.4460905,19.417284 21.0765432,20.8329218 C20.036214,21.9127572 19.3646091,23.2888889 19.1407407,24.7572016 C19.0419753,25.3893004 18.4954733,25.8567901 17.8502058,25.8567901 L12.9580247,25.8567901 C12.3193416,25.8567901 11.7662551,25.3958848 11.6740741,24.763786 C11.4436214,23.2954733 10.7654321,21.8995885 9.72510288,20.8263374 C8.381893,19.4304527 7.54567901,17.5341564 7.52592593,15.4469136 C7.47983539,11.0617284 10.9695473,7.5127572 15.3547325,7.47983539 C19.7333333,7.44691358 23.2888889,10.9893004 23.2888889,15.3613169 Z M16.2962963,10.5876543 C16.2962963,10.1004115 15.9012346,9.69876543 15.4074074,9.69876543 C12.273251,9.69876543 9.71851852,12.2469136 9.71851852,15.3876543 C9.71851852,15.8748971 10.1135802,16.2765432 10.6074074,16.2765432 C11.0946502,16.2765432 11.4962963,15.8814815 11.4962963,15.3876543 C11.4962963,13.2279835 13.254321,11.4765432 15.4074074,11.4765432 C15.9012346,11.4765432 16.2962963,11.0814815 16.2962963,10.5876543 Z M15.4074074,4.89218107 C15.8946502,4.89218107 16.2962963,4.49711934 16.2962963,4.00329218 L16.2962963,0.888888889 C16.2962963,0.401646091 15.9012346,0 15.4074074,0 C14.9135802,0 14.5185185,0.395061728 14.5185185,0.888888889 L14.5185185,4.00329218 C14.5185185,4.49711934 14.9201646,4.89218107 15.4074074,4.89218107 Z M4.94485597,15.3547325 C4.94485597,14.8674897 4.54979424,14.4658436 4.05596708,14.4658436 L0.941563786,14.4658436 C0.454320988,14.4658436 0.0526748971,14.8609053 0.0526748971,15.3547325 C0.0526748971,15.8419753 0.447736626,16.2436214 0.941563786,16.2436214 L4.05596708,16.2436214 C4.54979424,16.2436214 4.94485597,15.8485597 4.94485597,15.3547325 Z M29.873251,14.4658436 L26.7588477,14.4658436 C26.2716049,14.4658436 25.8699588,14.8609053 25.8699588,15.3547325 C25.8699588,15.8419753 26.2650206,16.2436214 26.7588477,16.2436214 L29.873251,16.2436214 C30.3604938,16.2436214 30.7621399,15.8485597 30.7621399,15.3547325 C30.7621399,14.8674897 30.3670782,14.4658436 29.873251,14.4658436 Z M6.75555556,22.7555556 L4.54979424,24.9613169 C4.20082305,25.3102881 4.20082305,25.8699588 4.54979424,26.21893 C4.72098765,26.3901235 4.95144033,26.4757202 5.17530864,26.4757202 C5.39917695,26.4757202 5.62962963,26.3901235 5.80082305,26.21893 L8.00658436,24.0131687 C8.35555556,23.6641975 8.35555556,23.1045267 8.00658436,22.7555556 C7.66419753,22.4065844 7.09794239,22.4065844 6.75555556,22.7555556 Z M23.4337449,8.21728395 C23.6576132,8.21728395 23.8880658,8.13168724 24.0592593,7.96049383 L26.2650206,5.75473251 C26.6139918,5.40576132 26.6139918,4.84609053 26.2650206,4.49711934 C25.9160494,4.14814815 25.3563786,4.14814815 25.0074074,4.49711934 L22.8016461,6.70288066 C22.4526749,7.05185185 22.4526749,7.61152263 22.8016461,7.96049383 C22.9794239,8.13168724 23.2032922,8.21728395 23.4337449,8.21728395 Z M6.75555556,7.95390947 C6.92674897,8.12510288 7.15720165,8.21069959 7.38106996,8.21069959 C7.60493827,8.21069959 7.83539095,8.12510288 8.00658436,7.95390947 C8.35555556,7.60493827 8.35555556,7.04526749 8.00658436,6.6962963 L5.80082305,4.49053498 C5.45185185,4.14156379 4.89218107,4.14156379 4.54320988,4.49053498 C4.19423868,4.83950617 4.19423868,5.39917695 4.54320988,5.74814815 L6.75555556,7.95390947 Z M24.0592593,22.7555556 C23.7102881,22.4065844 23.1506173,22.4065844 22.8016461,22.7555556 C22.4526749,23.1045267 22.4526749,23.6641975 22.8016461,24.0131687 L25.0074074,26.21893 C25.1786008,26.3901235 25.4090535,26.4757202 25.6329218,26.4757202 C25.8567901,26.4757202 26.0872428,26.3901235 26.2584362,26.21893 C26.6074074,25.8699588 26.6074074,25.3102881 26.2584362,24.9613169 L24.0592593,22.7555556 Z" id="XMLID_49_"></path>
        </g>
    </g>
</svg>