<?xml version="1.0" encoding="UTF-8"?>
<svg width="34px" height="34px" viewBox="0 0 34 34" version="1.1" xmlns="http://www.w3.org/2000/svg" xmlns:xlink="http://www.w3.org/1999/xlink">
    <!-- Generator: Sketch 53.2 (72643) - https://sketchapp.com -->
    <title>Hardware</title>
    <desc>Created with Sketch.</desc>
    <g id="Hardware" stroke="none" stroke-width="1" fill="none" fill-rule="evenodd">
        <g id="drill" transform="translate(1.000000, 1.000000)" fill-rule="nonzero">
            <g id="Group" transform="translate(0.532258, 0.532258)">
                <path d="M28.7419355,0.532258065 L28.7419355,1.59677419 C28.7419355,1.88951613 28.5024194,2.12903226 28.2096774,2.12903226 L27.6774194,2.12903226 L23.4193548,2.12903226 L19.6935484,2.12903226 C19.4008065,2.12903226 19.1612903,1.88951613 19.1612903,1.59677419 L19.1612903,0.532258065 C19.1612903,0.239516129 19.4008065,0 19.6935484,0 L28.2096774,0 C28.5024194,0 28.7419355,0.239516129 28.7419355,0.532258065 Z" id="Path" fill="#FCD770"></path>
                <path d="M27.6774194,2.12903226 L27.6774194,4.25806452 C27.6508065,4.25806452 27.6295161,4.25806452 27.6029032,4.25806452 L26.6129032,4.25806452 L23.4193548,4.25806452 L23.4193548,2.12903226 L27.6774194,2.12903226 Z" id="Path" fill="#CCD1D9"></path>
                <path d="M22.3548387,15.9677419 L22.3548387,20.2258065 L21.2903226,20.2258065 C20.7048387,20.2258065 20.2258065,19.7467742 20.2258065,19.1612903 L20.2258065,17.0322581 C20.2258065,16.4467742 20.7048387,15.9677419 21.2903226,15.9677419 L22.3548387,15.9677419 Z" id="Path" fill="#FF826E"></path>
                <g transform="translate(12.774194, 4.258065)" fill="#CCD1D9" id="Path">
                    <path d="M3.19354839,0 L3.19354839,8.51612903 L2.12903226,8.51612903 C0.952741935,8.51612903 0,7.5633871 0,6.38709677 L0,5.32258065 L0,3.19354839 L0,2.12903226 C0,0.952741935 0.952741935,0 2.12903226,0 L3.19354839,0 Z"></path>
                    <path d="M17.8945161,1.26677419 C17.1227419,0.500322581 16.068871,0.0212903226 14.9032258,0 C14.8766129,0 14.8553226,0 14.8287097,0 L13.8387097,0 L13.8387097,3.19354839 L11.7096774,4.25806452 L5.32258065,4.25806452 L5.32258065,8.51612903 L7.76564516,8.51612903 C8.13290323,8.51612903 8.49483871,8.62790323 8.79290323,8.83548387 C8.8833871,8.89935484 8.96854839,8.96854839 9.0483871,9.0483871 C9.38903226,9.38903226 9.58064516,9.85209677 9.58064516,10.331129 L9.58064516,11.7096774 L9.58064516,15.9677419 L9.58064516,19.1612903 L10.9645161,19.1612903 C11.1082258,19.1612903 11.2466129,19.1453226 11.385,19.1187097 L13.4129032,18.7141935 C13.6577419,18.6662903 13.8387097,18.4480645 13.8387097,18.1925806 L13.8387097,10.6451613 C13.8387097,9.46887097 14.7914516,8.51612903 15.9677419,8.51612903 L16.2019355,8.43629032 C17.9690323,7.85080645 19.1612903,6.19548387 19.1612903,4.33258065 C19.1612903,3.135 18.6769355,2.05451613 17.8945161,1.26677419 Z"></path>
                    <path d="M15.408871,22.2430645 C15.4248387,22.3175806 15.4354839,22.3920968 15.4354839,22.4719355 C15.4354839,22.9935484 15.0096774,23.4193548 14.4880645,23.4193548 L14.3709677,23.4193548 L14.0090323,23.4193548 C13.593871,23.4193548 13.2266129,23.1425806 13.1041935,22.7433871 L12.5719355,20.9816129 L14.8393548,20.4759677 C14.8766129,20.4653226 14.9191935,20.46 14.9564516,20.4440323 L15.408871,22.2430645 Z"></path>
                </g>
                <path d="M27.7306452,24.7020968 C27.6933871,24.7180645 27.6508065,24.7233871 27.6135484,24.7340323 L25.346129,25.2396774 L24.1059677,25.5164516 C24.0048387,25.5377419 23.8983871,25.5483871 23.7919355,25.5483871 C22.998871,25.5483871 22.3548387,24.9043548 22.3548387,24.1112903 L22.3548387,23.4193548 L23.7387097,23.4193548 C23.8824194,23.4193548 24.0208065,23.4033871 24.1591935,23.3767742 L26.1870968,22.9722581 C26.4319355,22.9243548 26.6129032,22.706129 26.6129032,22.4506452 L26.6129032,14.9032258 C26.6129032,13.7269355 27.5656452,12.7741935 28.7419355,12.7741935 L28.7419355,23.328871 C28.7419355,23.9622581 28.3267742,24.521129 27.7306452,24.7020968 L27.7306452,24.7020968 Z" id="Path" fill="#969FAA"></path>
                <polygon id="Path" fill="#5CD6B3" points="26.6129032 4.25806452 26.6129032 7.4516129 24.483871 8.51612903 18.0967742 8.51612903 18.0967742 4.25806452 23.4193548 4.25806452"></polygon>
                <polygon id="Path" fill="#FCD770" points="18.0967742 8.51612903 18.0967742 12.7741935 15.9677419 12.7741935 15.9677419 4.25806452 18.0967742 4.25806452"></polygon>
                <path d="M7.4516129,8.51612903 L7.4516129,9.58064516 L1.06451613,9.58064516 C0.771774194,9.58064516 0.505645161,9.46354839 0.314032258,9.2666129 C0.117096774,9.075 0,8.80887097 0,8.51612903 C0,7.93064516 0.479032258,7.4516129 1.06451613,7.4516129 L7.4516129,7.4516129 L7.4516129,8.51612903 Z" id="Path" fill="#E6E9ED"></path>
                <polygon id="Path" fill="#E6E9ED" points="12.7741935 7.4516129 12.7741935 9.58064516 9.58064516 9.58064516 9.58064516 8.51612903 9.58064516 7.4516129"></polygon>
                <path d="M9.0483871,6.38709677 L7.98387097,6.38709677 C7.69112903,6.38709677 7.4516129,6.6266129 7.4516129,6.91935484 L7.4516129,7.4516129 L7.4516129,8.51612903 L7.4516129,9.58064516 L7.4516129,10.1129032 C7.4516129,10.4056452 7.69112903,10.6451613 7.98387097,10.6451613 L9.0483871,10.6451613 C9.34112903,10.6451613 9.58064516,10.4056452 9.58064516,10.1129032 L9.58064516,9.58064516 L9.58064516,8.51612903 L9.58064516,7.4516129 L9.58064516,6.91935484 C9.58064516,6.6266129 9.34112903,6.38709677 9.0483871,6.38709677 Z" id="Path" fill="#5CD6B3"></path>
            </g>
            <g id="Group" fill="#000000">
                <polygon id="Path" points="20.2258065 6.38709677 21.2903226 6.38709677 21.2903226 7.4516129 20.2258065 7.4516129"></polygon>
                <polygon id="Path" points="24.483871 6.38709677 25.5483871 6.38709677 25.5483871 7.4516129 24.483871 7.4516129"></polygon>
                <polygon id="Path" points="22.3548387 6.38709677 23.4193548 6.38709677 23.4193548 7.4516129 22.3548387 7.4516129"></polygon>
                <path d="M15.4354839,31.4032258 C15.4354839,31.1099516 15.6739355,30.8709677 15.9677419,30.8709677 L26.6129032,30.8709677 C27.4932581,30.8709677 28.2096774,30.1545484 28.2096774,29.2741935 L28.2096774,28.6754032 C28.8228387,28.4944355 29.2741935,27.9329032 29.2741935,27.2622581 C29.2741935,27.1414355 29.2598226,27.0206129 29.2300161,26.9029839 L28.8872419,25.5313548 C29.4493065,25.1800645 29.8064516,24.5605161 29.8064516,23.8621935 L29.8064516,13.6880806 C31.7225806,12.9886935 33,11.1705 33,9.12077419 C33,6.64470968 31.1381613,4.59924194 28.7419355,4.3001129 L28.7419355,3.19354839 C29.3290161,3.19354839 29.8064516,2.7161129 29.8064516,2.12903226 L29.8064516,1.06451613 C29.8064516,0.477435484 29.3290161,1.77635684e-15 28.7419355,1.77635684e-15 L20.2258065,1.77635684e-15 C19.6387258,1.77635684e-15 19.1612903,0.477435484 19.1612903,1.06451613 L19.1612903,2.12903226 C19.1612903,2.7161129 19.6387258,3.19354839 20.2258065,3.19354839 L23.4193548,3.19354839 L23.4193548,4.25806452 L15.4354839,4.25806452 C13.9680484,4.25806452 12.7741935,5.45191935 12.7741935,6.91935484 L12.7741935,7.4516129 L10.6451613,7.4516129 C10.6451613,6.86453226 10.1677258,6.38709677 9.58064516,6.38709677 L8.51612903,6.38709677 C7.92904839,6.38709677 7.4516129,6.86453226 7.4516129,7.4516129 L1.59677419,7.4516129 C0.716419355,7.4516129 0,8.16803226 0,9.0483871 C0,9.92874194 0.716419355,10.6451613 1.59677419,10.6451613 L7.4516129,10.6451613 C7.4516129,11.2322419 7.92904839,11.7096774 8.51612903,11.7096774 L9.58064516,11.7096774 C10.1677258,11.7096774 10.6451613,11.2322419 10.6451613,10.6451613 L12.7741935,10.6451613 L12.7741935,11.1774194 C12.7741935,12.6448548 13.9680484,13.8387097 15.4354839,13.8387097 L21.0699677,13.8387097 C21.4132742,13.8387097 21.7358226,13.9723065 21.9785323,14.2155484 C22.2212419,14.4577258 22.3548387,14.7802742 22.3548387,15.1235806 L22.3548387,15.9677419 L21.8225806,15.9677419 C20.9422258,15.9677419 20.2258065,16.6841613 20.2258065,17.5645161 L20.2258065,19.6935484 C20.2258065,20.5739032 20.9422258,21.2903226 21.8225806,21.2903226 L22.3548387,21.2903226 L22.3548387,24.6419516 C22.3548387,25.7288226 23.2389194,26.6129032 24.3257903,26.6129032 C24.4695,26.6129032 24.6132097,26.5969355 24.7537258,26.5660645 L25.5132581,26.3973387 L25.9002097,27.6880645 C26.0731935,28.262371 26.5618065,28.6610323 27.1451613,28.728629 L27.1451613,29.2741935 C27.1451613,29.5674677 26.9067097,29.8064516 26.6129032,29.8064516 L15.9677419,29.8064516 C15.0873871,29.8064516 14.3709677,30.522871 14.3709677,31.4032258 C14.3709677,32.2835806 15.0873871,33 15.9677419,33 L33,33 L33,31.9354839 L15.9677419,31.9354839 C15.6739355,31.9354839 15.4354839,31.6965 15.4354839,31.4032258 Z M9.58064516,7.4516129 L9.58064516,8.51612903 L8.51612903,8.51612903 L8.51612903,7.4516129 L9.58064516,7.4516129 Z M1.59677419,9.58064516 C1.30296774,9.58064516 1.06451613,9.34166129 1.06451613,9.0483871 C1.06451613,8.7551129 1.30296774,8.51612903 1.59677419,8.51612903 L7.4516129,8.51612903 L7.4516129,9.58064516 L1.59677419,9.58064516 Z M8.51612903,10.6451613 L8.51612903,9.58064516 L9.58117742,9.58064516 L9.58117742,10.6451613 L8.51612903,10.6451613 Z M10.6451613,9.58064516 L10.6451613,8.51612903 L12.7741935,8.51612903 L12.7741935,9.58064516 L10.6451613,9.58064516 Z M31.9354839,9.12077419 C31.9354839,10.7585323 30.8917258,12.2062742 29.3380645,12.7241613 L29.1501774,12.7869677 C27.7412903,12.8529677 26.6129032,14.010629 26.6129032,15.4354839 L26.6129032,22.9829032 L24.5860645,23.3884839 C24.4833387,23.4087097 24.3779516,23.4193548 24.2730968,23.4193548 L23.4193548,23.4193548 L23.4193548,15.1235806 C23.4193548,14.5279839 23.1931452,13.9707097 22.7918226,13.5358548 L25.3865806,9.45875806 L27.6774194,8.31280645 L27.6774194,5.32258065 L28.1372903,5.32258065 C30.2317258,5.32258065 31.9354839,7.02633871 31.9354839,9.12077419 L31.9354839,9.12077419 Z M18.0967742,12.7741935 L17.0322581,12.7741935 L17.0322581,5.32258065 L18.0967742,5.32258065 L18.0967742,12.7741935 Z M19.1612903,5.32258065 L26.6129032,5.32258065 L26.6129032,7.65493548 L24.8905161,8.51612903 L19.1612903,8.51612903 L19.1612903,5.32258065 Z M20.2252742,1.06451613 L28.7419355,1.06451613 L28.7419355,2.12903226 L20.2258065,2.12903226 L20.2252742,1.06451613 Z M24.483871,3.19354839 L27.6774194,3.19354839 L27.6774194,4.25806452 L24.483871,4.25806452 L24.483871,3.19354839 Z M13.8387097,11.1774194 L13.8387097,6.91935484 C13.8387097,6.039 14.555129,5.32258065 15.4354839,5.32258065 L15.9677419,5.32258065 L15.9677419,12.7741935 L15.4354839,12.7741935 C14.555129,12.7741935 13.8387097,12.0577742 13.8387097,11.1774194 Z M19.1612903,12.7741935 L19.1612903,9.58064516 L24.0463548,9.58064516 L21.9125323,12.9344032 C21.6464032,12.8322097 21.3632419,12.7741935 21.0699677,12.7741935 L19.1612903,12.7741935 Z M21.8225806,20.2258065 C21.5287742,20.2258065 21.2903226,19.9868226 21.2903226,19.6935484 L21.2903226,17.5645161 C21.2903226,17.2712419 21.5287742,17.0322581 21.8225806,17.0322581 L22.3548387,17.0322581 L22.3548387,20.2258065 L21.8225806,20.2258065 Z M24.5227258,25.5265645 C23.9702419,25.6484516 23.4193548,25.2077419 23.4193548,24.6419516 L23.4193548,24.483871 L24.2730968,24.483871 C24.4482097,24.483871 24.6238548,24.4663065 24.7952419,24.4322419 L26.8220806,24.0266613 C27.3176129,23.9276613 27.6774194,23.4885484 27.6774194,22.9829032 L27.6774194,15.4354839 C27.6774194,14.7424839 28.1239839,14.157 28.7419355,13.9366452 L28.7419355,23.8616613 C28.7419355,24.2895968 28.4497258,24.6536613 28.0319032,24.7468065 L24.5227258,25.5265645 Z M26.9200161,27.3814839 L26.5554194,26.1652742 L27.8754194,25.872 L28.1974355,27.1600645 C28.2054194,27.1930645 28.2096774,27.2276613 28.2096774,27.2617258 C28.2096774,27.491129 28.0228548,27.6774194 27.7939839,27.6774194 L27.3181452,27.6774194 C27.1334516,27.6774194 26.9732419,27.5581935 26.9200161,27.3814839 L26.9200161,27.3814839 Z" id="Shape"></path>
            </g>
        </g>
    </g>
</svg>