<?xml version="1.0" encoding="UTF-8"?>
<svg width="34px" height="34px" viewBox="0 0 34 34" version="1.1" xmlns="http://www.w3.org/2000/svg" xmlns:xlink="http://www.w3.org/1999/xlink">
    <!-- Generator: Sketch 53.2 (72643) - https://sketchapp.com -->
    <title>Money</title>
    <desc>Created with Sketch.</desc>
    <g id="Money" stroke="none" stroke-width="1" fill="none" fill-rule="evenodd">
        <g id="bank" fill-rule="nonzero">
            <g id="Group" transform="translate(5.832359, 0.000000)" fill="#88B337">
                <path d="M22.2439532,22.0812734 C22.2445497,21.8245469 22.1737661,21.5731328 22.0392242,21.3545234 L20.7348304,19.2505742 C20.5722534,18.927043 20.4880156,18.5695781 20.4891423,18.2073984 L20.4891423,11.7254844 C20.4891423,7.51751953 17.0849006,4.10662891 12.8851384,4.10662891 L9.37558285,4.10662891 C5.17582066,4.10662891 1.77157895,7.51751953 1.77157895,11.7254844 L1.77157895,18.2073984 C1.77277193,18.5695781 1.68853411,18.9271094 1.52589084,19.2505742 L0.221497076,21.3545234 C0.0869551657,21.5731328 0.01617154,21.8245469 0.0167680312,22.0812734 L0.0167680312,22.0812734 C0.0196842105,22.8343867 0.628038986,23.4438633 1.37961793,23.4467852 L20.8809708,23.4467852 C21.6326823,23.4438633 22.241037,22.8343203 22.2439532,22.0812734 Z" id="Path"></path>
                <polygon id="Path" points="12.8852047 4.10662891 15.8098012 0.00418359375 6.45105263 0.00418359375 9.37564912 4.10662891 9.37564912 5.27876563 12.8852047 5.27876563"></polygon>
            </g>
            <path d="M27.8715828,21.3545234 L26.5671891,19.2505742 C26.4046121,18.927043 26.3203743,18.5695781 26.321501,18.2073984 L26.321501,11.7254844 C26.3256101,10.028207 25.7635166,8.37787891 24.724694,7.0369375 C23.1629474,15.6579961 17.6646901,20.6278398 12.4998051,23.4467956 L26.713462,23.4467852 C27.4691501,23.449707 28.0845302,22.8384375 28.0874464,22.0806758 C28.0886394,21.8239492 28.0178558,21.5725352 27.8833138,21.3545234 L27.8715828,21.3545234 Z" id="Path" fill="#6B962A"></path>
            <path d="M19.8873489,12.8976211 L19.8873489,12.5225586 C19.8844327,11.4365508 19.0058674,10.5563359 17.9219766,10.5533477 L17.5476452,10.5533477 L17.5476452,9.38121094 L16.3777934,9.38121094 L16.3777934,10.5533477 L16.003462,10.5533477 C14.917848,10.5498281 14.0351735,11.4283164 14.0316608,12.5160508 C14.0287446,13.3418125 14.5405341,14.0814453 15.3132554,14.3685859 L16.3777934,14.7670898 L16.3777934,17 L16.003462,17 C15.5641793,17 15.2079415,16.6430664 15.2079415,16.2029258 L15.2079415,16.2029258 L15.2079415,15.8278633 L14.0380897,15.8278633 L14.0380897,16.2029258 C14.0410058,17.2889336 14.9195712,18.1691484 16.003462,18.1721367 L17.9220429,18.1721367 C19.0076569,18.1756563 19.8903314,17.297168 19.8938441,16.2094336 C19.8967602,15.3836719 19.3849708,14.6440391 18.6122495,14.3568984 L17.5477115,13.9583945 L17.5477115,11.7254844 L17.9220429,11.7254844 C18.3613255,11.7254844 18.7175634,12.082418 18.7175634,12.5225586 L18.7175634,12.5225586 L18.7175634,12.8976211 L19.8873489,12.8976211 L19.8873489,12.8976211 Z M18.2027914,15.4528672 C18.5116413,15.5729961 18.7157739,15.8707617 18.7174971,16.2030586 C18.7174971,16.6431992 18.3612593,17.0001328 17.9219766,17.0001328 L17.9219766,17.0001328 L17.5476452,17.0001328 L17.5476452,15.2067656 L18.2027914,15.4528672 Z M16.3778596,13.5188516 L15.7227135,13.2726836 C15.4138635,13.1525547 15.209731,12.8547891 15.2080078,12.5224922 C15.2080078,12.0823516 15.5642456,11.725418 16.0035283,11.725418 L16.0035283,11.725418 L16.3778596,11.725418 L16.3778596,13.5188516 L16.3778596,13.5188516 Z" id="Shape" fill="#FFFFFF"></path>
            <g id="Group" transform="translate(0.000000, 1.128906)" fill="#FDB62F">
                <path d="M28.6612047,4.73589453 L28.6612047,4.73589453 C28.462308,3.53327734 27.5217739,2.59090625 26.321501,2.39162109 L26.321501,2.39162109 C27.5217739,2.19233594 28.462308,1.24996484 28.6612047,0.0473476562 L28.6612047,0.0473476562 C28.8601014,1.24996484 29.8006355,2.19233594 31.0009084,2.39162109 L31.0009084,2.39162109 C29.8006355,2.59090625 28.8601014,3.53334375 28.6612047,4.73589453 Z" id="Path"></path>
                <path d="M2.3397037,16.4571953 L2.3397037,16.4571953 C2.14080702,15.2546445 1.2002729,14.312207 0,14.1129883 L0,14.1129883 C1.2002729,13.9137031 2.14080702,12.971332 2.3397037,11.7687148 L2.3397037,11.7687148 C2.53860039,12.971332 3.4791345,13.9137031 4.67940741,14.1129883 L4.67940741,14.1129883 C3.4791345,14.312207 2.53853411,15.2546445 2.3397037,16.4571953 Z" id="Path"></path>
            </g>
            <path d="M33.6739844,20.4519961 C33.1937427,19.6420391 32.1619454,19.3554961 31.3342807,19.8014805 L23.0342378,23.3530195 C22.8880312,23.4151094 22.7306901,23.4473828 22.5721559,23.4467852 L12.283345,23.4467852 C11.6370136,23.4467852 11.1134932,22.9222422 11.1134932,22.2746484 C11.1134932,21.6270547 11.6370136,21.1025117 12.283345,21.1025117 L16.9627524,21.1025117 C18.9012164,21.1025117 20.472308,19.5283516 20.472308,17.5861016 L10.7391618,17.5861016 C9.12591813,17.5872969 7.60049123,18.3228125 6.59208967,19.5845977 L2.92459649,24.0328203 L7.05417154,31.6164805 L22.9465536,27.7894883 C23.6332476,27.6306445 24.2977388,27.3868672 24.9235906,27.0627383 L33.1124873,22.8606172 C33.9272943,22.3478945 34.1776218,21.2736406 33.6739844,20.4519961 Z" id="Path" fill="#FEC9A3"></path>
            <path d="M5.73811306,29.2019492 L7.05417154,31.6165469 L22.9465536,27.7895547 C23.6332476,27.6307109 24.2977388,27.3869336 24.9235906,27.0628047 L29.3514776,24.7830117 C21.9930955,27.0393633 12.2248889,28.4459141 5.73811306,29.2019492 Z" id="Path" fill="#F7BB8F"></path>
            <polygon id="Path" fill="#4398D1" points="0 23.4467852 0 33.9959492 7.6040039 33.9959492 9.35874854 32.2377773 2.3397037 21.6886133"></polygon>
            <path d="M0,33.9959492 L7.6040039,33.9959492 L9.35874854,32.2377773 L8.07191813,30.3037617 C5.47022222,31.3797422 2.76553216,32.1867773 0,32.7125156 L0,33.9959492 Z" id="Path" fill="#3E8CC7"></path>
            <ellipse id="Oval" fill="#D9D9D9" cx="5.26430019" cy="31.0673672" rx="1.16985185" ry="1.17213672"></ellipse>
        </g>
    </g>
</svg>