<?xml version="1.0" encoding="UTF-8"?>
<svg width="73px" height="73px" viewBox="0 0 73 73" version="1.1" xmlns="http://www.w3.org/2000/svg" xmlns:xlink="http://www.w3.org/1999/xlink">
    <!-- Generator: Sketch 53.2 (72643) - https://sketchapp.com -->
    <title>logo</title>
    <desc>Created with Sketch.</desc>
    <g id="logo" stroke="none" stroke-width="1" fill="none" fill-rule="evenodd">
        <circle id="Oval" fill="#FFFFFF" cx="36.5" cy="36.5" r="36.5"></circle>
        <g id="Group" transform="translate(23.000000, 4.000000)">
            <path d="M24.7,35.9730952 C24.7,42.5479167 19.3833844,47.8778571 12.825,47.8778571 C6.26661563,47.8778571 0.95,42.5479167 0.95,35.9730952 C0.95,29.3982738 6.26661563,24.0683333 12.825,24.0683333 C19.3833844,24.0683333 24.7,29.3982738 24.7,35.9730952 Z" id="Stroke-1" stroke="#000000" stroke-width="0.6"></path>
            <path d="M12.825,30.0207143 C16.1025,30.0207143 18.7625,32.687381 18.7625,35.9730952 C18.7625,39.2588095 16.1025,41.9254762 12.825,41.9254762 C9.5475,41.9254762 6.8875,39.2588095 6.8875,35.9730952 C6.8875,32.687381 9.5475,30.0207143 12.825,30.0207143 M12.825,24.0683333 C12.0118,24.0683333 11.2173625,24.1538095 10.45,24.310119 L10.45,26.1516667 C9.41841875,26.4013095 8.45505938,26.8018452 7.57399375,27.3421429 L6.27516563,26.0400595 C5.60945313,26.482381 5.00091875,27.0013095 4.43828125,27.5653571 C3.87558438,28.1294048 3.3580125,28.7394643 2.91679688,29.4068452 L4.215625,30.7089881 C3.67667813,31.5922024 3.27714375,32.5579167 3.028125,33.5921429 L1.19124063,33.5921429 C1.0352625,34.3614286 0.95,35.1578571 0.95,35.9730952 C0.95,36.7883333 1.0352625,37.5847619 1.19124063,38.3540476 L3.028125,38.3540476 C3.27714375,39.3882143 3.67667813,40.3539881 4.215625,41.2372024 L2.91679688,42.5392857 C3.3580125,43.2067262 3.87558438,43.8167857 4.43828125,44.3808333 C5.00091875,44.944881 5.60945313,45.4638095 6.27516563,45.906131 L7.57399375,44.6040476 C8.45505938,45.1443452 9.41835938,45.544881 10.45,45.7945238 L10.45,47.6360119 C11.2173625,47.792381 12.0118,47.8778571 12.825,47.8778571 C13.6381406,47.8778571 14.4326375,47.792381 15.2,47.6360119 L15.2,45.7945238 C16.2315813,45.544881 17.1949406,45.1443452 18.0760063,44.6040476 L19.3748344,45.906131 C20.0405469,45.4638095 20.6490219,44.944881 21.2117188,44.3808333 C21.7743563,43.8167857 22.2919875,43.2067262 22.7332031,42.5392857 L21.434375,41.2372024 C21.9733219,40.3539881 22.3728563,39.3882143 22.621875,38.3540476 L24.4587594,38.3540476 C24.6147375,37.5847619 24.7,36.7883333 24.7,35.9730952 C24.7,35.1578571 24.6147375,34.3614286 24.4587594,33.5921429 L22.621875,33.5921429 C22.3728563,32.5579762 21.9733219,31.5922024 21.434375,30.7089881 L22.7332031,29.4068452 C22.2919875,28.7394643 21.7743563,28.1294048 21.2117188,27.5653571 C20.6490219,27.0013095 20.0405469,26.482381 19.3748344,26.0400595 L18.0760063,27.3421429 C17.1949406,26.8018452 16.2315813,26.4013095 15.2,26.1516667 L15.2,24.310119 C14.4326375,24.1538095 13.6381406,24.0683333 12.825,24.0683333" id="Fill-2" fill="#000000"></path>
            <path d="M12.825,30.0207143 C16.1025,30.0207143 18.7625,32.687381 18.7625,35.9730952 C18.7625,39.2588095 16.1025,41.9254762 12.825,41.9254762 C9.5475,41.9254762 6.8875,39.2588095 6.8875,35.9730952 C6.8875,32.687381 9.5475,30.0207143 12.825,30.0207143 Z M12.825,24.0683333 C12.0118,24.0683333 11.2173625,24.1538095 10.45,24.310119 L10.45,26.1516667 C9.41841875,26.4013095 8.45505938,26.8018452 7.57399375,27.3421429 L6.27516563,26.0400595 C5.60945313,26.482381 5.00091875,27.0013095 4.43828125,27.5653571 C3.87558438,28.1294048 3.3580125,28.7394643 2.91679688,29.4068452 L4.215625,30.7089881 C3.67667813,31.5922024 3.27714375,32.5579167 3.028125,33.5921429 L1.19124063,33.5921429 C1.0352625,34.3614286 0.95,35.1578571 0.95,35.9730952 C0.95,36.7883333 1.0352625,37.5847619 1.19124063,38.3540476 L3.028125,38.3540476 C3.27714375,39.3882143 3.67667813,40.3539881 4.215625,41.2372024 L2.91679688,42.5392857 C3.3580125,43.2067262 3.87558438,43.8167857 4.43828125,44.3808333 C5.00091875,44.944881 5.60945313,45.4638095 6.27516563,45.906131 L7.57399375,44.6040476 C8.45505938,45.1443452 9.41835938,45.544881 10.45,45.7945238 L10.45,47.6360119 C11.2173625,47.792381 12.0118,47.8778571 12.825,47.8778571 C13.6381406,47.8778571 14.4326375,47.792381 15.2,47.6360119 L15.2,45.7945238 C16.2315813,45.544881 17.1949406,45.1443452 18.0760063,44.6040476 L19.3748344,45.906131 C20.0405469,45.4638095 20.6490219,44.944881 21.2117188,44.3808333 C21.7743563,43.8167857 22.2919875,43.2067262 22.7332031,42.5392857 L21.434375,41.2372024 C21.9733219,40.3539881 22.3728563,39.3882143 22.621875,38.3540476 L24.4587594,38.3540476 C24.6147375,37.5847619 24.7,36.7883333 24.7,35.9730952 C24.7,35.1578571 24.6147375,34.3614286 24.4587594,33.5921429 L22.621875,33.5921429 C22.3728563,32.5579762 21.9733219,31.5922024 21.434375,30.7089881 L22.7332031,29.4068452 C22.2919875,28.7394643 21.7743563,28.1294048 21.2117188,27.5653571 C20.6490219,27.0013095 20.0405469,26.482381 19.3748344,26.0400595 L18.0760063,27.3421429 C17.1949406,26.8018452 16.2315813,26.4013095 15.2,26.1516667 L15.2,24.310119 C14.4326375,24.1538095 13.6381406,24.0683333 12.825,24.0683333 Z" id="Stroke-3" stroke="#2C2C2C" stroke-width="0.6" stroke-linecap="round" stroke-linejoin="round"></path>
            <path d="M16.9684844,35.9730952 C16.9684844,38.2672619 15.1133719,40.1270238 12.8249406,40.1270238 C10.5365688,40.1270238 8.68145625,38.2672619 8.68145625,35.9730952 C8.68145625,33.6789286 10.5365688,31.8191667 12.8249406,31.8191667 C15.1133719,31.8191667 16.9684844,33.6789286 16.9684844,35.9730952" id="Fill-4" fill="#020000"></path>
            <path d="M16.9684844,35.9730952 C16.9684844,33.6804762 15.1118281,31.8191667 12.825,31.8191667 C10.5381125,31.8191667 8.68145625,33.6804762 8.68145625,35.9730952 C8.68145625,38.2657143 10.5381125,40.1270238 12.825,40.1270238 C15.1118281,40.1270238 16.9684844,38.2657143 16.9684844,35.9730952 Z" id="Stroke-5" stroke="#000000" stroke-width="0.6"></path>
            <polyline id="Stroke-6" stroke="#FFFFFF" stroke-width="0.6" points="8.53592813 35.9965476 10.1527688 35.9965476 10.7605313 35.0720238 11.5824594 36.8741667 12.5820969 35.0720238 13.4362063 36.8741667 14.3494531 35.0720238 15.2106281 36.8741667 15.8001625 35.9988095 17.1140125 35.9988095"></polyline>
            <path d="M25.65,35.9730952 C25.65,43.0739286 19.9080219,48.8302381 12.825,48.8302381 C5.74197813,48.8302381 1.0658141e-14,43.0739286 1.0658141e-14,35.9730952 C1.0658141e-14,28.8723214 5.74197813,23.1159524 12.825,23.1159524 C19.9080219,23.1159524 25.65,28.8723214 25.65,35.9730952 Z" id="Stroke-7" stroke="#000000" stroke-width="0.6"></path>
            <polygon id="Fill-8" fill="#000000" points="25.6440625 36.1516667 35.8565625 36.1516667 35.8565625 35.1992857 25.6440625 35.1992857"></polygon>
            <polygon id="Fill-9" fill="#000000" points="35.1440031 48.0564286 35.8565031 48.0564286 35.8565031 36.1516667 35.1440031 36.1516667"></polygon>
            <path d="M35.5715031,49.5564286 C37.2340031,49.5564286 37.2340031,46.985 35.5715031,46.985 C33.9090625,46.985 33.9090625,49.5564286 35.5715031,49.5564286" id="Fill-10" fill="#000000"></path>
            <polygon id="Fill-11" fill="#000000" points="18.43 24.4463095 19.38 24.4463095 19.38 12.0653571 18.43 12.0653571"></polygon>
            <polygon id="Fill-12" fill="#000000" points="12.61125 23.0177381 13.56125 23.0177381 13.56125 1.8272619 12.61125 1.8272619"></polygon>
            <polygon id="Fill-13" fill="#000000" points="12.61125 1.82738095 28.04875 1.82738095 28.04875 0.875 12.61125 0.875"></polygon>
            <path d="M26.505,1.23214286 C26.505,2.89880952 29.07,2.89880952 29.07,1.23214286 C29.07,-0.410714286 26.505,-0.410714286 26.505,1.23214286" id="Fill-14" fill="#000000"></path>
            <path d="M17.634375,11.0416667 C17.634375,12.7083333 20.199375,12.7083333 20.199375,11.0416667 C20.199375,9.375 17.634375,9.375 17.634375,11.0416667" id="Fill-15" fill="#000000"></path>
        </g>
    </g>
</svg>