<?xml version="1.0" encoding="utf-8"?>
<!-- Generator: Adobe Illustrator 15.0.0, SVG Export Plug-In . SVG Version: 6.00 Build 0)  -->
<!DOCTYPE svg PUBLIC "-//W3C//DTD SVG 1.0//EN" "http://www.w3.org/TR/2001/REC-SVG-20010904/DTD/svg10.dtd">
<svg version="1.0" xmlns="http://www.w3.org/2000/svg" xmlns:xlink="http://www.w3.org/1999/xlink" x="0px" y="0px" width="216px"
	 height="216px" viewBox="0 0 216 216" enable-background="new 0 0 216 216" xml:space="preserve">
<g id="Layer_3">
	<circle fill="#EC2127" cx="108" cy="108" r="108"/>
</g>
<g id="Layer_1">
	<g>
		<g id="SPLINE_52_">
			<path d="M93.351,12.852l1.014,5.605l0.24,1.251l0.135,0.625l0.136,0.623l-0.064,0.013l-0.515-0.732l-0.514-0.724
				c-0.406-0.57-0.762-1.053-1.064-1.451l-3.424-4.476l-3.131,0.567l1.76,9.733l1.847-0.336l-1.009-5.583l-0.245-1.274l-0.137-0.63
				l-0.145-0.637l0.071-0.013l0.433,0.643l0.439,0.642c0.415,0.612,0.716,1.039,0.902,1.28l3.747,4.837l3.131-0.566l-1.761-9.734
				L93.351,12.852z"/>
		</g>
		<path d="M104.398,18.024c-0.105-1.374-0.381-2.257-0.827-2.652s-1.337-0.542-2.672-0.44c-1.371,0.104-2.244,0.388-2.622,0.854
			c-0.378,0.464-0.509,1.421-0.401,2.871c0.115,1.508,0.397,2.468,0.848,2.879c0.45,0.413,1.38,0.563,2.792,0.457
			c1.302-0.098,2.135-0.402,2.504-0.909C104.388,20.575,104.514,19.557,104.398,18.024z M102.604,20.181
			c-0.161,0.289-0.584,0.459-1.272,0.511c-0.713,0.055-1.168-0.043-1.366-0.29c-0.197-0.247-0.337-0.889-0.416-1.929
			c-0.069-0.911-0.019-1.497,0.148-1.759c0.169-0.263,0.599-0.42,1.288-0.472c0.68-0.052,1.123,0.038,1.329,0.269
			c0.207,0.232,0.343,0.788,0.41,1.67C102.805,19.225,102.764,19.893,102.604,20.181z"/>
		<g id="POLYLINE_48_">
			<polyline points="105.806,14.766 105.909,21.691 107.568,21.667 107.465,14.74 105.806,14.766 			"/>
		</g>
		<g id="POLYLINE_23_">
			<polyline points="105.762,11.802 105.783,13.186 107.442,13.161 107.421,11.777 105.762,11.802 			"/>
		</g>
		<g id="SPLINE_51_">
			<path d="M114.534,15.257c-0.387-0.288-1.157-0.458-2.309-0.507c-1.222-0.055-2.053,0.049-2.497,0.309
				c-0.44,0.262-0.68,0.787-0.713,1.579c-0.039,0.884,0.171,1.475,0.626,1.776c0.458,0.301,1.429,0.484,2.91,0.551
				c0.658,0.028,0.973,0.336,0.947,0.919c-0.026,0.609-0.566,0.889-1.611,0.843c-1.015-0.044-1.472-0.372-1.376-0.981
				c0.006-0.059,0.022-0.134,0.054-0.23l-1.722-0.078l-0.009,0.174c-0.036,0.806,0.156,1.366,0.577,1.679
				c0.42,0.315,1.223,0.497,2.406,0.55c1.231,0.055,2.09-0.071,2.58-0.375c0.489-0.305,0.753-0.88,0.791-1.725
				c0.034-0.791-0.121-1.322-0.466-1.594c-0.345-0.271-1.11-0.463-2.289-0.572c-0.877-0.083-1.389-0.164-1.538-0.243
				c-0.149-0.081-0.214-0.31-0.197-0.692c0.024-0.559,0.468-0.82,1.333-0.782c0.604,0.027,0.982,0.084,1.134,0.174
				c0.154,0.089,0.238,0.3,0.259,0.635l0.017,0.132l1.622,0.072C115.096,16.082,114.919,15.545,114.534,15.257z"/>
		</g>
		<path d="M122.454,16.416c-0.359-0.501-1.152-0.831-2.381-0.988c-1.277-0.164-2.167-0.043-2.667,0.359
			c-0.5,0.404-0.835,1.273-1.006,2.61c-0.192,1.504-0.109,2.517,0.252,3.035c0.364,0.52,1.227,0.867,2.593,1.041
			c2.012,0.258,3.104-0.285,3.276-1.626l0.034-0.267l-1.653-0.211c-0.054,0.438-0.181,0.711-0.379,0.818
			c-0.201,0.109-0.602,0.125-1.206,0.046c-0.622-0.079-1.024-0.246-1.206-0.497c-0.179-0.252-0.226-0.715-0.139-1.391
			c0.008-0.048,0.024-0.148,0.054-0.3l4.651,0.596l0.063-0.503C122.908,17.824,122.813,16.916,122.454,16.416z M121.198,18.151
			l-0.028,0.274l-2.999-0.385c0.085-0.661,0.232-1.079,0.44-1.25c0.212-0.173,0.624-0.219,1.237-0.142
			c0.633,0.082,1.033,0.214,1.201,0.404C121.218,17.238,121.267,17.605,121.198,18.151z"/>
		<path d="M130.537,18.095c-0.257-0.552-0.874-0.935-1.845-1.146c-1.133-0.246-1.916-0.042-2.351,0.611l-0.031-0.022l0.837-3.866
			l-1.621-0.352l-2.096,9.667l1.621,0.35l0.164-1.084l0.033,0.007c0.165,0.836,0.774,1.369,1.827,1.598
			c1.04,0.224,1.794,0.129,2.267-0.284c0.474-0.414,0.861-1.321,1.164-2.723C130.785,19.565,130.794,18.646,130.537,18.095z
			 M128.848,20.564c-0.207,0.953-0.431,1.544-0.673,1.771c-0.241,0.227-0.693,0.269-1.355,0.125c-0.63-0.138-1.006-0.37-1.124-0.7
			s-0.063-1.005,0.159-2.03c0.284-1.308,0.951-1.847,2.004-1.618c0.607,0.13,0.97,0.35,1.093,0.658
			C129.078,19.078,129.042,19.677,128.848,20.564z"/>
		<g id="SPLINE_50_">
			<path d="M130.927,24.704l1.59,0.48l1.177-3.907c0.316-1.05,0.867-1.457,1.653-1.219c0.55,0.165,0.721,0.602,0.506,1.31
				c-0.019,0.056-0.063,0.17-0.135,0.345l1.498,0.451l0.141-0.464c0.443-1.471,0.081-2.383-1.083-2.733
				c-0.814-0.246-1.513-0.08-2.104,0.501l-0.033-0.018l0.379-0.901l-1.588-0.479L130.927,24.704z"/>
		</g>
		<g id="POLYLINE_22_">
			<polyline points="139.088,20.024 136.735,26.54 138.295,27.103 140.649,20.589 139.088,20.024 			"/>
		</g>
		<g id="POLYLINE_21_">
			<polyline points="140.097,17.236 139.625,18.538 141.187,19.102 141.658,17.8 140.097,17.236 			"/>
		</g>
		<path d="M147.739,20.29l-1.57,3.625l-0.03-0.005c0.025-0.768-0.478-1.376-1.517-1.825c-0.895-0.388-1.614-0.438-2.152-0.149
			c-0.542,0.291-1.058,1.002-1.55,2.137c-0.607,1.406-0.85,2.409-0.723,3.007c0.129,0.6,0.695,1.118,1.702,1.554
			c0.995,0.432,1.804,0.342,2.421-0.27l0.023,0.018l-0.495,1.002l1.483,0.642l3.931-9.076L147.739,20.29z M145.24,26.039
			c-0.409,0.943-0.757,1.509-1.039,1.698c-0.283,0.188-0.732,0.148-1.342-0.116c-0.585-0.254-0.907-0.549-0.958-0.889
			c-0.055-0.338,0.118-0.97,0.52-1.891c0.346-0.798,0.655-1.28,0.929-1.449c0.272-0.17,0.691-0.13,1.261,0.116
			c0.59,0.255,0.929,0.548,1.012,0.873C145.707,24.706,145.58,25.258,145.24,26.039z"/>
		<path d="M153.905,26.719l-0.477,1.045l-0.03-0.018c0.085-0.881-0.355-1.584-1.324-2.109c-0.887-0.482-1.618-0.594-2.194-0.339
			c-0.575,0.254-1.173,0.954-1.794,2.102c-0.659,1.22-0.941,2.144-0.846,2.772c0.096,0.629,0.605,1.193,1.527,1.693
			c0.931,0.504,1.701,0.501,2.311-0.008l0.028,0.023l-0.743,1.371c-0.404,0.747-1.06,0.875-1.964,0.386
			c-0.515-0.278-0.815-0.515-0.902-0.708c-0.088-0.192-0.023-0.487,0.189-0.881l-1.414-0.767c-0.449,0.829-0.573,1.479-0.373,1.949
			c0.2,0.47,0.825,0.99,1.87,1.556c1.079,0.584,1.92,0.801,2.521,0.649c0.601-0.152,1.171-0.726,1.709-1.72l3.363-6.205
			L153.905,26.719z M152.259,29.695c-0.453,0.836-0.83,1.331-1.133,1.484c-0.302,0.152-0.739,0.073-1.314-0.237
			c-0.572-0.312-0.875-0.629-0.906-0.953c-0.03-0.325,0.187-0.915,0.653-1.773c0.437-0.806,0.796-1.28,1.078-1.421
			c0.284-0.142,0.705-0.06,1.267,0.244c0.586,0.316,0.898,0.638,0.943,0.965C152.89,28.327,152.693,28.893,152.259,29.695z"/>
		<path d="M161.377,32.079c-0.103-0.608-0.671-1.252-1.704-1.932c-1.079-0.708-1.928-0.992-2.558-0.849
			c-0.623,0.143-1.308,0.778-2.049,1.903c-0.834,1.27-1.201,2.215-1.104,2.839c0.097,0.625,0.723,1.316,1.871,2.074
			c1.695,1.114,2.915,1.106,3.659-0.022l0.149-0.225l-1.391-0.916c-0.243,0.367-0.477,0.556-0.703,0.566
			c-0.227,0.01-0.594-0.151-1.104-0.486c-0.524-0.347-0.812-0.671-0.862-0.976c-0.052-0.306,0.11-0.743,0.484-1.312
			c0.026-0.041,0.087-0.123,0.179-0.247l3.919,2.577l0.276-0.424C161.169,33.544,161.479,32.687,161.377,32.079z M159.485,33.085
			l-0.147,0.233l-2.522-1.66c0.364-0.557,0.681-0.868,0.945-0.931c0.263-0.063,0.655,0.075,1.17,0.416
			c0.531,0.352,0.833,0.646,0.903,0.888C159.904,32.274,159.787,32.625,159.485,33.085z"/>
		<g id="POLYLINE_20_">
			<polyline points="173.698,37.424 171.036,40.459 167.548,37.4 170.21,34.366 168.799,33.128 162.276,40.565 163.687,41.803 
				166.506,38.589 169.994,41.646 167.175,44.86 168.586,46.098 175.108,38.66 173.698,37.424 			"/>
		</g>
		<path d="M178.051,46.705c-0.047-0.556-0.498-1.289-1.35-2.201c-0.779-0.838-1.403-1.301-1.874-1.394
			c-0.469-0.09-1.006,0.146-1.614,0.714l1.157,1.24c0.473-0.442,1-0.354,1.575,0.264c0.4,0.427,0.598,0.77,0.598,1.028
			c0,0.258-0.198,0.571-0.593,0.94l-0.822,0.766l-0.02-0.021c0.219-0.538-0.065-1.228-0.846-2.064
			c-1.168-1.254-2.281-1.39-3.335-0.409c-1.039,0.973-0.99,2.073,0.154,3.299c0.787,0.844,1.542,1.146,2.266,0.909l0.02,0.037
			l-0.747,0.59l1.133,1.214l3.311-3.09C177.77,47.868,178.101,47.26,178.051,46.705z M174.136,49.008
			c-0.496,0.464-1.09,0.327-1.778-0.41c-0.423-0.453-0.647-0.797-0.679-1.035c-0.028-0.235,0.121-0.507,0.449-0.813
			c0.474-0.443,1.032-0.321,1.67,0.364C174.533,47.902,174.646,48.533,174.136,49.008z"/>
		<g id="SPLINE_49_">
			<path d="M178.438,55.079c-0.235-0.021-0.528-0.256-0.88-0.703c-0.447-0.57-0.63-1.005-0.549-1.305c0.08-0.3,0.5-0.749,1.26-1.346
				c0.784-0.617,1.333-0.939,1.638-0.964c0.307-0.026,0.664,0.222,1.072,0.743c0.576,0.732,0.546,1.348-0.088,1.846l1.017,1.294
				c0.77-0.606,1.163-1.185,1.175-1.736c0.014-0.551-0.349-1.296-1.092-2.239c-0.767-0.976-1.473-1.484-2.118-1.525
				c-0.645-0.038-1.515,0.372-2.61,1.23c-1.12,0.881-1.733,1.636-1.838,2.266c-0.105,0.628,0.246,1.456,1.052,2.483
				c1.1,1.397,2.088,1.88,2.963,1.449l0.89-0.57l0.188-0.147l-1.021-1.3C179.026,54.927,178.673,55.102,178.438,55.079z"/>
		</g>
		<g id="POLYLINE_19_">
			<polyline points="187.264,52.866 179.019,58.328 179.934,59.711 182.495,58.015 182.72,58.354 181.403,61.928 182.538,63.644 
				183.991,59.197 188.042,59.408 186.979,57.802 183.699,57.732 183.463,57.375 188.179,54.25 187.264,52.866 			"/>
		</g>
		<path d="M190.4,63.395c-0.621-1.13-1.243-1.779-1.863-1.945c-0.621-0.166-1.52,0.076-2.701,0.725
			c-1.331,0.73-2.097,1.396-2.304,1.993c-0.206,0.598,0.021,1.501,0.687,2.708c0.979,1.777,2.059,2.34,3.244,1.689l0.236-0.129
			l-0.804-1.459c-0.385,0.212-0.68,0.27-0.885,0.173c-0.204-0.097-0.454-0.413-0.748-0.945c-0.301-0.551-0.404-0.973-0.308-1.267
			c0.099-0.293,0.447-0.604,1.044-0.932c0.041-0.023,0.133-0.069,0.272-0.135l2.258,4.109l0.446-0.246
			c1.162-0.637,1.839-1.249,2.03-1.833C191.196,65.313,190.997,64.479,190.4,63.395z M189.662,65.135
			c-0.051,0.246-0.319,0.502-0.802,0.767l-0.237,0.14l-1.456-2.646c0.584-0.322,1.008-0.449,1.271-0.381
			c0.264,0.067,0.544,0.372,0.842,0.914C189.586,64.486,189.713,64.89,189.662,65.135z"/>
		<g id="SPLINE_48_">
			<path d="M186.287,70.649l0.686,1.511l3.715-1.684c0.998-0.452,1.667-0.305,2.009,0.444c0.236,0.523,0.018,0.938-0.655,1.244
				c-0.054,0.023-0.168,0.066-0.351,0.125l0.648,1.426l0.44-0.201c1.399-0.634,1.849-1.505,1.346-2.615
				c-0.352-0.774-0.94-1.193-1.761-1.254l-0.01-0.036l0.927-0.309l-0.685-1.51L186.287,70.649z"/>
		</g>
		<g id="SPLINE_47_">
			<path d="M199.271,84.355c0.979-0.303,1.56-0.752,1.743-1.351c0.186-0.599,0.058-1.607-0.384-3.029
				c-0.464-1.5-0.956-2.443-1.478-2.831c-0.522-0.388-1.333-0.411-2.437-0.069c-1.079,0.333-1.719,0.761-1.92,1.276
				c-0.198,0.517-0.108,1.536,0.267,3.058l0.242,1.01c0.141,0.568,0.163,0.959,0.065,1.175c-0.1,0.214-0.377,0.392-0.834,0.534
				c-0.617,0.191-1.048,0.201-1.286,0.033c-0.24-0.168-0.482-0.654-0.733-1.457c-0.317-1.029-0.438-1.683-0.36-1.958
				c0.075-0.276,0.444-0.517,1.103-0.722l0.199-0.069l-0.541-1.744l-0.343,0.114c-1.1,0.34-1.753,0.809-1.963,1.408
				c-0.209,0.597-0.083,1.641,0.376,3.125c0.512,1.652,1.026,2.665,1.544,3.035c0.516,0.372,1.401,0.362,2.656-0.026
				c1.022-0.316,1.629-0.73,1.823-1.243c0.195-0.513,0.116-1.485-0.242-2.917c-0.303-1.209-0.429-1.94-0.376-2.191
				c0.054-0.248,0.38-0.465,0.976-0.649c0.503-0.156,0.873-0.127,1.111,0.084c0.239,0.211,0.489,0.742,0.75,1.591
				c0.222,0.72,0.295,1.198,0.22,1.434c-0.077,0.234-0.373,0.457-0.891,0.662l-0.19,0.074l0.542,1.751L199.271,84.355z"/>
		</g>
		<path d="M200.175,90.173c-0.222-1.069-0.743-1.724-1.557-1.961v-0.037l1.021-0.147l-0.346-1.652l-9.689,2.028l0.353,1.695
			l3.895-0.816l0.006,0.029c-0.641,0.475-0.849,1.244-0.627,2.309c0.208,0.997,0.604,1.629,1.181,1.892
			c0.58,0.264,1.545,0.254,2.897-0.028c1.296-0.272,2.149-0.645,2.562-1.118C200.281,91.891,200.382,91.161,200.175,90.173z
			 M198.628,91.188c-0.23,0.248-0.809,0.469-1.735,0.663c-0.903,0.189-1.51,0.218-1.826,0.085c-0.314-0.13-0.537-0.514-0.669-1.147
			c-0.131-0.625-0.074-1.068,0.172-1.333c0.244-0.263,0.808-0.486,1.688-0.671c0.905-0.189,1.514-0.219,1.834-0.087
			c0.317,0.13,0.542,0.505,0.671,1.125C198.901,90.486,198.858,90.941,198.628,91.188z"/>
		<path d="M201.329,97.398c-0.135-1.135-0.367-1.88-0.691-2.229c-0.325-0.351-0.9-0.475-1.724-0.377l0.204,1.684
			c0.643-0.079,1.017,0.302,1.116,1.142c0.072,0.58,0.03,0.974-0.123,1.183c-0.153,0.208-0.499,0.344-1.034,0.408l-1.119,0.134
			l-0.002-0.028c0.493-0.308,0.672-1.03,0.534-2.167c-0.205-1.704-1.022-2.468-2.451-2.296c-1.414,0.169-2.021,1.087-1.822,2.752
			c0.139,1.146,0.571,1.837,1.294,2.071l-0.002,0.044l-0.953,0.035l0.198,1.648l4.497-0.542c0.96-0.116,1.584-0.413,1.871-0.89
			C201.408,99.493,201.479,98.636,201.329,97.398z M196.601,99.521c-0.674,0.081-1.074-0.379-1.192-1.382
			c-0.076-0.614-0.054-1.025,0.061-1.233c0.118-0.208,0.398-0.34,0.844-0.394c0.641-0.077,1.02,0.35,1.131,1.28
			C197.574,98.861,197.294,99.438,196.601,99.521z"/>
		<g id="SPLINE_46_">
			<path d="M196.499,106.972c-0.176-0.155-0.275-0.518-0.297-1.088c-0.026-0.724,0.083-1.184,0.323-1.377
				c0.241-0.195,0.848-0.311,1.811-0.345c0.999-0.037,1.631,0.025,1.892,0.187c0.263,0.159,0.404,0.569,0.429,1.23
				c0.034,0.933-0.354,1.413-1.158,1.441l0.059,1.644c0.98-0.035,1.638-0.271,1.972-0.709c0.335-0.438,0.48-1.255,0.438-2.452
				c-0.044-1.24-0.317-2.067-0.818-2.479c-0.497-0.413-1.44-0.592-2.832-0.544c-1.424,0.052-2.363,0.302-2.818,0.748
				c-0.454,0.447-0.658,1.321-0.612,2.625c0.063,1.776,0.578,2.749,1.542,2.917l1.054,0.063l0.237-0.008l-0.06-1.651
				C197.065,107.194,196.676,107.126,196.499,106.972z"/>
		</g>
		<path d="M201.355,110.648c-0.443-0.466-1.335-0.729-2.684-0.791c-1.514-0.07-2.516,0.095-3.005,0.498
			c-0.486,0.403-0.762,1.293-0.827,2.668c-0.094,2.027,0.537,3.071,1.887,3.133l0.269,0.013l0.077-1.664
			c-0.44-0.019-0.723-0.124-0.846-0.313c-0.123-0.19-0.173-0.588-0.143-1.196c0.027-0.628,0.161-1.041,0.397-1.241
			c0.236-0.201,0.694-0.284,1.377-0.252c0.047,0.001,0.147,0.012,0.303,0.027l-0.219,4.683l0.508,0.023
			c1.323,0.063,2.219-0.107,2.689-0.506c0.468-0.399,0.734-1.216,0.792-2.451C201.99,111.991,201.799,111.114,201.355,110.648z
			 M200.696,113.151c-0.03,0.638-0.132,1.046-0.304,1.229c-0.175,0.183-0.537,0.262-1.084,0.237l-0.277-0.007l0.139-3.017
			c0.667,0.031,1.093,0.144,1.282,0.34C200.644,112.128,200.724,112.535,200.696,113.151z"/>
		<g id="SPLINE_45_">
			<path d="M93.915,196.373l1.241-7.005l-1.175-0.208l-0.493,2.786c-0.147,0.83-0.621,1.176-1.422,1.035
				c-0.586-0.105-0.826-0.444-0.725-1.02l0.028-0.156l0.534-3.014l-1.175-0.208l-0.591,3.336c-0.191,1.082,0.285,1.727,1.43,1.93
				c0.788,0.142,1.341-0.063,1.664-0.605l0.024,0.01l-0.516,2.91L93.915,196.373z"/>
		</g>
		<g id="SPLINE_44_">
			<path d="M87.263,192.889l-0.258,1.083l1.162,0.276l0.257-1.086l0.629,0.151l0.209-0.883l-0.627-0.148l0.617-2.603
				c0.226-0.95-0.18-1.547-1.213-1.792c-1.038-0.246-1.677-0.007-1.917,0.717c-0.052,0.156-0.104,0.345-0.156,0.569l-0.058,0.244
				l0.988,0.234l0.046-0.192c0.128-0.544,0.382-0.772,0.756-0.683c0.342,0.081,0.46,0.345,0.353,0.795l-0.577,2.435l-1.866-0.443
				l-0.209,0.882L87.263,192.889z"/>
		</g>
		<g id="SPLINE_43_">
			<path d="M83.184,191.823l-0.308,1.072l1.146,0.332l0.311-1.071l0.621,0.179l0.251-0.872l-0.621-0.179l0.742-2.568
				c0.271-0.938-0.105-1.553-1.127-1.847c-1.024-0.296-1.674-0.087-1.948,0.624c-0.058,0.154-0.12,0.34-0.183,0.561l-0.07,0.24
				l0.978,0.281l0.055-0.191c0.156-0.538,0.419-0.753,0.789-0.647c0.338,0.099,0.441,0.37,0.314,0.814l-0.695,2.402l-1.841-0.531
				l-0.252,0.87L83.184,191.823z"/>
		</g>
		<path d="M81.541,183.862l-0.952,2.699l-0.02-0.009c-0.054-0.571-0.447-0.984-1.186-1.247c-0.69-0.243-1.226-0.234-1.603,0.022
			c-0.379,0.256-0.733,0.853-1.063,1.79c-0.316,0.898-0.405,1.562-0.268,1.993c0.138,0.43,0.548,0.765,1.232,1.006
			c0.742,0.262,1.336,0.187,1.787-0.225l0.022,0.013l-0.29,0.683l1.146,0.404l2.369-6.712L81.541,183.862z M79.998,188.226
			c-0.221,0.625-0.429,1.012-0.63,1.16c-0.199,0.148-0.513,0.146-0.942-0.007c-0.459-0.163-0.721-0.36-0.788-0.594
			c-0.067-0.232,0.013-0.671,0.239-1.313c0.221-0.625,0.431-1.011,0.629-1.155c0.198-0.144,0.516-0.138,0.955,0.017
			c0.432,0.152,0.683,0.354,0.754,0.604C80.284,187.187,80.212,187.617,79.998,188.226z"/>
		<g id="SPLINE_42_">
			<path d="M71.45,187.295c0.187,0.292,0.661,0.601,1.424,0.927c0.809,0.346,1.395,0.486,1.757,0.424
				c0.363-0.063,0.658-0.359,0.881-0.88c0.25-0.585,0.258-1.039,0.026-1.356c-0.232-0.317-0.838-0.687-1.82-1.106
				c-0.434-0.187-0.568-0.472-0.404-0.858c0.172-0.403,0.605-0.456,1.299-0.16c0.67,0.286,0.896,0.625,0.678,1.01l-0.094,0.142
				l1.14,0.487l0.049-0.114c0.229-0.533,0.24-0.958,0.036-1.276c-0.205-0.318-0.698-0.646-1.48-0.98
				c-0.814-0.348-1.425-0.483-1.832-0.401c-0.407,0.081-0.729,0.401-0.97,0.96c-0.225,0.524-0.254,0.92-0.089,1.191
				c0.163,0.27,0.629,0.592,1.395,0.965c0.57,0.277,0.893,0.461,0.974,0.551c0.081,0.093,0.066,0.265-0.042,0.517
				c-0.16,0.37-0.524,0.433-1.096,0.189c-0.399-0.171-0.638-0.304-0.719-0.403c-0.081-0.098-0.084-0.263-0.014-0.493l0.023-0.093
				l-1.073-0.458C71.279,186.598,71.262,187.004,71.45,187.295z"/>
		</g>
		<g id="POLYLINE_18_">
			<polyline points="69.88,186.808 70.436,185.652 69.361,185.134 68.805,186.289 69.88,186.808 			"/>
		</g>
		<g id="POLYLINE_17_">
			<polyline points="71.486,183.475 72.042,182.32 70.967,181.802 70.411,182.958 71.486,183.475 			"/>
		</g>
		<g id="POLYLINE_16_">
			<polyline points="62.809,185.537 72.06,180.057 71.274,179.626 62.024,185.106 62.809,185.537 			"/>
		</g>
		<g id="POLYLINE_15_">
			<polyline points="56.982,181.894 66.627,177.145 65.877,176.656 56.231,181.404 56.982,181.894 			"/>
		</g>
		<g id="SPLINE_41_">
			<path d="M59.196,174.781l-0.948-0.722l-1.792,2.35c-0.461,0.605-1.011,0.663-1.649,0.178c-0.421-0.32-0.54-0.646-0.359-0.975
				l0.191-0.293l0.114-0.15l1.82-2.387l-0.949-0.725l-2.056,2.699c-0.666,0.873-0.53,1.666,0.405,2.38
				c0.645,0.49,1.241,0.567,1.79,0.231l0.017,0.02l-0.545,0.64l0.94,0.715L59.196,174.781z"/>
		</g>
		<path d="M53.171,169.883c-0.707-0.616-1.282-0.892-1.729-0.825c-0.446,0.065-1.033,0.517-1.76,1.349
			c-0.651,0.745-0.965,1.333-0.942,1.759c0.023,0.428,0.396,0.958,1.121,1.591c0.746,0.654,1.332,0.958,1.76,0.918
			c0.428-0.042,0.985-0.456,1.674-1.243c0.715-0.821,1.064-1.448,1.049-1.886C54.33,171.108,53.938,170.554,53.171,169.883z
			 M52.357,172.667c-0.432,0.494-0.757,0.765-0.978,0.811c-0.22,0.046-0.517-0.096-0.89-0.422c-0.369-0.32-0.546-0.595-0.532-0.817
			c0.015-0.224,0.23-0.572,0.65-1.052c0.496-0.567,0.858-0.883,1.086-0.947c0.228-0.065,0.529,0.067,0.903,0.395
			c0.388,0.339,0.568,0.619,0.541,0.845C53.111,171.707,52.851,172.102,52.357,172.667z"/>
		<g id="POLYLINE_14_">
			<polyline points="47.308,171.359 50.76,167.768 49.899,166.94 46.448,170.534 47.308,171.359 			"/>
		</g>
		<g id="POLYLINE_13_">
			<polyline points="45.83,172.895 46.52,172.178 45.659,171.351 44.969,172.069 45.83,172.895 			"/>
		</g>
		<g id="SPLINE_40_">
			<path d="M43.115,166.782c0.057,0.341,0.371,0.813,0.943,1.416c0.605,0.637,1.088,0.999,1.446,1.083
				c0.358,0.086,0.746-0.068,1.158-0.461c0.461-0.437,0.647-0.849,0.561-1.232c-0.087-0.385-0.499-0.963-1.233-1.737
				c-0.325-0.342-0.336-0.659-0.032-0.949c0.317-0.302,0.736-0.179,1.255,0.368c0.502,0.529,0.576,0.927,0.224,1.196l-0.143,0.094
				l0.854,0.899l0.09-0.088c0.422-0.399,0.6-0.785,0.539-1.157c-0.063-0.373-0.385-0.868-0.972-1.485
				c-0.61-0.642-1.119-1.006-1.525-1.093c-0.405-0.087-0.828,0.079-1.269,0.498c-0.413,0.394-0.598,0.745-0.554,1.059
				c0.042,0.313,0.343,0.792,0.899,1.438c0.412,0.479,0.637,0.779,0.676,0.892c0.038,0.116-0.044,0.27-0.244,0.458
				c-0.292,0.276-0.653,0.191-1.08-0.261c-0.298-0.315-0.465-0.532-0.5-0.657c-0.036-0.121,0.027-0.274,0.183-0.456l0.058-0.075
				l-0.805-0.848C43.237,166.074,43.059,166.44,43.115,166.782z"/>
		</g>
		<path d="M44.217,160.708c-0.936-1.12-1.776-1.368-2.522-0.743l-0.148,0.122l0.768,0.919c0.244-0.204,0.444-0.285,0.602-0.245
			c0.157,0.041,0.377,0.229,0.658,0.565c0.289,0.345,0.42,0.629,0.391,0.85c-0.028,0.222-0.231,0.488-0.607,0.803l-0.173,0.131
			l-2.163-2.587l-0.279,0.233c-0.731,0.612-1.124,1.136-1.18,1.577c-0.055,0.44,0.202,1.002,0.772,1.683
			c0.595,0.713,1.123,1.085,1.584,1.117c0.461,0.031,1.063-0.266,1.806-0.887c0.837-0.699,1.288-1.273,1.35-1.724
			C45.138,162.073,44.851,161.468,44.217,160.708z M41.774,164.017c-0.196-0.013-0.436-0.188-0.721-0.529
			c-0.293-0.354-0.439-0.618-0.437-0.801c0.002-0.18,0.155-0.398,0.459-0.652l0.148-0.131l1.393,1.669
			C42.25,163.878,41.968,164.027,41.774,164.017z"/>
		<path d="M41.522,157.4l-0.605,0.506l-0.015-0.021c0.313-0.529,0.239-1.106-0.217-1.73c-0.451-0.619-0.901-0.929-1.353-0.933
			c-0.453-0.002-1.095,0.301-1.93,0.908c-0.762,0.559-1.207,1.045-1.332,1.466c-0.126,0.42,0.022,0.92,0.444,1.498
			c0.492,0.674,1.011,0.939,1.554,0.794l0.007,0.028l-2.298,1.676l0.704,0.965l5.746-4.194L41.522,157.4z M40.422,157.939
			c-0.095,0.232-0.445,0.571-1.055,1.017c-0.778,0.566-1.395,0.538-1.851-0.09c-0.263-0.356-0.354-0.648-0.271-0.875
			c0.082-0.225,0.385-0.529,0.913-0.912c0.566-0.416,0.969-0.626,1.207-0.633c0.238-0.006,0.5,0.188,0.788,0.581
			C40.427,157.402,40.517,157.707,40.422,157.939z"/>
		<g id="SPLINE_39_">
			<path d="M38.973,153.854l-0.632-1.013l-2.488,1.556c-0.668,0.417-1.159,0.376-1.473-0.124c-0.218-0.351-0.103-0.667,0.349-0.949
				c0.034-0.023,0.113-0.063,0.236-0.124l-0.597-0.954l-0.297,0.185c-0.937,0.586-1.173,1.251-0.708,1.993
				c0.324,0.518,0.783,0.761,1.375,0.724l0.011,0.026l-0.631,0.308l0.633,1.012L38.973,153.854z"/>
		</g>
		<g id="POLYLINE_12_">
			<polyline points="32.349,152.634 36.646,150.113 36.042,149.083 31.746,151.605 32.349,152.634 			"/>
		</g>
		<g id="POLYLINE_11_">
			<polyline points="30.512,153.714 31.369,153.209 30.766,152.18 29.908,152.684 30.512,153.714 			"/>
		</g>
		<path d="M34.714,146.56c-0.362-0.692-0.855-1.004-1.478-0.942l-0.005-0.021l0.731-0.338l-0.541-1.028l-6.297,3.307l0.555,1.058
			l2.514-1.322l0.014,0.016c-0.361,0.417-0.353,0.987,0.026,1.706c0.325,0.62,0.706,0.975,1.139,1.055
			c0.434,0.083,1.045-0.083,1.832-0.496c0.975-0.512,1.563-0.965,1.762-1.357C35.165,147.804,35.082,147.257,34.714,146.56z
			 M33.856,147.622c-0.124,0.214-0.505,0.489-1.145,0.826c-0.554,0.289-0.945,0.422-1.174,0.393
			c-0.229-0.028-0.448-0.24-0.655-0.634c-0.217-0.412-0.274-0.727-0.173-0.947c0.099-0.221,0.422-0.473,0.962-0.756
			c0.656-0.343,1.105-0.505,1.349-0.481c0.244,0.022,0.477,0.247,0.701,0.671C33.934,147.098,33.979,147.408,33.856,147.622z"/>
		<path d="M34.167,140.532c-0.329-0.818-0.695-1.322-1.099-1.514c-0.404-0.192-0.982-0.137-1.735,0.167l-4.708,1.896l0.445,1.105
			l0.743-0.36l0.01,0.023c-0.452,0.448-0.531,1.039-0.235,1.774c0.271,0.674,0.625,1.072,1.06,1.196
			c0.436,0.121,1.088,0.008,1.958-0.342c0.924-0.373,1.505-0.754,1.74-1.147c0.236-0.393,0.212-0.939-0.07-1.637
			c-0.284-0.707-0.713-1.059-1.284-1.057l-0.005-0.025l1.041-0.417c0.567-0.229,0.988,0,1.265,0.687
			c0.156,0.391,0.214,0.657,0.175,0.807c-0.04,0.146-0.21,0.28-0.51,0.401l0.432,1.073c0.628-0.253,0.996-0.556,1.1-0.91
			C34.593,141.898,34.485,141.325,34.167,140.532z M31.271,141.727c0.175,0.435,0.196,0.748,0.064,0.941
			c-0.131,0.194-0.522,0.423-1.174,0.685c-0.612,0.248-1.029,0.345-1.251,0.292c-0.221-0.051-0.416-0.29-0.589-0.715
			c-0.177-0.445-0.205-0.767-0.079-0.967c0.125-0.201,0.492-0.424,1.102-0.667c0.635-0.255,1.071-0.355,1.308-0.302
			C30.889,141.047,31.096,141.292,31.271,141.727z"/>
		<path d="M30.06,136.126c-0.5-1.37-1.208-1.889-2.122-1.555l-0.182,0.066l0.413,1.125c0.296-0.105,0.512-0.115,0.648-0.024
			c0.134,0.092,0.275,0.342,0.427,0.752c0.155,0.425,0.181,0.736,0.082,0.933c-0.102,0.199-0.383,0.383-0.843,0.55
			c-0.033,0.012-0.103,0.033-0.211,0.065l-1.157-3.167l-0.343,0.126c-0.895,0.326-1.441,0.688-1.644,1.083
			c-0.2,0.396-0.147,1.01,0.158,1.847c0.317,0.87,0.688,1.399,1.112,1.583c0.423,0.186,1.089,0.111,2-0.221
			c1.025-0.375,1.644-0.764,1.854-1.166C30.465,137.722,30.401,137.055,30.06,136.126z M26.641,138.413
			c-0.181-0.078-0.347-0.325-0.5-0.742c-0.158-0.431-0.204-0.73-0.141-0.901c0.065-0.168,0.282-0.321,0.655-0.458l0.184-0.073
			l0.745,2.041C27.134,138.446,26.819,138.489,26.641,138.413z"/>
		<g id="POLYLINE_10_">
			<polyline points="29.013,133.269 27.791,133.652 27.433,132.513 28.656,132.129 29.013,133.269 			"/>
		</g>
		<g id="SPLINE_38_">
			<path d="M28.327,131.127l-0.303-1.155l-2.857,0.751c-0.736,0.193-1.206-0.099-1.41-0.873c-0.134-0.513-0.028-0.841,0.317-0.99
				l0.331-0.114l0.183-0.048l2.903-0.764l-0.304-1.153l-3.281,0.864c-1.061,0.278-1.444,0.988-1.144,2.126
				c0.206,0.783,0.629,1.209,1.27,1.284l0.001,0.026l-0.823,0.168l0.299,1.144L28.327,131.127z"/>
		</g>
		<path d="M26.595,123.575c-0.277-1.433-0.893-2.055-1.848-1.873l-0.189,0.038l0.228,1.176c0.311-0.057,0.525-0.033,0.642,0.08
			c0.12,0.111,0.221,0.383,0.304,0.812c0.085,0.444,0.062,0.754-0.069,0.935c-0.132,0.178-0.438,0.315-0.919,0.406
			c-0.034,0.006-0.106,0.019-0.216,0.033l-0.639-3.311l-0.359,0.068c-0.935,0.181-1.533,0.449-1.795,0.809
			c-0.261,0.359-0.308,0.974-0.138,1.846c0.175,0.911,0.457,1.492,0.845,1.742c0.39,0.25,1.058,0.283,2.01,0.1
			c1.071-0.207,1.744-0.491,2.016-0.855C26.739,125.215,26.784,124.547,26.595,123.575z M22.855,125.289
			c-0.166-0.104-0.291-0.375-0.375-0.813c-0.086-0.448-0.084-0.752,0.003-0.91c0.091-0.157,0.331-0.274,0.719-0.348l0.193-0.044
			l0.413,2.136C23.338,125.4,23.019,125.393,22.855,125.289z"/>
		<g id="SPLINE_35_">
			<path d="M20.894,119.945l-1.105,0.149l0.16,1.182l1.106-0.148l0.085,0.639l0.897-0.12l-0.085-0.639l2.649-0.358
				c0.967-0.132,1.38-0.724,1.237-1.777c-0.142-1.058-0.595-1.567-1.356-1.531c-0.165,0.009-0.36,0.026-0.587,0.058l-0.249,0.034
				l0.135,1.005l0.196-0.024c0.554-0.076,0.857,0.077,0.909,0.46c0.047,0.348-0.158,0.552-0.616,0.614l-2.479,0.335l-0.256-1.9
				l-0.898,0.121L20.894,119.945z"/>
		</g>
		<g id="SPLINE_34_">
			<path d="M113.123,203.627l-0.016-0.178c-0.036-0.462,0.004-0.747,0.12-0.856c0.117-0.107,0.559-0.264,1.321-0.466
				c0.922-0.248,1.503-0.512,1.744-0.79c0.241-0.279,0.33-0.8,0.269-1.564c-0.064-0.809-0.278-1.345-0.643-1.606
				c-0.365-0.261-1.026-0.354-1.983-0.279c-0.979,0.077-1.627,0.275-1.945,0.585c-0.318,0.313-0.443,0.882-0.377,1.707l0.021,0.276
				l1.223-0.096l-0.021-0.28c-0.04-0.479,0.01-0.785,0.145-0.919c0.134-0.135,0.476-0.225,1.03-0.269
				c0.536-0.042,0.879-0.008,1.034,0.102c0.152,0.111,0.248,0.394,0.283,0.849c0.037,0.477-0.011,0.776-0.146,0.902
				c-0.133,0.125-0.581,0.287-1.344,0.487c-0.92,0.24-1.497,0.485-1.726,0.732c-0.233,0.248-0.318,0.719-0.265,1.414l0.107,1.338
				l4.968-0.396l-0.078-0.987L113.123,203.627z"/>
		</g>
		<g id="POLYLINE_9_">
			<polyline points="119.65,197.31 117.829,199.583 118.682,200.271 120.133,198.343 120.925,203.788 122.164,203.608 
				121.215,197.083 119.65,197.31 			"/>
		</g>
		<path d="M129.332,200.055c-0.156-0.723-0.412-1.181-0.769-1.378c-0.36-0.2-0.954-0.21-1.781-0.035
			c-0.845,0.18-1.328,0.5-1.452,0.961l-0.022,0.005l-0.236-1.11c-0.103-0.489-0.089-0.81,0.042-0.965
			c0.131-0.154,0.516-0.302,1.151-0.437c0.438-0.093,0.734-0.107,0.89-0.043c0.156,0.062,0.265,0.246,0.329,0.549l0.028,0.147
			l1.211-0.259l-0.037-0.17c-0.137-0.644-0.397-1.048-0.783-1.22c-0.386-0.173-1.02-0.164-1.901,0.024
			c-1.208,0.259-1.908,0.596-2.096,1.015c-0.192,0.418-0.109,1.449,0.239,3.085c0.282,1.326,0.609,2.13,0.977,2.407
			c0.37,0.279,1.131,0.296,2.282,0.05c0.937-0.2,1.539-0.479,1.8-0.838C129.466,201.485,129.51,200.888,129.332,200.055z
			 M128.116,201.323c-0.116,0.146-0.453,0.276-1.015,0.397c-0.585,0.125-0.965,0.138-1.137,0.039
			c-0.173-0.097-0.317-0.409-0.427-0.934c-0.077-0.363-0.045-0.613,0.096-0.75c0.14-0.136,0.498-0.269,1.074-0.391
			c0.541-0.115,0.892-0.132,1.053-0.053c0.161,0.081,0.288,0.341,0.381,0.78C128.24,200.875,128.229,201.178,128.116,201.323z"/>
		<path d="M135.075,197.138c-0.403-1.418-0.789-2.254-1.161-2.513c-0.373-0.254-1.146-0.216-2.32,0.116
			c-0.905,0.256-1.473,0.573-1.701,0.95c-0.23,0.377-0.228,0.98,0.008,1.816c0.203,0.711,0.486,1.149,0.852,1.305
			c0.365,0.16,0.979,0.118,1.849-0.128c0.77-0.217,1.199-0.564,1.283-1.038l0.022-0.005l0.262,0.925
			c0.168,0.591,0.204,0.97,0.108,1.134c-0.096,0.165-0.448,0.333-1.06,0.505c-0.565,0.16-0.923,0.214-1.08,0.159
			c-0.155-0.056-0.292-0.284-0.405-0.687l-1.171,0.331l0.062,0.221c0.177,0.625,0.465,1.006,0.863,1.141
			c0.401,0.137,1.053,0.075,1.965-0.185c1.18-0.334,1.855-0.709,2.023-1.126C135.642,199.641,135.508,198.667,135.075,197.138z
			 M133.576,197.196c-0.113,0.145-0.457,0.299-1.031,0.461c-0.542,0.152-0.896,0.194-1.063,0.124
			c-0.165-0.068-0.31-0.323-0.432-0.759c-0.124-0.436-0.135-0.729-0.034-0.882c0.1-0.155,0.4-0.302,0.897-0.445
			c0.609-0.173,1.002-0.22,1.183-0.148c0.184,0.072,0.339,0.344,0.472,0.815C133.686,196.773,133.688,197.051,133.576,197.196z"/>
		<g id="POLYLINE_8_">
			<polyline points="137.208,199.995 136.834,198.865 137.886,198.519 138.259,199.647 137.208,199.995 			"/>
		</g>
		<g id="SPLINE_31_">
			<path d="M139.474,199.286l1.03-0.406l-0.979-2.491c-0.273-0.695-0.092-1.167,0.539-1.416c0.306-0.121,0.528-0.143,0.667-0.066
				c0.139,0.075,0.278,0.291,0.418,0.649l1.046,2.661l1.028-0.404l-0.986-2.515c-0.268-0.681-0.09-1.144,0.538-1.39
				c0.5-0.195,0.87,0.01,1.109,0.617l1.031,2.622l1.031-0.404l-1.12-2.845c-0.394-1.001-1.086-1.308-2.082-0.916
				c-0.685,0.269-1.021,0.708-1.015,1.317l-0.019,0.006c-0.296-0.495-0.829-0.591-1.607-0.286c-0.665,0.261-1.009,0.671-1.034,1.23
				l-0.022,0.003l-0.233-0.67l-1.031,0.404L139.474,199.286z"/>
		</g>
		<g id="POLYLINE_7_">
			<polyline points="145.24,191.938 147.162,196.137 148.167,195.679 146.247,191.478 145.24,191.938 			"/>
		</g>
		<g id="POLYLINE_6_">
			<polyline points="144.418,190.143 144.803,190.98 145.81,190.521 145.424,189.682 144.418,190.143 			"/>
		</g>
		<g id="SPLINE_30_">
			<path d="M150.408,189.671c-0.316-0.04-0.821,0.111-1.508,0.457c-0.729,0.367-1.176,0.698-1.349,0.994
				c-0.174,0.296-0.14,0.679,0.099,1.152c0.265,0.526,0.58,0.802,0.946,0.827c0.362,0.026,0.987-0.185,1.87-0.629
				c0.392-0.196,0.676-0.122,0.85,0.227c0.183,0.363-0.038,0.702-0.662,1.016c-0.605,0.305-0.978,0.263-1.123-0.121l-0.042-0.151
				l-1.028,0.519l0.054,0.103c0.24,0.481,0.536,0.743,0.883,0.789c0.347,0.043,0.874-0.11,1.578-0.467
				c0.734-0.368,1.194-0.722,1.378-1.058c0.185-0.337,0.151-0.757-0.101-1.261c-0.238-0.471-0.502-0.729-0.792-0.775
				c-0.29-0.045-0.795,0.093-1.517,0.413c-0.538,0.237-0.862,0.358-0.973,0.36c-0.113,0.003-0.227-0.11-0.342-0.336
				c-0.169-0.334,0.006-0.63,0.521-0.891c0.36-0.182,0.599-0.271,0.716-0.269c0.119,0.001,0.238,0.099,0.358,0.285l0.052,0.072
				l0.966-0.488C151.006,189.97,150.729,189.713,150.408,189.671z"/>
		</g>
		<g id="SPLINE_29_">
			<path d="M154.676,187.288c-0.32-0.024-0.814,0.154-1.483,0.534c-0.706,0.404-1.139,0.758-1.296,1.063
				c-0.154,0.305-0.103,0.687,0.159,1.144c0.292,0.513,0.622,0.772,0.987,0.778c0.366,0.008,0.977-0.234,1.837-0.725
				c0.379-0.218,0.666-0.157,0.859,0.183c0.2,0.352-0.002,0.702-0.609,1.049c-0.587,0.334-0.962,0.313-1.125-0.064l-0.052-0.149
				l-0.998,0.572l0.058,0.099c0.266,0.467,0.573,0.715,0.922,0.743c0.349,0.026,0.868-0.155,1.552-0.548
				c0.711-0.405,1.153-0.781,1.322-1.127c0.167-0.348,0.11-0.764-0.168-1.252c-0.262-0.459-0.538-0.705-0.83-0.735
				c-0.292-0.031-0.79,0.134-1.494,0.491c-0.522,0.267-0.842,0.401-0.954,0.409c-0.111,0.01-0.232-0.098-0.358-0.317
				c-0.185-0.323-0.026-0.629,0.475-0.915c0.349-0.2,0.583-0.303,0.7-0.306c0.118-0.004,0.243,0.083,0.372,0.267l0.056,0.068
				l0.94-0.536C155.288,187.554,154.998,187.313,154.676,187.288z"/>
		</g>
		<g id="POLYLINE_5_">
			<polyline points="155.784,186.361 158.221,190.283 159.162,189.699 156.724,185.777 155.784,186.361 			"/>
		</g>
		<g id="POLYLINE_4_">
			<polyline points="154.742,184.682 155.228,185.465 156.168,184.882 155.681,184.098 154.742,184.682 			"/>
		</g>
		<path d="M162.326,184.679c-0.514-0.762-0.964-1.183-1.354-1.264c-0.391-0.079-0.955,0.129-1.693,0.629
			c-0.76,0.511-1.173,0.966-1.236,1.359c-0.066,0.393,0.174,0.993,0.716,1.795c0.565,0.835,1.045,1.298,1.443,1.387
			c0.395,0.089,0.984-0.129,1.767-0.658c0.721-0.487,1.103-0.938,1.149-1.354S162.9,185.527,162.326,184.679z M161.43,187.236
			c-0.395,0.267-0.69,0.361-0.885,0.284c-0.197-0.078-0.49-0.404-0.879-0.981c-0.342-0.504-0.506-0.861-0.495-1.068
			c0.011-0.208,0.207-0.44,0.589-0.698c0.375-0.254,0.661-0.348,0.858-0.282c0.196,0.064,0.458,0.342,0.79,0.829
			c0.391,0.579,0.587,0.979,0.592,1.199C162.002,186.74,161.812,186.979,161.43,187.236z"/>
		<g id="SPLINE_26_">
			<path d="M164.617,186.033l0.881-0.669l-1.653-2.183c-0.427-0.56-0.344-1.066,0.25-1.516c0.389-0.297,0.708-0.323,0.958-0.079
				l0.215,0.242l0.106,0.139l1.681,2.219l0.881-0.669l-1.899-2.503c-0.615-0.812-1.357-0.888-2.227-0.229
				c-0.599,0.453-0.815,0.967-0.65,1.542l-0.022,0.011l-0.434-0.646l-0.874,0.662L164.617,186.033z"/>
		</g>
		<g id="POLYLINE_3_">
			<polyline points="168.845,182.763 168.094,181.843 168.95,181.142 169.702,182.061 168.845,182.763 			"/>
		</g>
		<g id="SPLINE_21_">
			<path d="M170.297,175.711c-0.317,0.042-0.766,0.318-1.342,0.827c-0.611,0.539-0.962,0.974-1.052,1.304
				c-0.091,0.33,0.038,0.693,0.388,1.087c0.392,0.442,0.765,0.629,1.123,0.561c0.359-0.066,0.909-0.43,1.649-1.083
				c0.33-0.29,0.621-0.29,0.882,0.002c0.268,0.306,0.141,0.689-0.384,1.151c-0.506,0.447-0.879,0.504-1.115,0.167l-0.081-0.135
				l-0.863,0.762l0.078,0.087c0.356,0.402,0.708,0.58,1.054,0.536c0.347-0.045,0.817-0.328,1.409-0.85
				c0.614-0.545,0.968-1.004,1.063-1.377c0.095-0.374-0.047-0.771-0.418-1.194c-0.351-0.396-0.671-0.577-0.964-0.547
				c-0.291,0.029-0.744,0.29-1.361,0.784c-0.458,0.367-0.742,0.566-0.849,0.597c-0.108,0.031-0.246-0.047-0.415-0.239
				c-0.249-0.28-0.155-0.611,0.275-0.994c0.301-0.267,0.51-0.413,0.625-0.441c0.114-0.028,0.254,0.031,0.419,0.183l0.067,0.056
				l0.812-0.715C170.948,175.849,170.617,175.672,170.297,175.711z"/>
		</g>
		<g id="SPLINE_20_">
			<path d="M175.361,176.982l-2.618-2.724l0.827-0.796l-0.581-0.607l-0.83,0.796l-0.341-0.356c-0.335-0.348-0.328-0.691,0.024-1.026
				c0.077-0.076,0.183-0.15,0.316-0.23l-0.6-0.624c-0.151,0.132-0.268,0.236-0.347,0.313c-0.479,0.461-0.734,0.859-0.758,1.197
				c-0.028,0.336,0.162,0.715,0.569,1.138l0.34,0.355l-0.469,0.451l0.582,0.606l0.471-0.452l2.617,2.723L175.361,176.982z"/>
		</g>
		<g id="POLYLINE_2_">
			<polyline points="176.65,175.71 175.806,174.876 176.582,174.088 177.428,174.922 176.65,175.71 			"/>
		</g>
		<g id="SPLINE_17_">
			<path d="M179.415,171.351c0.011,0.16-0.111,0.377-0.368,0.657c-0.327,0.357-0.593,0.524-0.8,0.504
				c-0.205-0.021-0.544-0.249-1.02-0.683c-0.491-0.451-0.765-0.775-0.813-0.975c-0.05-0.198,0.075-0.46,0.373-0.783
				c0.419-0.459,0.827-0.507,1.225-0.145l0.74-0.808c-0.483-0.442-0.905-0.637-1.269-0.586c-0.362,0.052-0.815,0.372-1.354,0.962
				c-0.561,0.61-0.818,1.128-0.773,1.558c0.042,0.429,0.407,0.956,1.093,1.583c0.699,0.643,1.261,0.963,1.687,0.964
				c0.427,0.001,0.931-0.319,1.519-0.961c0.801-0.874,1.012-1.577,0.633-2.106l-0.47-0.522l-0.12-0.106l-0.742,0.812
				C179.249,170.982,179.402,171.195,179.415,171.351z"/>
		</g>
		<path d="M183.554,168.024l0.704-0.854l-2.331-1.918c-0.498-0.41-0.927-0.575-1.291-0.494c-0.362,0.081-0.81,0.442-1.337,1.083
			c-0.485,0.59-0.739,1.042-0.756,1.36c-0.021,0.318,0.184,0.654,0.612,1.004l0.718-0.872c-0.332-0.274-0.318-0.629,0.039-1.064
			c0.248-0.3,0.459-0.463,0.627-0.485c0.17-0.023,0.396,0.082,0.675,0.311l0.577,0.477l-0.013,0.013
			c-0.375-0.096-0.806,0.15-1.292,0.74c-0.726,0.883-0.719,1.63,0.021,2.239c0.733,0.605,1.457,0.477,2.166-0.387
			c0.49-0.593,0.623-1.119,0.403-1.577l0.021-0.019L183.554,168.024z M182.387,168.356c-0.261,0.319-0.47,0.499-0.624,0.538
			c-0.153,0.042-0.346-0.034-0.577-0.225c-0.334-0.276-0.302-0.654,0.098-1.135c0.453-0.554,0.861-0.683,1.218-0.389
			C182.854,167.433,182.814,167.839,182.387,168.356z"/>
		<g id="POLYLINE_1_">
			<polyline points="184.986,166.192 184.041,165.473 184.711,164.593 185.658,165.312 184.986,166.192 			"/>
		</g>
		<g id="SPLINE_8_">
			<path d="M184.336,159.262l2.064,1.45c0.695,0.489,0.838,1.021,0.433,1.604c-0.198,0.28-0.379,0.431-0.544,0.448
				c-0.165,0.021-0.407-0.084-0.728-0.311l-2.321-1.63l-0.637,0.906l2.539,1.783c0.856,0.601,1.585,0.474,2.187-0.381
				c0.446-0.635,0.498-1.206,0.159-1.708l0.017-0.012l0.611,0.505l0.635-0.905l-3.777-2.654L184.336,159.262z"/>
		</g>
		<g id="SPLINE_3_">
			<path d="M187.585,154.636c-0.293,0.129-0.645,0.52-1.053,1.171c-0.433,0.691-0.648,1.208-0.64,1.549
				c0.006,0.341,0.233,0.653,0.678,0.934c0.5,0.313,0.913,0.385,1.239,0.218c0.324-0.167,0.749-0.669,1.274-1.506
				c0.233-0.371,0.512-0.454,0.843-0.248c0.343,0.217,0.332,0.619-0.04,1.21c-0.359,0.575-0.7,0.734-1.022,0.479l-0.118-0.106
				l-0.609,0.975l0.099,0.062c0.454,0.284,0.841,0.357,1.164,0.216c0.319-0.14,0.692-0.547,1.109-1.216
				c0.436-0.697,0.646-1.235,0.63-1.621c-0.017-0.384-0.262-0.725-0.741-1.025c-0.447-0.279-0.808-0.363-1.078-0.253
				c-0.272,0.11-0.633,0.49-1.083,1.139c-0.338,0.483-0.552,0.752-0.647,0.814c-0.095,0.059-0.25,0.022-0.465-0.113
				c-0.316-0.197-0.322-0.54-0.015-1.031c0.212-0.342,0.371-0.542,0.472-0.602c0.101-0.059,0.254-0.04,0.453,0.06l0.083,0.032
				l0.574-0.916C188.249,154.581,187.879,154.506,187.585,154.636z"/>
		</g>
		<path d="M160.37,91.413h-3.429V70.401c0-7.171-5.814-12.985-12.984-12.985h-17.284h-0.017
			c-1.942-10.882-12.34-18.13-23.223-16.188c-7.886,1.104-15.083,8.302-16.188,16.188H69.944c-7.17,0-12.984,5.813-12.984,12.985
			v10.915l-23.139,6.278l26.972,8.011l-26.452,7.857l26.452,7.856l-26.452,7.856l26.496,7.871l-3.876,1.16v16.212
			c0,7.171,5.813,12.985,12.984,12.985h24.103v-3.597c0-7.126,5.778-12.902,12.903-12.902c7.126,0,12.903,5.776,12.903,12.902v3.597
			h24.103c7.17,0,12.984-5.813,12.984-12.985v-21.012h3.431l20.924,14.853V76.56L160.37,91.413z M149.827,144.417
			c0,3.242-2.628,5.871-5.871,5.871h-17.301c-1.942-10.883-12.34-18.131-23.223-16.188c-7.886,1.105-15.083,8.303-16.188,16.188
			H69.944c-3.242,0-5.871-2.629-5.871-5.871V133.5l21.66-6.483l-26.407-7.842l26.451-7.856l-26.451-7.856l26.451-7.857
			l-25.931-7.702l4.227-1.146V70.401c0-3.243,2.629-5.871,5.871-5.871h24.103v-3.597c0-7.126,5.778-12.902,12.903-12.902
			c7.126,0,12.903,5.776,12.903,12.902v3.597h24.103c3.242,0,5.871,2.628,5.871,5.871v21.012h-13.463v31.991h13.463V144.417z
			 M157.945,116.291h-14.466V98.526h14.466V116.291z M174.182,124.484l-9.124-6.475V96.808l9.124-6.475V124.484z"/>
		<path d="M108,5.4C51.335,5.4,5.4,51.335,5.4,108S51.335,210.6,108,210.6S210.6,164.665,210.6,108S164.665,5.4,108,5.4z
			 M108.069,205.517l-0.005-6.781c-0.938,0.008-2.786-0.029-3.722-0.073c-50.072-2.021-89.025-44.25-87.005-94.322l-6.774-0.273
			c1.835-51.996,45.342-93.811,97.369-93.585c53.858-0.038,97.549,43.591,97.586,97.448
			C205.555,161.789,161.926,205.48,108.069,205.517z"/>
	</g>
</g>
</svg>
