<?xml version="1.0" encoding="UTF-8"?>
<svg width="348px" height="152px" viewBox="0 0 348 152" version="1.1" xmlns="http://www.w3.org/2000/svg" xmlns:xlink="http://www.w3.org/1999/xlink">
    <!-- Generator: Sketch 53.2 (72643) - https://sketchapp.com -->
    <title>Group</title>
    <desc>Created with Sketch.</desc>
    <g id="Symbols" stroke="none" stroke-width="1" fill="none" fill-rule="evenodd">
        <g id="Header_Landingpage" transform="translate(14.000000, -278.000000)" fill="#FFFFFF">
            <g id="Group" transform="translate(-14.000000, 278.000000)">
                <path d="M170,61.5347371 C185.831637,45.3334181 201.36669,24.6123101 217.494912,12.9307801 C223.502901,8.57924676 230.265139,40.6581992 237.843139,38.9983718 C243.048182,37.8582987 249.901276,34.8271384 254.56423,24.225414 C256.311337,20.2531796 258.031082,15.9137158 259.472953,10.5545867 C260.141405,8.07008881 259.800106,1.26343684 260.75454,1.21733672 C262.252434,1.14498698 263.142441,7.94815612 264.492907,10.312118 C269.621167,19.289022 275.219754,23.7895093 280.910528,21.6332029 C284.775682,20.1686472 289.728138,-5.53691369 292.394037,1.08948958 C295.107869,7.83503502 297.467684,16.3986134 300.237112,22.8367295 C311.815501,49.7531247 328.635331,38.0934519 340.507981,37.0409879 C344.719681,36.6676371 345.092214,34.300568 347.982296,28.8235026 C348.085742,28.6274611 347.702581,29.105905 347.690917,29.5288661 L347.495051,57.7213655 C347.422416,60.3551953 347.207553,63.202883 346.709172,65.1276827 C346.342361,66.544346 345.344068,64.8772805 345.166431,66.7147507 C344.581056,72.7698354 345.254106,79.8054169 344.700948,85.9006392 C344.511856,87.9842461 343.696718,88.4062476 343.130399,89.14972 C341.392292,91.431535 339.643306,93.8447938 337.820274,94.9337011 C329.366063,99.9834472 320.797876,102.280997 312.352951,107.533258 C300.925544,114.640451 289.644245,124.636431 278.228867,131.996147 C264.328258,140.95814 255.875537,134.364369 239.897306,136.387035 C231.213851,137.486264 222.543735,140.038581 213.898004,143.184976 C201.845915,147.571029 206.933788,150.473455 197.706474,151.208487 C184.232216,152.281822 184.764276,151.519514 172.451943,148.541331" id="Path-3"></path>
                <path d="M0,61.5347371 C15.8316374,45.3334181 31.3666898,24.6123101 47.4949123,12.9307801 C53.5029009,8.57924676 60.265139,40.6581992 67.8431387,38.9983718 C73.0481816,37.8582987 79.9012765,34.8271384 84.5642302,24.225414 C86.311337,20.2531796 88.031082,15.9137158 89.4729526,10.5545867 C90.1414054,8.07008881 89.8001058,1.26343684 90.7545402,1.21733672 C92.2524342,1.14498698 93.1424405,7.94815612 94.4929072,10.312118 C99.6211666,19.289022 105.219754,23.7895093 110.910528,21.6332029 C114.775682,20.1686472 119.728138,-5.53691369 122.394037,1.08948958 C125.107869,7.83503502 127.467684,16.3986134 130.237112,22.8367295 C141.815501,49.7531247 158.635331,38.0934519 170.507981,37.0409879 C174.719681,36.6676371 175.092214,34.300568 177.982296,28.8235026 C178.085742,28.6274611 177.702581,29.105905 177.690917,29.5288661 L177.495051,57.7213655 C177.422416,60.3551953 177.207553,63.202883 176.709172,65.1276827 C176.342361,66.544346 175.344068,64.8772805 175.166431,66.7147507 C174.581056,72.7698354 175.254106,79.8054169 174.700948,85.9006392 C174.511856,87.9842461 173.696718,88.4062476 173.130399,89.14972 C171.392292,91.431535 169.643306,93.8447938 167.820274,94.9337011 C159.366063,99.9834472 150.797876,102.280997 142.352951,107.533258 C130.925544,114.640451 119.644245,124.636431 108.228867,131.996147 C94.3282578,140.95814 85.8755368,134.364369 69.897306,136.387035 C61.2138506,137.486264 52.5437353,140.038581 43.8980036,143.184976 C31.8459151,147.571029 36.9337879,150.473455 27.7064738,151.208487 C14.2322157,152.281822 14.7642761,151.519514 2.45194314,148.541331" id="Path-3" transform="translate(89.000000, 75.835046) scale(-1, 1) translate(-89.000000, -75.835046) "></path>
            </g>
        </g>
    </g>
</svg>